<svg width="30" height="30" viewBox="0 0 30 30" fill="none" xmlns="http://www.w3.org/2000/svg">
<path d="M21.2988 13.8105C21.4277 13.8633 21.5449 13.9219 21.668 13.9746C23.3789 14.8008 24.6328 16.0371 25.2891 17.5723C26.209 19.7109 26.2969 23.1855 23.5137 25.9629C21.3926 28.084 18.8086 29.0391 15.1582 29.0684H15.1406C11.0273 29.0391 7.86914 27.6562 5.74219 24.9551C3.84961 22.5527 2.87695 19.207 2.8418 15.0176V15V14.9883C2.87109 10.7988 3.84375 7.45312 5.73633 5.05078C7.86328 2.34961 11.0273 0.966797 15.1406 0.9375H15.1582C19.2773 0.966797 22.4766 2.34375 24.668 5.0332C25.7461 6.36328 26.543 7.96289 27.0469 9.82031L24.6797 10.4531C24.2637 8.94141 23.6367 7.65234 22.793 6.62109C21.082 4.52344 18.5156 3.44531 15.1465 3.42188C11.8066 3.45117 9.28125 4.52344 7.63477 6.60938C6.09961 8.56055 5.30273 11.3848 5.27344 15C5.30273 18.6152 6.09961 21.4395 7.63477 23.3965C9.27539 25.4824 11.8066 26.5547 15.1465 26.584C18.1582 26.5605 20.1504 25.8457 21.8086 24.1875C23.7012 22.3008 23.666 19.9805 23.0625 18.5684C22.7051 17.7363 22.0605 17.0449 21.1934 16.5234C20.9766 18.0996 20.502 19.3535 19.7461 20.3203C18.7441 21.5977 17.3203 22.2891 15.4863 22.3887C14.1035 22.4648 12.7734 22.1309 11.7422 21.4512C10.5234 20.6426 9.80859 19.4121 9.73242 17.9766C9.58594 15.1465 11.8242 13.1133 15.3105 12.9141C16.5469 12.8438 17.707 12.8965 18.7793 13.0781C18.6387 12.2109 18.3516 11.5195 17.9238 11.0156C17.3379 10.3301 16.4238 9.97852 15.2168 9.97266H15.1758C14.2031 9.97266 12.8906 10.2422 12.0527 11.5137L10.0371 10.1309C11.1621 8.42578 12.9844 7.48828 15.1816 7.48828H15.2285C18.8965 7.51172 21.082 9.80273 21.3047 13.7988L21.293 13.8105H21.2988ZM12.1582 17.8418C12.2344 19.3125 13.8223 19.998 15.3574 19.9102C16.8574 19.8281 18.5566 19.2422 18.8438 15.6211C18.0703 15.4512 17.2148 15.3633 16.3008 15.3633C16.0195 15.3633 15.7383 15.3691 15.457 15.3867C12.9434 15.5273 12.1055 16.7461 12.1641 17.8359L12.1582 17.8418Z" fill="#1F2126"/>
</svg>
