<svg width="30" height="30" viewBox="0 0 30 30" fill="none" xmlns="http://www.w3.org/2000/svg">
<path d="M6.13409 4.2992C7.01993 4.4502 8.0502 4.92682 9.35378 5.85865C11.5997 7.46407 13.4609 9.67392 15 11.9546C16.5391 9.67392 18.4003 7.46407 20.6462 5.85865C21.9498 4.92682 22.9801 4.4502 23.8659 4.2992C24.8256 4.13558 25.4781 4.37956 25.8853 4.54922C27.1458 5.07453 27.5 6.53143 27.5 7.76835C27.5 8.0207 27.393 9.39583 27.2685 10.7189C27.2043 11.4012 27.1321 12.1039 27.0607 12.6895C26.9954 13.2256 26.9171 13.7902 26.8234 14.1062C26.3951 15.5495 25.4956 16.5773 24.385 17.2527C25.5566 18.1366 25.9818 19.573 25.5449 20.9821C24.7991 23.3876 22.1239 26.4792 19.5006 26.7547C17.2851 26.9873 15.8328 25.0993 15 23.3062C14.1672 25.0993 12.7149 26.9873 10.4994 26.7547C7.87619 26.4792 5.20088 23.3876 4.4551 20.9821C4.01821 19.573 4.44333 18.1366 5.61496 17.2527C4.50431 16.5773 3.60493 15.5495 3.17665 14.1062C3.08289 13.7902 3.00459 13.2256 2.93924 12.6895C2.86786 12.1039 2.79572 11.4012 2.73151 10.7189C2.60699 9.39583 2.5 8.0207 2.5 7.76835C2.5 6.53143 2.85429 5.07453 4.11478 4.54922C4.52191 4.37956 5.17436 4.13558 6.13409 4.2992ZM5.06139 8.64645C5.14164 9.66866 5.28611 11.2814 5.42086 12.3869C5.46159 12.721 5.49018 13.0671 5.57329 13.3946C6.07046 15.0701 7.98474 15.9973 10.1813 15.7538C10.8586 15.6787 11.4712 16.1598 11.5587 16.8356C11.6462 17.5113 11.1764 18.1327 10.5024 18.2326C9.5576 18.3727 6.3582 18.6782 6.84298 20.2418C7.289 21.6805 9.15265 24.0996 10.7605 24.2683C11.9201 24.3902 12.6355 22.5265 12.9676 21.7122C13.3111 20.8698 13.5778 19.988 13.8021 19.2357C13.9601 18.7061 14.4473 18.3431 15 18.3431C15.5527 18.3431 16.0399 18.7061 16.1979 19.2357C16.4222 19.988 16.6889 20.8698 17.0324 21.7122C17.3645 22.5265 18.0799 24.3902 19.2395 24.2683C20.8474 24.0996 22.711 21.6805 23.157 20.2418C23.6418 18.6782 20.4424 18.3727 19.4976 18.2326C18.8236 18.1327 18.3538 17.5113 18.4412 16.8356C18.5289 16.1598 19.1414 15.6787 19.8186 15.7538C22.0153 15.9973 23.9295 15.0705 24.4266 13.395C24.5125 13.0626 24.5375 12.7251 24.5791 12.3869C24.7139 11.2814 24.8584 9.66866 24.9386 8.64645C24.9845 8.06161 25.2481 6.59963 24.286 6.76363C23.9286 6.82457 23.2574 7.06515 22.1 7.89247C19.6718 9.62823 17.4686 12.2834 16.1137 14.9426C15.9004 15.3613 15.47 15.6251 15 15.6251C14.53 15.6251 14.0996 15.3613 13.8863 14.9426C12.5314 12.2834 10.3282 9.62823 7.89998 7.89247C6.74258 7.06515 6.07141 6.82457 5.71396 6.76363C4.73425 6.59663 5.01506 8.05638 5.06139 8.64645Z" fill="#1F2126"/>
</svg>
