<svg width="128" height="128" viewBox="0 0 128 128" fill="none" xmlns="http://www.w3.org/2000/svg">
<rect width="128" height="128" fill="#181A1E"/>
<path d="M47.108 113.813C44.6652 113.813 37.3533 76.2706 38.9455 66.2324L42.8424 66.9686H46.9906C40.9568 84.9703 49.4645 113.813 47.108 113.813Z" fill="#EEF0E0"/>
<path d="M49.2945 66.3054L48.476 68.3407C47.3643 71.928 46.7663 76.0101 46.4777 78.7289C46.431 79.1614 46.1585 79.4271 46.1182 79.711C46.0786 79.9944 46.3256 79.7676 46.2911 80.0243C46.2562 80.2809 46.0825 80.4613 46.0567 80.7036C45.8829 82.3296 45.7648 83.9868 45.7522 85.6214C45.7492 86.0459 45.9477 86.3777 45.9603 86.7637C45.965 86.9136 45.7214 86.9264 45.7273 87.0331C45.788 88.182 46.0803 89.2364 46.1303 90.3743C46.1512 90.8515 45.9854 91.3797 46.0048 91.8498C46.02 92.2346 46.1957 92.631 46.2306 92.9783C46.25 93.1672 46.0747 93.2834 46.0664 93.3531C46.0406 93.5954 46.2587 93.4918 46.2703 93.613C46.3018 93.9466 46.0457 94.1385 46.0996 94.4546C46.1209 94.5781 46.2929 94.5451 46.3388 94.7223C46.3968 94.9466 46.2277 94.8786 46.2392 95.0416C46.2395 95.0515 46.3605 95.0072 46.3747 95.0927C46.4663 95.6394 46.6431 96.3249 46.6986 96.8599C46.8121 97.9564 46.7153 99.0769 46.8113 100.125C46.8357 100.387 46.9873 100.296 47.0066 100.377C47.0986 100.772 46.9234 100.923 47.0536 101.342C47.075 101.411 47.3382 101.663 47.3201 101.936C47.3104 102.084 47.195 102.265 47.1801 102.39C47.1652 102.516 47.3728 102.507 47.3941 102.651C47.435 102.924 47.2815 102.866 47.3643 103.25C47.3977 103.406 47.6675 103.885 47.7128 104.285C47.7894 104.957 47.7319 105.77 47.8469 106.549C47.8845 106.808 48.146 107.115 48.2105 107.534C48.2866 108.023 48.377 108.985 48.44 109.478C48.4762 109.757 48.2571 109.802 48.2523 109.836C48.2178 110.049 48.454 109.936 48.4618 110.074C48.4725 110.264 48.31 110.445 48.3187 110.622C48.3246 110.737 48.5078 110.735 48.513 110.76C48.6671 111.627 48.7493 112.416 48.7349 113.433C48.7309 113.556 48.7246 113.67 48.7121 113.795C48.6954 113.952 48.6712 114.106 48.6308 114.265C48.599 114.391 48.5179 114.671 48.3294 114.93C48.2149 115.151 47.6065 115.611 47.083 115.573C46.4236 115.574 46.001 115.175 45.8787 115.068C45.7873 114.984 45.7072 114.898 45.6322 114.81C45.5948 114.766 45.5584 114.721 45.5233 114.675C45.4923 114.635 45.4718 114.607 45.4466 114.573C45.2552 114.313 45.0662 113.982 44.9423 113.751C44.6465 113.191 44.436 112.714 44.2143 112.183C43.7867 111.149 43.4259 110.131 43.0892 109.106C42.4158 107.043 41.8575 104.98 41.4044 102.904C41.321 102.522 41.54 102.445 41.4276 102.128C41.3153 101.809 40.7529 101.596 41.2271 101.201C41.1166 101.216 41.0393 101.234 40.9385 101.247C40.9292 100.511 40.6194 99.8743 40.4497 99.196C40.3235 98.6911 40.2469 98.2526 40.1604 97.7876C40.0847 97.3755 40.2824 97.3727 39.9596 97.0654C39.747 95.2747 39.3575 93.4885 39.2942 91.69C38.8104 91.3503 38.9955 90.9091 38.9548 90.3293C38.9499 90.2577 38.8141 90.3584 38.7899 90.1475C38.7592 89.8826 38.963 89.7087 38.8742 89.2698C38.8502 89.1542 38.4495 88.3283 38.5261 87.9855C38.6022 87.6437 38.6025 87.1675 38.6734 86.8165C38.583 86.8787 38.4987 86.9528 38.4107 87.0203C38.3669 86.8567 38.3243 86.694 38.2807 86.5289C38.3946 86.4867 38.5088 86.4444 38.6236 86.4031C38.4961 86.3231 38.3699 86.2427 38.241 86.1618C38.8132 85.8603 38.6492 86.1059 38.4235 85.6603C38.3111 85.437 38.3883 85.2358 38.2907 85.0049C38.2551 84.9218 38.0686 84.8921 38.0315 84.8001C37.9416 84.5744 38.2074 84.6765 38.1846 84.5311C38.1607 84.3843 37.8596 84.2105 37.9416 83.9309C38.4623 84.1379 38.1912 83.369 37.8123 83.3824C37.7984 83.2886 37.8028 83.2079 37.7778 83.1059C38.7357 83.0738 37.9978 82.6784 37.8414 82.4959C37.6852 82.3149 37.9399 82.2903 37.924 82.2454C37.8785 82.1161 37.7862 82.2262 37.7702 82.1336C37.6659 81.5159 37.7492 80.937 37.6883 80.32C37.6795 80.2318 37.5452 80.3266 37.5469 80.2223C37.5486 80.118 37.6797 80.0035 37.652 79.854C37.6446 79.8138 37.5167 79.8152 37.5092 79.7522C37.3618 78.4483 37.3381 77.1756 37.2413 75.8128C37.2328 75.6916 36.9994 75.6134 36.989 75.3802C36.9789 75.1508 37.1543 74.7571 37.1507 74.464C37.1498 74.3854 36.9607 74.3758 36.9589 74.272C36.9533 73.915 37.0899 73.6261 37.0954 73.2389C37.1059 72.5995 36.969 71.9848 37.0702 71.3249C37.0892 71.2043 37.2464 71.2209 37.289 71.0495C37.3632 70.7559 37.1351 70.8678 37.1041 70.8085C37.0045 70.615 37.3091 70.5601 37.2323 70.3577C37.2205 70.3272 37.04 70.369 37.037 70.3418C37.0106 69.9191 37.4337 69.9072 37.2202 69.4756C37.4771 69.1112 37.5372 69.736 37.6661 69.8065C37.9763 69.9713 38.3546 69.5618 38.4833 69.3387C38.5938 69.1379 38.3997 69.1213 38.4038 69.0369C38.4254 68.5779 38.4448 67.95 38.5849 67.6151C38.6664 67.425 38.7 67.7907 38.7771 67.6975C38.8533 67.606 38.7168 67.5227 38.8901 67.4471C38.9912 67.4013 39.2022 67.3473 39.4034 67.3237C39.3796 67.3219 39.3564 67.319 39.3343 67.3129C39.1529 67.2629 39.3492 67.0082 39.0588 67.0584C38.9986 67.0699 39.1165 67.3353 38.8459 67.1923C38.8028 67.1696 38.3904 66.833 38.3063 66.761C38.5753 66.6539 39.3119 66.5811 39.5866 66.5663C40.4813 66.5178 41.5341 66.5347 42.6858 66.6008L42.4663 66.5819C43.8447 66.4235 45.3769 66.3105 46.9561 66.2324L49.2945 66.3054ZM45.9858 69.0393C45.8075 69.5669 45.6439 70.1086 45.5068 70.6656C44.6974 73.9443 44.9964 77.5318 44.7549 80.8469C44.7321 81.1589 44.4993 81.2768 44.5379 81.5431C44.5445 81.5881 44.7243 81.4783 44.7377 81.6161C44.9147 83.5049 44.5316 85.5155 44.7162 87.3701C44.7662 87.8685 44.9663 87.9384 45.038 88.3728C44.9416 88.3004 44.8422 88.2546 44.7456 88.1917C44.5517 90.2137 44.8376 92.2201 44.9993 94.2444C45.0063 94.3367 44.8167 94.367 44.8192 94.4644C44.8241 94.6594 45.0536 94.8233 45.0785 94.9903C45.1109 95.208 44.963 95.2614 44.9948 95.4614C45.0106 95.5588 45.1534 95.5144 45.1521 95.7294C45.152 95.7474 45.0001 95.7754 45.0356 95.9143C45.1334 96.2987 45.3561 97.0865 45.4335 97.3993C45.5315 97.7976 45.344 98.1629 45.3488 98.3206C45.3623 98.7479 45.5967 98.7099 45.6429 99.0631C45.9749 101.588 46.0753 104.039 46.4705 106.626C46.4953 106.789 46.8455 107.338 46.8814 107.652C46.8928 107.756 46.9004 108.286 46.9053 108.36C46.9297 108.681 46.8128 108.994 46.8037 109.17C46.7856 109.511 47.0847 109.864 47.1345 110.053C47.2219 110.376 47.2576 110.953 47.2665 111.1C47.2868 111.432 46.9678 111.354 47.0622 111.573C47.0902 111.639 47.3189 111.536 47.3429 111.8C47.361 112.016 47.1889 112.111 47.1663 112.248C47.1435 112.373 47.4331 112.638 47.4286 112.728C47.4155 112.919 47.376 113.07 47.3291 113.216C47.3301 113.217 47.3312 113.218 47.3322 113.219C47.3511 113.238 47.369 113.254 47.3861 113.27C47.366 113.261 47.3439 113.253 47.3197 113.245C47.2604 113.425 47.1908 113.598 47.1428 113.828C47.1301 113.876 47.1192 113.933 47.0881 114.007C47.0753 114.037 47.0636 114.055 47.0622 114.06C47.0583 114.064 47.0868 114.056 47.083 114.063C47.0982 114.068 47.0673 114.076 47.001 114.031C46.9555 114.003 46.8959 113.954 46.8299 113.884C46.7575 113.806 46.7066 113.745 46.653 113.677C46.6126 113.626 46.5722 113.57 46.5316 113.513C46.5269 113.522 46.5219 113.53 46.5185 113.539C46.4709 113.653 46.4776 113.757 46.4508 113.714C46.4393 113.728 46.3093 113.539 46.4763 113.434C46.2789 113.143 46.151 112.931 46.1006 112.879C45.5162 112.297 46.1703 113.414 46.188 113.431C46.337 113.808 46.2076 113.817 46.597 113.993C46.5417 114.123 46.5614 114.247 46.6288 114.345C46.6662 114.42 46.8862 114.58 47.083 114.55C47.521 114.484 47.5012 114.06 47.5458 113.918C47.5681 113.82 47.6017 113.701 47.6564 113.63C47.7111 113.561 47.7931 113.501 47.9164 113.46C47.4174 113.095 47.6725 112.9 47.7618 112.542C47.8803 112.078 47.5996 112.443 47.5762 112.126C47.5686 112.014 47.7661 111.577 47.7162 111.416C47.6646 111.235 47.4772 111.175 47.4376 110.916C47.364 110.44 47.4059 110.109 47.5659 109.674C47.4611 109.613 47.3574 109.56 47.2537 109.507C47.3211 109.242 47.3855 108.966 47.448 108.683C47.3714 108.737 47.2941 108.792 47.2174 108.846C47.1943 108.77 47.1717 108.692 47.149 108.615C47.234 108.325 47.3173 108.093 47.4065 107.808C46.8226 107.163 47.2638 107.29 47.2689 106.901C47.2726 106.505 46.961 106.314 46.9122 106.003C46.8456 105.578 46.7855 105.417 46.7418 104.995C46.7167 104.753 46.9207 104.297 46.5493 104.699C46.4019 103.955 46.128 102.925 46.2053 102.247C46.2269 102.043 46.3982 102.288 46.41 102.252C46.4641 102.074 46.2274 101.962 46.2333 101.783C46.2429 101.484 46.3316 100.897 46.3405 100.67C46.3526 100.339 46.0021 99.8569 45.9744 99.8057C45.8203 99.5213 46.043 99.4147 46.0145 99.3237C45.8508 98.8042 45.7378 98.695 46.2074 98.4656C45.9771 98.3549 45.5445 97.8022 45.8856 97.6237C45.5622 97.6584 45.5578 97.1722 45.4418 96.8822C45.5287 96.8162 45.615 96.7492 45.7027 96.6832C45.0487 96.1149 45.3335 94.84 45.3218 94.0064C45.3212 93.9859 45.0748 93.9723 45.1175 93.8442C45.1213 93.836 45.2317 93.8384 45.2378 93.7546C45.2559 93.4796 45.4341 92.413 45.4272 92.2912C45.3993 91.8522 45.212 91.7896 45.1735 91.5227C45.1231 91.171 45.2832 91.1079 45.2351 90.7724C45.213 90.6158 44.9869 90.4837 45.0007 90.2354C45.0087 90.0879 45.177 90.0627 45.1832 89.9461C45.2057 89.5309 45.081 89.2325 45.2817 88.8534C44.737 88.7855 45.125 88.5878 45.1566 88.4046C45.2853 87.6634 45.0234 86.7499 45.0574 86.1162C45.1641 84.1363 45.5106 82.3941 45.6789 80.4927C45.7069 80.1831 45.4402 80.0936 45.477 79.7684C45.4941 79.6224 45.6995 79.4839 45.719 79.2463C45.7352 79.0552 45.6562 78.7745 45.6768 78.5335C45.6822 78.4697 45.8662 78.4785 45.8756 78.3851C45.9471 77.6759 45.8879 76.9804 45.8891 76.2515C45.8893 75.9824 46.1537 75.8506 45.7266 75.8412C45.8435 75.7533 45.9472 75.6673 46.0622 75.5867C45.8482 75.1897 46.168 74.9311 46.1811 74.4319C46.181 74.3779 45.9551 73.9601 46.2019 73.7877C46.0556 73.7471 45.9233 73.7577 45.7895 73.7283C45.7701 73.5097 46.0023 73.2256 46.0481 73.0878C46.0933 72.9509 45.9196 72.8196 45.9264 72.7769C45.9547 72.6151 46.2003 72.7032 46.2071 72.6917C46.6075 71.9996 46.4575 72.0562 46.1846 71.5247C46.1136 71.3925 46.5828 70.6958 46.3301 70.4692C46.4527 70.4936 46.5475 70.5634 46.6595 70.6051C46.7514 70.3876 46.8463 70.1704 46.9423 69.9562C46.8132 69.9713 46.6813 69.9964 46.5527 70.0082C46.7188 69.7005 46.6892 69.3719 46.7083 69.0727C46.4756 69.0619 46.2333 69.0505 45.9858 69.0393ZM47.3861 113.27C47.4522 113.297 47.4966 113.327 47.5188 113.346C47.5648 113.386 47.5469 113.388 47.5316 113.383C47.5129 113.377 47.4795 113.353 47.439 113.316C47.4217 113.301 47.4043 113.286 47.3861 113.27ZM46.6364 113.378C46.6599 113.374 46.6856 113.371 46.7135 113.369C46.7085 113.354 46.7051 113.339 46.7014 113.325C46.6777 113.342 46.6561 113.36 46.6364 113.378ZM42.2707 100.844C42.1439 100.022 42.5788 99.2396 41.7729 99.5768C41.9552 100.418 42.2052 101.122 42.3892 102.012C42.4075 102.102 42.4671 102.694 42.5005 102.891C42.5195 103.002 42.3822 103.038 42.42 103.187C42.4291 103.219 42.6532 103.355 42.6644 103.421C42.7012 103.641 42.5957 104.388 42.6281 104.481C42.7183 104.736 42.9072 104.583 42.9748 104.686C43.1996 105.028 42.8885 105.149 43.0882 105.486C43.124 105.546 43.4646 105.705 43.5023 105.991C43.5172 106.108 43.4246 106.335 43.4546 106.418C43.6153 106.863 43.9547 107.343 44.0456 107.776C44.1194 108.128 43.8779 108.094 43.9018 108.283C43.9247 108.464 44.2435 108.628 44.2966 108.751C44.3812 108.95 44.3155 109.234 44.3367 109.295C44.7656 110.515 45.2798 111.525 45.8306 112.645C45.5956 111.856 45.3868 110.993 45.2375 110.215C44.8681 109.834 45.1487 109.993 45.1186 109.667C45.0979 109.428 44.7562 109.476 44.6689 109.219L44.655 109.165C44.6284 109.002 44.7799 108.574 44.5686 108.259C44.561 108.248 44.3573 108.275 44.2772 108.028C44.0959 107.467 43.746 106.602 43.6149 105.944C43.5756 105.747 43.7926 105.734 43.757 105.497C43.7292 105.317 43.4917 105.19 43.4677 104.922C43.4393 104.588 43.7293 104.352 43.2143 104.238C43.3731 104.18 43.5349 104.151 43.6886 104.09C42.7677 103.601 42.4157 101.811 42.2707 100.844ZM46.3944 111.389C46.4114 111.367 46.4303 111.343 46.4521 111.318C46.4065 111.296 46.3721 111.274 46.3457 111.251C46.3618 111.297 46.3782 111.343 46.3944 111.389ZM40.9461 67.1652C40.7013 67.1625 40.6633 67.3958 40.6191 67.3977C40.3559 67.4072 40.3965 67.1817 40.1552 67.1781C39.9846 67.1755 39.7632 67.2751 39.5645 67.3116C39.6471 67.3101 39.7214 67.3167 39.7771 67.3352C39.823 67.623 39.8497 67.9384 39.8511 68.2731C39.8558 68.5718 39.8326 68.8919 39.775 69.239C39.7489 69.4003 39.6048 69.3687 39.5787 69.431C39.5307 69.5402 39.6819 69.7362 39.6813 69.7632C39.6789 69.931 39.4259 69.8601 39.4155 69.8825C39.3066 70.1385 39.5981 70.069 39.6229 70.3205C39.6559 70.6646 39.6056 71.0358 39.5987 71.4378C39.5957 71.5769 39.3999 71.517 39.4238 71.8224C39.4401 72.0397 39.6834 72.6523 39.4629 72.9705C39.3738 72.9763 39.2735 72.9423 39.1808 72.9303C39.5734 73.3522 39.5644 73.5012 39.5116 74.1075C39.5036 74.2042 39.6616 74.2854 39.617 74.4596C39.5726 74.6345 39.3378 74.6567 39.3668 75.0068C39.3779 75.1309 39.5487 75.1862 39.5704 75.3691C39.6304 75.8808 39.5198 76.9336 39.5559 77.3537C39.6278 78.2085 39.9628 78.6547 39.9523 79.4163C39.9519 79.4754 39.7563 79.3675 39.7653 79.4751C39.7748 79.5837 40.0275 79.6695 40.0363 79.6954C40.1319 79.9763 39.8873 80.6272 39.9461 80.7776C40.0903 81.1516 40.1465 80.758 40.2613 81.2883C40.371 81.7942 40.157 82.5472 40.1677 83.0586C40.1806 83.6562 40.6601 83.7837 40.2551 84.2966C40.5128 85.8407 40.7829 87.4053 41.075 88.9534C40.9807 88.9645 40.8861 88.9751 40.7916 88.9852C40.8775 89.0974 40.9637 89.2094 41.0491 89.3215C40.9763 89.3146 40.9035 89.3086 40.8313 89.3016C41.2008 89.8341 41.4307 90.3235 41.4798 91.0097C41.4808 91.023 41.2892 91.021 41.2852 91.0326C41.2778 91.1907 41.4523 91.3353 41.4432 91.4744C41.4216 91.8104 41.1185 92.429 41.5697 92.0996C41.6082 92.8702 41.9463 93.7199 41.9921 94.4502C42.0125 94.7685 41.7377 94.9174 41.7505 95.069C41.7635 95.2203 42.0005 95.0964 42.0208 95.1471C42.1404 95.452 42.2358 95.9692 41.9651 96.0789C42.0907 96.1196 42.2185 96.1635 42.345 96.2046C42.024 96.2276 42.3579 97.1826 42.4048 97.4365C42.4133 97.4832 42.278 97.5177 42.2869 97.5524C42.3882 97.9401 42.622 97.9854 42.7667 98.3084C42.8177 98.4219 42.5365 98.2884 42.7069 98.5711C42.7219 98.5955 42.9352 98.5371 43.0135 98.8985C43.1373 99.4715 43.4728 100.554 43.5265 101.256C43.5311 101.313 43.2562 101.198 43.3706 101.439C43.4116 101.526 43.5682 101.445 43.6219 101.665C43.8386 102.548 43.8673 103.489 44.2572 104.352C44.0614 104.366 43.77 104.103 44.009 104.547C44.0479 104.617 44.2008 104.52 44.2157 104.552C44.3352 104.815 44.2731 105.065 44.4183 105.354C44.4614 105.439 44.5982 105.428 44.6588 105.531C44.7486 105.682 44.5812 105.801 44.711 105.967C44.9148 106.225 45.1036 106.222 44.8538 106.665C45.2881 108.136 45.7762 109.62 46.272 111.04C46.2804 110.943 46.3119 110.824 46.2966 110.667C46.293 110.632 46.1546 110.44 46.1538 110.258C46.1533 110.126 46.3303 110.066 46.2738 109.857C46.2634 109.81 45.9824 109.431 45.9419 109.293C45.8799 109.086 46.0615 108.702 46.0581 108.657C46.0127 108.057 45.7483 107.859 46.0595 107.36C45.821 107.299 45.6382 106.976 45.6156 106.68C45.587 106.305 45.9336 105.499 45.4342 105.473C45.5858 105.017 45.4596 105.084 45.3775 104.569C45.3062 104.128 45.306 102.85 45.2281 102.499C45.1481 102.132 44.9043 102.35 44.8469 102.207C44.7519 101.971 44.9702 102.075 44.9433 101.909C44.8661 101.43 44.7718 101.035 44.6229 100.597C44.7596 100.554 44.8966 100.51 45.0332 100.466C44.9833 100.449 44.9334 100.432 44.8835 100.415C44.8716 100.318 44.8539 100.209 44.8458 100.118C44.335 100.96 44.7902 99.3724 44.7508 98.934C44.715 98.5602 44.3417 97.9506 44.2295 97.5531C44.2019 97.455 44.3617 97.5059 44.3557 97.4858C44.2832 97.2495 44.1752 97.2247 44.1507 96.8957C44.1382 96.7215 44.3076 96.5228 44.2918 96.3526C44.1766 95.1191 43.8625 93.9399 43.7332 92.7042C43.711 92.4927 43.928 92.2925 43.9184 92.1172C43.9047 91.8658 43.7018 91.7215 43.6803 91.4845C43.6589 91.2482 43.8614 90.8905 43.8154 90.7318C43.7699 90.573 43.5683 90.8637 43.608 90.5642C43.6265 90.4268 43.8075 90.6554 43.8009 90.4875C43.7805 89.9698 43.5318 89.2464 43.7007 88.6794C43.6528 88.7064 43.6103 88.7422 43.5648 88.7747C43.553 88.1808 43.6482 87.6562 43.6436 87.0439C43.6423 86.8301 43.4858 86.4482 43.4812 86.2382C43.4764 86.028 43.6311 85.9288 43.6319 85.7606C43.6325 85.6916 43.4927 85.7213 43.4947 85.6748C43.5209 85.0929 43.7672 84.7714 43.737 84.1651C43.6285 81.9413 43.6279 79.635 43.7629 77.3553C43.7683 77.264 43.5922 77.1846 43.5793 77.0485C43.5596 76.8389 43.7221 76.8457 43.7307 76.819C43.7859 76.6449 43.6285 76.7011 43.6564 76.4594C43.7175 75.9248 43.9645 75.0928 44.037 74.5647C44.2023 73.3463 44.2598 72.3015 44.4715 71.1046C44.4864 71.0184 44.6834 71.1249 44.7221 70.9789C44.9582 70.1256 44.8974 69.7977 45.1262 69.0017C44.2536 68.9645 43.382 68.9313 42.6969 68.9183V68.9169C42.623 68.9766 42.5459 69.0249 42.4663 69.0629L42.2423 69.0437C41.7683 69.1764 41.2775 68.9813 40.8877 68.6584C41.3776 68.5896 41.8584 68.554 42.3329 68.5448L42.4663 68.5563C43.4349 68.3689 44.3974 68.2989 45.3699 68.2815C45.4434 68.0884 45.5267 67.874 45.6198 67.6458C45.4271 67.7176 45.2192 67.7984 44.9426 67.6651C44.9029 67.6454 44.4768 67.3628 44.2136 67.7675C44.1299 67.6399 44.056 67.5728 43.9934 67.4653C43.4607 68.0661 43.6079 67.4772 42.8873 67.3376C42.8007 67.3207 42.6665 67.3136 42.5064 67.3132C41.9864 67.2294 41.2444 67.1696 40.9461 67.1652ZM39.6271 86.101C39.6378 86.051 40.0617 85.3523 39.5344 85.619C39.4234 86.4953 39.6882 87.3722 39.7014 88.2745C40.1994 87.886 39.8983 87.4142 39.7591 86.8067V86.806C39.7526 86.7773 39.9157 86.8759 39.8631 86.7154C39.8374 86.6376 39.5685 86.3659 39.6271 86.101ZM45.9447 67.5728C45.9191 67.5714 45.8938 67.573 45.8687 67.5759L46.2962 68.169C46.2825 68.2057 46.2687 68.2424 46.2551 68.2792C46.2954 68.2795 46.3357 68.279 46.3761 68.2795L46.7491 68.7969C46.7546 68.7766 46.7607 68.7566 46.7677 68.7368C46.8445 68.5235 47.0876 68.631 47.0754 68.4887C47.0729 68.4607 46.8887 68.4463 46.9001 68.3691C46.9043 68.3413 46.9087 68.3144 46.9136 68.2883C46.9277 68.2886 46.942 68.289 46.9561 68.2893L46.9229 68.2433C46.9554 68.0878 47.0006 67.9602 47.0539 67.8445L47.1065 67.7134L46.9561 67.7087C46.6384 67.6838 46.3703 67.5958 45.9447 67.5728ZM46.9229 68.2433C46.9198 68.2581 46.9164 68.273 46.9136 68.2883C46.7338 68.2846 46.5547 68.2816 46.3761 68.2795L46.2962 68.169C46.3616 67.9943 46.4277 67.8209 46.4946 67.6492L46.9229 68.2433ZM42.5064 67.3132C42.5229 67.3159 42.5392 67.3183 42.5552 67.321L42.4663 67.3132C42.4799 67.3132 42.4932 67.3132 42.5064 67.3132Z" fill="#EEF0E0"/>
<path d="M81.3602 113.813C83.76 113.813 91.2218 76.2424 89.5969 66.2324L85.4277 67.2334L81.4508 66.833C87.6084 84.7843 79.27 113.813 81.3602 113.813Z" fill="#EEF0E0"/>
<path d="M80.1589 66.7979C81.2741 70.5021 81.8858 74.7201 82.1864 77.5269C82.2349 77.9723 82.508 78.2455 82.5494 78.5379C82.5903 78.8297 82.3426 78.5969 82.3783 78.8614C82.4143 79.1256 82.5888 79.3108 82.6157 79.5604C82.797 81.2348 82.9236 82.9422 82.9456 84.6261C82.951 85.0633 82.7547 85.4062 82.7444 85.804C82.7405 85.9585 82.984 85.9702 82.9788 86.0803C82.925 87.2641 82.6393 88.3522 82.5964 89.5248C82.5785 90.0165 82.7474 90.5595 82.731 91.0439C82.7182 91.4403 82.5455 91.8496 82.5129 92.2076C82.4946 92.4024 82.6707 92.5211 82.6792 92.5929C82.7063 92.842 82.4879 92.7367 82.477 92.8615C82.4475 93.2055 82.7045 93.4014 82.6526 93.7274C82.632 93.8546 82.46 93.8217 82.4152 94.0044C82.3586 94.2359 82.5272 94.1649 82.5167 94.333C82.5157 94.3428 82.3954 94.2983 82.3817 94.3861C82.2936 94.9501 82.1209 95.6568 82.0687 96.2085C81.962 97.3374 82.0651 98.4927 81.9748 99.5709C81.9518 99.841 81.7997 99.7488 81.7809 99.8325C81.691 100.239 81.8668 100.395 81.7391 100.826C81.7181 100.897 81.4561 101.158 81.4755 101.439C81.4858 101.591 81.6019 101.777 81.6173 101.907C81.6325 102.035 81.4254 102.027 81.4047 102.176C81.3654 102.454 81.5183 102.396 81.4372 102.791C81.4046 102.952 81.1363 103.45 81.0931 103.857C81.0184 104.552 81.0787 105.383 80.9644 106.189C80.9266 106.458 80.6672 106.766 80.6023 107.201C80.5261 107.708 80.4348 108.693 80.3697 109.2C80.3338 109.478 80.5507 109.532 80.5561 109.565C80.5893 109.786 80.3544 109.668 80.3456 109.81C80.334 110.005 80.4937 110.203 80.4853 110.371C80.4788 110.487 80.2945 110.485 80.29 110.51C80.1252 111.413 80.0431 112.206 80.0139 113.214C80.012 113.478 80.0087 113.701 80.0584 114.055C80.0707 114.137 80.0859 114.219 80.1064 114.303C80.1347 114.418 80.1781 114.558 80.2462 114.701C80.2806 114.773 80.3223 114.848 80.3749 114.926C80.4012 114.964 80.4301 115.004 80.4626 115.043C80.4995 115.088 80.5578 115.151 80.6161 115.203C80.8487 115.424 81.2421 115.583 81.5793 115.576C82.2829 115.569 82.6756 115.139 82.7979 115.03C82.8866 114.942 82.9644 114.852 83.0371 114.76C83.0732 114.715 83.1094 114.666 83.142 114.621C83.1663 114.587 83.1903 114.553 83.2138 114.519C83.4001 114.248 83.5801 113.914 83.7018 113.675C83.9906 113.097 84.1952 112.609 84.4113 112.065C84.8302 111.001 85.183 109.958 85.5139 108.905C86.1751 106.788 86.7249 104.672 87.1712 102.542C87.2537 102.148 87.0344 102.07 87.1467 101.742C87.2583 101.413 87.8192 101.192 87.3447 100.788C87.4553 100.803 87.5325 100.821 87.6333 100.835C87.641 100.077 87.9496 99.4193 88.1178 98.7209C88.243 98.2012 88.3189 97.7484 88.4046 97.2698C88.4796 96.8454 88.2825 96.8432 88.6044 96.5261C88.8144 94.6813 89.2012 92.8416 89.2629 90.9891C89.7456 90.6384 89.5605 90.1841 89.6007 89.587C89.6056 89.5134 89.7413 89.6167 89.7653 89.3995C89.7957 89.1267 89.5921 88.948 89.6804 88.4958C89.7043 88.3766 90.1035 87.5258 90.0269 87.1728C89.9507 86.8208 89.9502 86.3303 89.8792 85.9688C89.9695 86.0328 90.0539 86.109 90.1419 86.1785C90.1854 86.0099 90.2279 85.8419 90.2713 85.6721C90.1575 85.6288 90.0435 85.5857 89.9289 85.5434C90.0562 85.4608 90.1822 85.3776 90.311 85.2942C89.7394 84.9844 89.9032 85.2373 90.1284 84.7781C90.2406 84.548 90.1632 84.3406 90.2606 84.1027C90.2961 84.017 90.4824 83.9861 90.5194 83.8913C90.6091 83.6588 90.3438 83.7641 90.3665 83.6147C90.3904 83.4634 90.6908 83.2841 90.6088 82.9963C90.089 83.2101 90.3593 82.4179 90.7375 82.4313C90.7514 82.3346 90.7467 82.2514 90.7717 82.1463C89.8156 82.1144 90.552 81.7059 90.7082 81.5185C90.8641 81.3319 90.6096 81.3065 90.6257 81.2603C90.6711 81.1273 90.7633 81.2405 90.7793 81.145C90.8832 80.5089 90.8001 79.9121 90.8607 79.2775C90.8694 79.1866 91.0036 79.2839 91.0019 79.1765C91 79.0691 90.8689 78.9512 90.8966 78.7972C90.9039 78.7558 91.0316 78.7572 91.0391 78.6924C91.186 77.3498 91.2096 76.0392 91.3063 74.6349C91.3148 74.5099 91.5478 74.4292 91.5582 74.1889C91.5681 73.954 91.393 73.5473 91.3967 73.2456C91.3978 73.1647 91.5865 73.1548 91.5882 73.0478C91.5938 72.6795 91.4574 72.3838 91.4519 71.9844C91.4415 71.325 91.5784 70.6932 91.4774 70.0127C91.4584 69.8884 91.3015 69.9057 91.259 69.7292C91.1849 69.4265 91.4126 69.5418 91.4436 69.4807C91.5429 69.281 91.239 69.2259 91.3156 69.017C91.3274 68.9856 91.5083 69.0285 91.5109 69.0003C91.5372 68.565 91.1146 68.5525 91.3277 68.108C91.0713 67.7327 91.0115 68.3761 90.8828 68.4489C90.5731 68.6187 90.1951 68.1967 90.0666 67.9668C89.9561 67.7608 90.1502 67.7427 90.146 67.6558C90.1244 67.1825 90.1052 66.5365 89.9652 66.1912C89.8837 65.9956 89.8502 66.3723 89.7733 66.2763C89.6971 66.1819 89.8335 66.096 89.6604 66.018C89.5803 65.9806 89.4311 65.9379 89.2725 65.9094C89.3662 65.8234 89.2284 65.6278 89.4896 65.6602C89.5504 65.6688 89.446 65.9472 89.7091 65.7866C89.7506 65.7615 90.1463 65.3945 90.2268 65.3163C89.9522 65.2204 89.2119 65.1838 88.9364 65.183C88.068 65.1799 87.0547 65.2482 85.9495 65.3683C84.6758 65.0999 83.2748 64.8575 81.8302 64.6423L79.2526 64.4712L80.1589 66.7979ZM81.931 67.5732C82.1718 67.5852 82.4216 67.5978 82.6754 67.6107C82.8452 68.1327 83.0007 68.6684 83.1327 69.2183C83.9447 72.5928 83.659 76.2886 83.9161 79.7023C83.9404 80.0236 84.1732 80.1441 84.1359 80.4186C84.1292 80.4645 83.9498 80.3526 83.9371 80.4943C83.7697 82.4409 84.1632 84.5097 83.9899 86.4211C83.943 86.9349 83.7439 87.008 83.6749 87.456C83.7707 87.3808 83.8697 87.333 83.9658 87.2675C84.1716 89.3491 83.8987 91.4176 83.7497 93.5035C83.7434 93.5987 83.9331 93.6288 83.9309 93.7291C83.9272 93.93 83.699 94.1002 83.6752 94.2723C83.6442 94.4968 83.7923 94.5509 83.7618 94.7571C83.7466 94.8575 83.6036 94.8128 83.6062 95.0341C83.6064 95.0526 83.7585 95.0805 83.7239 95.2239C83.6286 95.6201 83.4107 96.4336 83.3353 96.7562C83.2397 97.1674 83.4292 97.5411 83.4253 97.704C83.4143 98.1444 83.1796 98.1067 83.1354 98.471C82.8175 101.075 82.7298 103.596 82.3386 106.265C82.3138 106.435 81.9657 106.995 81.9293 107.321C81.9179 107.43 81.9099 107.977 81.9048 108.054C81.8814 108.374 81.9961 108.707 82.0049 108.887C82.0212 109.245 81.7222 109.595 81.6708 109.795C81.581 110.134 81.5428 110.714 81.5314 110.872C81.5073 111.219 81.8266 111.14 81.7295 111.367C81.7005 111.438 81.4739 111.324 81.4468 111.59C81.4251 111.816 81.5952 111.918 81.6149 112.063C81.6247 112.135 81.5561 112.228 81.4858 112.312C81.415 112.404 81.3416 112.501 81.3423 112.547C81.3487 112.742 81.3813 112.896 81.4199 113.043C81.3781 113.093 81.3372 113.14 81.3012 113.177C81.2861 113.192 81.2717 113.206 81.258 113.219C81.3094 113.196 81.374 113.175 81.452 113.162C81.4993 113.329 81.5495 113.496 81.5752 113.715C81.5844 113.778 81.5927 113.853 81.6139 113.942C81.6201 113.967 81.6272 113.989 81.6332 114.006C81.639 114.002 81.6457 113.999 81.6522 113.994C81.6966 113.965 81.7545 113.913 81.8182 113.842C81.8884 113.762 81.9366 113.701 81.988 113.632C82.0392 113.564 82.0913 113.488 82.1422 113.41C82.1521 113.395 82.1617 113.38 82.1712 113.365C82.2111 113.403 82.2409 113.441 82.2616 113.474C82.3055 113.551 82.3066 113.6 82.3055 113.643C82.3223 113.605 82.3411 113.55 82.3407 113.487C82.3406 113.424 82.3117 113.35 82.213 113.299C82.2458 113.247 82.2763 113.199 82.3041 113.155C82.3106 113.162 82.3166 113.17 82.3231 113.177C82.3205 113.163 82.3191 113.148 82.3172 113.134C82.4153 112.978 82.4809 112.873 82.5142 112.837C83.0989 112.224 82.4481 113.387 82.4304 113.404C82.2782 113.801 82.4218 113.789 82.0197 113.989C82.0717 114.112 82.0589 114.228 82.0025 114.323C81.9873 114.347 81.9753 114.365 81.949 114.391C81.9178 114.421 81.8832 114.447 81.8451 114.47C81.7693 114.514 81.6761 114.541 81.5793 114.533C81.4698 114.527 81.3634 114.466 81.3015 114.383C81.2463 114.308 81.2317 114.249 81.2121 114.174C81.1725 114.005 81.1845 113.919 81.169 113.797C81.1429 113.529 81.0827 113.397 80.8291 113.282C81.3448 112.906 81.094 112.732 81.0147 112.344C80.9047 111.889 81.1789 112.254 81.2084 111.928C81.2191 111.804 81.0259 111.37 81.0782 111.198C81.1321 111.01 81.3201 110.949 81.3623 110.68C81.4381 110.205 81.4003 109.848 81.2425 109.401C81.3473 109.338 81.4501 109.292 81.5542 109.235C81.4881 108.96 81.4247 108.675 81.363 108.383C81.4392 108.439 81.5161 108.495 81.5925 108.551C81.6157 108.472 81.6386 108.392 81.6615 108.312C81.5757 108.023 81.4937 107.776 81.4047 107.484C81.9885 106.815 81.5466 106.954 81.5417 106.551C81.5378 106.142 81.849 105.944 81.8972 105.623C81.9621 105.191 82.0221 105.02 82.0646 104.586C82.0891 104.336 81.8837 103.867 82.2558 104.28C82.4003 103.516 82.6699 102.452 82.5898 101.754C82.5674 101.544 82.3973 101.796 82.3855 101.759C82.3308 101.576 82.5665 101.46 82.5598 101.276C82.5491 100.967 82.4576 100.364 82.4476 100.129C82.434 99.7885 82.7813 99.2903 82.8086 99.2373C82.9611 98.943 82.7382 98.8362 82.7662 98.7417C82.9268 98.2055 83.0388 98.0922 82.5688 97.8588C82.7981 97.7434 83.2267 97.1708 82.8849 96.9901C83.2082 97.024 83.21 96.5226 83.3242 96.2231C83.237 96.1556 83.1503 96.0872 83.0623 96.0197C83.7118 95.43 83.4199 94.119 83.4264 93.2606C83.4269 93.2394 83.6726 93.2238 83.6293 93.0923C83.6255 93.0839 83.5153 93.0871 83.5085 93.001C83.4888 92.718 83.3044 91.6206 83.3104 91.4948C83.3356 91.0424 83.5221 90.9766 83.5589 90.7014C83.6071 90.3388 83.447 90.2747 83.493 89.9288C83.5141 89.7674 83.7388 89.6299 83.7235 89.3742C83.7146 89.2225 83.5465 89.1975 83.5396 89.0775C83.5145 88.65 83.6374 88.3419 83.4347 87.9526C83.978 87.8793 83.5892 87.6783 83.5565 87.4897C83.4234 86.7269 83.6796 85.7845 83.6421 85.1317C83.5241 83.093 83.1689 81.2996 82.9919 79.3414C82.9625 79.0225 83.2282 78.9294 83.19 78.5945C83.1723 78.444 82.9665 78.3021 82.946 78.0572C82.929 77.8603 83.0066 77.5713 82.985 77.3229C82.9794 77.2571 82.7961 77.267 82.7862 77.1708C82.7118 76.4398 82.7679 75.7238 82.7641 74.9722C82.7629 74.6949 82.4987 74.5595 82.9249 74.5488C82.808 74.4585 82.7045 74.3702 82.5895 74.2875C82.8018 73.8777 82.4816 73.6128 82.467 73.0981C82.4665 73.0431 82.6916 72.6117 82.4445 72.4342C82.5905 72.3921 82.7227 72.4029 82.8563 72.3724C82.8751 72.1473 82.6426 71.854 82.5967 71.713C82.5513 71.572 82.7241 71.4367 82.7172 71.3926C82.6887 71.2265 82.4455 71.3162 82.4369 71.3052C82.0355 70.5921 82.1857 70.6503 82.4573 70.1026C82.5281 69.9671 82.0582 69.2489 82.3103 69.0156C82.188 69.0407 82.0932 69.1122 81.9814 69.1551C81.8894 68.931 81.7941 68.7074 81.6981 68.4867C81.827 68.5023 81.9589 68.5282 82.0873 68.5405C81.9204 68.222 81.9508 67.8824 81.931 67.5732ZM81.6332 114.006C81.6178 114.016 81.6052 114.022 81.5952 114.026C81.6232 114.029 81.6567 114.053 81.646 114.04C81.644 114.035 81.6392 114.023 81.6332 114.006ZM81.5793 114.026C81.5651 114.031 81.572 114.034 81.5952 114.026C81.5896 114.025 81.5842 114.025 81.5793 114.026ZM82.2785 113.698C82.2491 113.766 82.2993 113.751 82.3051 113.656C82.3052 113.652 82.3053 113.648 82.3055 113.643C82.2927 113.673 82.2814 113.692 82.2785 113.698ZM81.258 113.219C81.1907 113.25 81.1456 113.282 81.1231 113.302C81.0759 113.346 81.0944 113.347 81.1086 113.343C81.1265 113.337 81.1587 113.313 81.1977 113.276C81.2183 113.257 81.2376 113.239 81.258 113.219ZM86.3022 100.423C86.4272 99.5769 85.9922 98.7711 86.7974 99.1166C86.6168 99.983 86.3682 100.71 86.1862 101.626C86.1677 101.721 86.1095 102.329 86.0765 102.531C86.0576 102.646 86.1947 102.683 86.1572 102.836C86.1479 102.87 85.9252 103.01 85.9139 103.078C85.8777 103.304 85.9845 104.074 85.9526 104.169C85.8632 104.433 85.674 104.276 85.6068 104.382C85.3831 104.735 85.6941 104.858 85.4956 105.205C85.4594 105.27 85.1202 105.433 85.0832 105.728C85.0685 105.848 85.162 106.082 85.1322 106.168C84.9733 106.625 84.6346 107.124 84.5456 107.568C84.4732 107.93 84.714 107.895 84.6909 108.088C84.6691 108.273 84.3501 108.448 84.2981 108.574C84.2144 108.779 84.2811 109.071 84.2602 109.133C83.8355 110.394 83.3278 111.432 82.7838 112.591C83.0113 111.783 83.2171 110.891 83.3639 110.086C83.7308 109.692 83.4516 109.858 83.4802 109.523C83.5013 109.272 83.8422 109.322 83.9285 109.058L83.942 109.001C83.9682 108.833 83.8139 108.396 84.0251 108.067C84.033 108.055 84.2364 108.083 84.3154 107.828C84.4942 107.251 84.842 106.357 84.9707 105.679C85.0094 105.477 84.7927 105.465 84.8275 105.221C84.8546 105.037 85.0918 104.902 85.115 104.627C85.1425 104.283 84.8526 104.041 85.3666 103.922C85.2079 103.863 85.0461 103.833 84.8924 103.771C85.8112 103.262 86.159 101.419 86.3022 100.423ZM88.3994 65.8403C88.5092 65.833 88.6422 65.8683 88.7766 65.9018C88.7759 65.902 88.7752 65.9022 88.7745 65.9025C88.7288 66.1986 88.7027 66.5241 88.7014 66.8683C88.6967 67.1761 88.7195 67.5059 88.7769 67.8637C88.8029 68.029 88.9468 67.9972 88.973 68.0612C89.0209 68.1738 88.8698 68.3759 88.8705 68.4037C88.873 68.5763 89.1249 68.5038 89.1359 68.5266C89.2446 68.7905 88.9536 68.7189 88.9288 68.9781C88.8959 69.3315 88.9461 69.7148 88.953 70.129C88.9558 70.2725 89.1516 70.2107 89.1276 70.5257C89.1114 70.7481 88.8681 71.3804 89.0882 71.7081C89.1771 71.7141 89.2773 71.6792 89.3698 71.6668C88.9779 72.1021 88.9869 72.254 89.0396 72.8791C89.0476 72.9788 88.8899 73.0625 88.9343 73.2421C88.9786 73.4224 89.2131 73.4451 89.1842 73.8061C89.1732 73.9326 89.0026 73.9906 88.9809 74.1788C88.9209 74.7064 89.0314 75.7897 88.9954 76.223C88.9236 77.1043 88.5894 77.5634 88.5999 78.3484C88.6004 78.4091 88.7954 78.2979 88.7866 78.4085C88.7775 78.5204 88.5249 78.6094 88.516 78.6361C88.4207 78.9259 88.6652 79.5953 88.6065 79.7506C88.4625 80.1361 88.4063 79.7305 88.2917 80.277C88.1824 80.7986 88.3961 81.5734 88.3856 82.1005C88.3729 82.716 87.8943 82.8483 88.299 83.3756C88.0423 84.9668 87.7735 86.5786 87.4828 88.1737C87.577 88.1849 87.6714 88.1954 87.7658 88.2057C87.68 88.3214 87.5939 88.4371 87.5087 88.5527C87.5814 88.5455 87.6541 88.5393 87.7261 88.5319C87.3576 89.0811 87.1285 89.5857 87.08 90.2925C87.08 90.3062 87.2713 90.3038 87.2743 90.3158C87.2819 90.4785 87.1079 90.6276 87.117 90.7708C87.1388 91.1168 87.4418 91.7537 86.991 91.4153C86.9532 92.2094 86.6167 93.0843 86.5717 93.8371C86.5516 94.165 86.8263 94.3181 86.8136 94.4743C86.8006 94.6299 86.5639 94.503 86.5437 94.5551C86.4247 94.8694 86.3301 95.402 86.6003 95.5144C86.475 95.5566 86.3476 95.6023 86.2214 95.6449C86.5418 95.6688 86.2095 96.6526 86.1631 96.9141C86.1547 96.9622 86.2899 96.9974 86.2811 97.0332C86.1805 97.4327 85.9474 97.4792 85.8031 97.8133C85.7523 97.9304 86.0328 97.792 85.8628 98.0837C85.8477 98.1088 85.6351 98.0494 85.5574 98.4214C85.4348 99.0113 85.1013 100.128 85.0491 100.852C85.045 100.91 85.3187 100.791 85.2051 101.039C85.1642 101.129 85.0077 101.046 84.9545 101.273C84.7395 102.183 84.7125 103.153 84.3254 104.043C84.521 104.056 84.8114 103.785 84.5739 104.242C84.5353 104.315 84.3819 104.215 84.3671 104.248C84.2484 104.52 84.3119 104.775 84.167 105.076C84.1242 105.164 83.987 105.153 83.9268 105.259C83.8376 105.414 84.0055 105.537 83.8764 105.708C83.6736 105.974 83.4848 105.973 83.7356 106.427C83.3973 107.621 83.0273 108.82 82.6475 109.99C82.6321 109.867 82.4772 109.799 82.5318 109.593C82.5416 109.552 82.824 109.158 82.8649 109.015C82.9277 108.8 82.747 108.402 82.7506 108.356C82.7957 107.746 83.0607 107.533 82.75 107.019C82.9869 106.964 83.1703 106.623 83.1924 106.318C83.2209 105.929 82.8726 105.104 83.3715 105.074C83.219 104.604 83.3451 104.673 83.4257 104.14C83.4951 103.688 83.4904 102.371 83.5665 102.008C83.6448 101.629 83.8893 101.852 83.9461 101.705C84.0399 101.461 83.8224 101.57 83.8484 101.398C83.9235 100.903 84.0155 100.498 84.1621 100.045C84.0255 100.001 83.8884 99.9564 83.7518 99.9124C83.8015 99.8944 83.8512 99.8763 83.9009 99.8582C83.9123 99.7581 83.9296 99.6462 83.9371 99.5525C84.4515 100.417 83.9888 98.7844 84.0258 98.3322C84.0596 97.9465 84.4286 97.3175 84.5383 96.9068C84.5653 96.8058 84.4067 96.8587 84.4117 96.8385C84.4826 96.5943 84.5907 96.5681 84.6132 96.229C84.6248 96.0494 84.4545 95.8457 84.4693 95.6702C84.5769 94.3992 84.8831 93.1823 85.0046 91.9088C85.0253 91.6908 84.8071 91.4862 84.8154 91.3056C84.8275 91.0465 85.0299 90.8964 85.0498 90.6521C85.0696 90.4085 84.8648 90.0413 84.91 89.8778C84.9545 89.714 85.1575 90.0122 85.116 89.7043C85.0968 89.5627 84.9172 89.7991 84.9228 89.6262C84.94 89.0928 85.1838 88.3464 85.0118 87.7635C85.0598 87.791 85.1026 87.8275 85.1481 87.8607C85.1564 87.2489 85.0582 86.7094 85.0591 86.0789C85.0591 85.8587 85.213 85.4642 85.2165 85.248C85.2199 85.0315 85.065 84.9304 85.0632 84.7573C85.0622 84.6861 85.2021 84.7159 85.1999 84.6681C85.1704 84.0689 84.9225 83.7393 84.9493 83.1146C85.0454 80.8242 85.0348 78.4494 84.8914 76.1029C84.8855 76.0089 85.0608 75.9266 85.0732 75.7864C85.0923 75.5705 84.9301 75.5779 84.9214 75.5504C84.8657 75.3711 85.023 75.4291 84.9942 75.1801C84.9313 74.6298 84.6821 73.7737 84.6084 73.231C84.4398 71.9763 84.3802 70.9016 84.167 69.6695C84.1519 69.581 83.9554 69.69 83.9168 69.5404C83.695 68.7181 83.7332 68.37 83.5513 67.6569C84.3547 67.7004 85.1454 67.7475 85.7773 67.7964L86.1407 67.7724C86.1439 67.7716 86.1471 67.7708 86.1503 67.77C86.1502 67.7695 86.1501 67.7691 86.15 67.7686C86.7132 68.0512 87.3032 67.8115 87.7433 67.3969C87.1647 67.3441 86.6011 67.3375 86.0471 67.366L85.8169 67.381C84.9911 67.1492 84.1605 67.0047 83.3187 66.9027C83.3176 66.8996 83.3164 66.8965 83.3152 66.8933C83.2448 66.6998 83.1631 66.4819 83.0716 66.2474C83.2371 66.3268 83.4202 66.3934 83.6717 66.2981C83.7132 66.2819 84.1657 66.0346 84.3882 66.4737C84.4842 66.3513 84.5648 66.2898 84.6377 66.186C85.1097 66.8519 85.0208 66.2359 85.7528 66.1631C85.7712 66.1613 85.7918 66.1606 85.8142 66.16C86.3062 66.0244 87.2589 65.8916 87.6077 65.8681C87.8524 65.8526 87.9024 66.0898 87.9466 66.0895C88.2105 66.0857 88.1583 65.8567 88.3994 65.8403ZM88.9267 85.2334C88.916 85.182 88.4923 84.4631 89.0189 84.7371C89.13 85.6396 88.8666 86.5426 88.8539 87.472C88.3564 87.0726 88.6566 86.5861 88.7952 85.9602V85.9595C88.8016 85.9301 88.6392 86.0319 88.6914 85.8668C88.7168 85.7867 88.9854 85.5064 88.9267 85.2334ZM82.1477 66.1211C82.3029 66.1088 82.4709 66.0987 82.6727 66.1065L82.3141 66.5692C82.343 66.6483 82.3719 66.7276 82.4004 66.8073C82.316 66.7996 82.2316 66.7915 82.1471 66.7844L81.844 67.1751C81.749 67.0305 81.5534 67.1072 81.5645 66.9749C81.567 66.9461 81.7503 66.9318 81.7391 66.8524C81.734 66.817 81.7281 66.7828 81.7219 66.75C81.6906 66.7476 81.6593 66.7451 81.628 66.7427L81.7005 66.6493C81.6675 66.512 81.6247 66.3961 81.5756 66.2894L81.5158 66.1367L81.6853 66.1478C81.828 66.1487 81.9629 66.1361 82.1077 66.1242L82.1353 66.0885C82.1394 66.0993 82.1436 66.1103 82.1477 66.1211ZM82.1477 66.1211C82.1343 66.1222 82.121 66.1232 82.1077 66.1242L81.7005 66.6493C81.7082 66.6816 81.7153 66.7152 81.7219 66.75C81.864 66.761 82.0057 66.7724 82.1471 66.7844L82.3141 66.5692C82.2591 66.4187 82.2038 66.2693 82.1477 66.1211ZM85.8142 66.16C85.8002 66.1639 85.7864 66.1672 85.7731 66.1711L85.9346 66.1607C85.8903 66.1589 85.8499 66.159 85.8142 66.16Z" fill="#EEF0E0"/>
<path d="M53.842 29.2656C54.8183 29.1173 56.689 29.422 57.4788 29.5177C59.0383 29.6806 59.9847 29.4314 61.3412 29.9801C61.4443 30.0229 61.139 30.2166 61.3305 30.2807C61.5217 30.3449 61.8287 30.0647 61.8804 30.0732C62.4416 30.1527 63.3397 31.0615 63.6251 31.1456C64.3477 31.3489 63.7617 30.8572 64.7139 31.298C64.8141 31.3465 64.9147 31.4051 65.0157 31.4709C65.2407 31.4016 65.4538 31.3351 65.6445 31.2659C66.6758 30.9023 66.8184 30.1303 67.8115 30.5583C70.5505 29.6505 73.4607 29.4904 76.2536 29.8525C76.2272 29.9936 76.1994 30.1349 76.1717 30.2759C76.4006 30.208 76.635 30.1443 76.8675 30.0847C76.8181 30.1845 76.7707 30.285 76.7223 30.384C77.7974 30.1496 78.7763 30.1551 79.9155 30.6263C79.9375 30.6357 79.7998 30.8912 79.8165 30.9043C80.0633 31.0374 80.4135 30.9228 80.6269 31.0521C81.1457 31.3587 81.8308 32.3103 81.6948 31.4364C82.894 32.0799 84.4256 32.5679 85.4672 33.3722C85.9181 33.7196 85.8284 34.1966 86.0364 34.3619C86.2434 34.5282 86.3297 34.1264 86.4161 34.1656C86.9343 34.4022 87.689 34.9744 87.5216 35.3875C87.7087 35.3141 87.9052 35.2458 88.0958 35.1755C87.9334 35.3492 88.2234 35.6585 88.5924 35.9772C88.9659 36.2979 89.4106 36.6261 89.58 36.787C89.6415 36.8453 89.5184 37.0131 89.5663 37.0541C90.102 37.5091 90.4383 37.3843 90.9473 37.7401C91.1237 37.8655 90.6445 37.895 91.1338 38.1732C91.1753 38.1979 91.3882 37.9385 91.8399 38.4302C92.5653 39.2024 93.9491 40.7301 94.5145 41.9056C94.5613 41.9999 94.1022 41.9439 94.4282 42.2917C94.545 42.4192 94.7062 42.202 94.9332 42.5602C95.8118 43.9512 96.3401 45.6402 97.1495 47.1195C96.8667 47.1681 96.3686 46.7406 96.8437 47.5031C96.9195 47.6259 97.1163 47.4335 97.1471 47.4902C97.3919 47.9566 97.3656 48.4501 97.6148 48.9622C97.6884 49.1132 97.8886 49.097 97.9891 49.2889C98.1371 49.5745 97.9007 49.7812 98.0987 50.1036C98.4052 50.6124 98.688 50.6542 98.3002 51.4539C99.0161 55.3447 98.6796 59.7585 96.4373 63.1959C96.1897 63.7974 95.9211 64.3678 95.5963 64.9232C95.3101 65.4044 94.9749 65.8613 94.5651 66.2906C94.292 66.5686 94.0165 66.3372 93.6249 66.8042C93.5489 66.9123 92.9524 67.8019 92.4701 67.215C92.2859 67.4022 92.1468 67.4835 91.9721 67.6227C92.1661 67.6424 92.3676 67.6549 92.5603 67.668C91.6894 68.0445 91.0999 68.5844 90.3507 68.9782C89.7973 69.258 90.1178 68.8161 89.7772 68.9562C89.4394 69.0888 89.2773 69.2086 88.7679 68.9332C88.5174 69.444 88.2155 69.1943 87.5892 69.2806C87.5231 69.2903 87.1427 69.5195 86.8125 69.5191C86.5725 69.5187 86.4803 69.2507 86.1087 69.3214C86.0528 69.3354 85.2781 69.7195 85.0195 69.751C84.628 69.8099 84.0054 69.4414 83.9347 69.4333C82.8592 69.3311 82.4041 69.6334 81.7051 68.9737C81.5207 69.2985 80.8481 69.4142 80.3468 69.2956C79.6952 69.1527 78.5719 68.1937 78.2494 68.8729C77.5904 68.3745 77.6242 68.5956 76.7656 68.3658C75.9752 68.1671 74.038 67.2095 73.4265 66.9999C72.8062 66.7994 72.9614 67.3004 72.7004 67.2551C72.2718 67.1786 72.592 66.9827 72.321 66.8747C71.5546 66.5668 70.8802 66.3238 70.1134 66.0967C70.1614 65.8842 70.2078 65.6694 70.2556 65.4567C70.1904 65.5033 70.1249 65.5499 70.0594 65.5962C69.9091 65.5193 69.7379 65.4378 69.6011 65.3605C70.3964 66.8068 68.4778 64.7198 67.8371 64.2937C67.2766 63.9503 66.1231 63.7524 65.4613 63.4184C65.3007 63.3382 65.5217 63.2132 65.489 63.197C65.1044 63.0129 64.966 63.1035 64.5197 62.7652C63.1996 63.7701 61.8921 64.7588 60.4342 65.5492C60.1105 65.7241 59.681 65.5484 59.4053 65.6754C59.0097 65.8573 58.8727 66.2395 58.499 66.4157C58.1258 66.5921 57.4582 66.5076 57.2227 66.6623C56.9852 66.8171 57.5424 66.9457 57.0395 67.0553C56.8086 67.1045 57.1027 66.7165 56.834 66.8182C56.0005 67.1357 54.8979 67.8649 53.9009 67.8651C53.9618 67.9236 54.0357 67.9701 54.1051 68.0223C53.1214 68.3066 52.2138 68.3762 51.184 68.5918C50.8293 68.6665 50.2146 69.0202 49.8584 69.0853C49.501 69.1515 49.2975 68.9458 49.012 68.9862C48.8945 69.0022 48.9708 69.2048 48.8911 69.2133C47.8854 69.3101 47.2999 68.9988 46.2652 69.1146C42.5118 69.4854 38.0544 69.209 34.6009 66.1054C34.4683 65.9824 34.1954 66.0934 33.9793 65.9174C33.6506 65.6446 33.8172 65.4609 33.7872 65.4138C33.6255 65.1458 33.5492 65.2909 33.3455 65.1021C33.3104 65.0698 33.2717 65.0267 33.2289 64.9682C32.6064 64.1471 31.9593 62.5976 31.5715 61.6647C30.6493 59.5196 30.076 57.5748 29.9098 55.2662C29.899 55.0998 30.2131 55.206 30.2153 54.9216C30.2916 52.9413 30.0066 52.4619 30.5866 50.0558C31.1349 47.6266 33.1575 43.5241 34.828 41.3369C34.8286 41.3373 34.8291 41.3378 34.8297 41.3383C34.8492 40.268 35.6806 39.4246 36.6066 39.0359C34.3203 44.0151 31.5214 48.2125 31.2228 54.0536C31.079 57.6152 32.4272 61.3511 34.7611 63.9412C35.0547 64.2763 35.3677 64.5813 35.696 64.8601C35.3881 64.5575 35.1011 64.2309 34.8377 63.8787C29.6148 56.8975 31.7924 45.843 39.568 38.3231C39.6356 38.1891 39.7145 38.0717 39.8148 37.9932C39.8698 37.9505 39.9173 37.9428 39.9607 37.9507C40.0602 37.8582 40.1606 37.7665 40.2618 37.6752C40.2497 37.6202 40.2906 37.5542 40.4677 37.4715C40.4741 37.4683 40.4867 37.4644 40.5043 37.459C40.7466 37.2455 40.9938 37.0354 41.2457 36.8288C42.4742 35.8214 43.7538 34.9496 45.0614 34.213C44.7726 34.0332 44.3166 33.9884 44.0279 34.0334C43.6385 34.0922 43.787 34.3457 43.6645 34.4229C43.0091 34.8322 42.111 35.5386 41.5665 35.7893C41.2365 35.939 41.6767 35.4475 41.4775 35.4799C41.2774 35.5127 41.312 35.7624 41.0256 35.6846C40.7403 35.6046 40.0146 35.2899 39.8708 34.9746C40.6822 33.9475 41.6692 33.0882 42.8455 32.5032C43.1136 32.3704 43.196 32.576 43.3171 32.544C43.5393 32.4853 43.7533 32.0907 43.8004 32.0641C44.0861 31.899 44.1476 32.303 44.1928 32.2943C44.688 32.1979 44.3694 31.8757 44.7683 31.6185C45.2893 31.285 46.0292 31.0169 46.7158 30.7508C46.9579 30.6594 46.953 30.9732 47.4582 30.7459C47.8105 30.5816 48.8564 29.861 49.4893 30.053C49.5274 30.1819 49.4999 30.3451 49.509 30.4872C50.1119 29.7278 50.4135 29.6621 51.5374 29.5641C51.7159 29.5499 51.8437 29.2893 52.1683 29.3189C52.4911 29.3517 52.5586 29.6959 53.1735 29.608C53.3918 29.5775 53.5009 29.3106 53.842 29.2656ZM64.7625 60.6125C61.5985 63.0445 57.7216 65.0468 53.7744 66.3348C56.7224 65.6721 59.4772 64.2381 62.1226 62.6638C62.2566 62.5844 62.4164 62.823 62.5612 62.744C62.852 62.5859 62.9507 62.144 63.1824 61.9754C63.4845 61.7547 63.6591 61.9105 63.9335 61.6995C64.0664 61.5956 63.9065 61.4427 64.2239 61.2584C64.2509 61.244 64.3951 61.4224 64.575 61.2525C64.646 61.185 64.7266 61.1061 64.8138 61.0202C65.3847 61.3399 66.0572 61.6851 66.3896 61.8589C67.0052 62.1843 67.3129 62.7822 67.5284 62.9407C68.1136 63.3665 68.2728 63.0458 68.7944 63.3438C72.5285 65.4296 76.2833 67.3069 80.6549 68.038C80.9304 68.0864 81.9865 67.8284 82.4901 67.886C82.6567 67.9126 83.5387 68.0783 83.6729 68.0886C84.2053 68.1459 84.6863 68.3881 84.9865 68.4335C85.5866 68.5246 86.2183 68.0994 86.5287 68.029C87.0716 67.9168 88.0534 67.7976 88.2867 67.7503C88.8417 67.6502 88.7594 68.1471 89.142 67.9345C89.2521 67.869 89.0453 67.561 89.4488 67.4396C89.7827 67.3366 90.0067 67.5409 90.2555 67.4999C90.5072 67.4587 90.778 66.892 90.914 66.8377C91.646 66.5487 92.0948 66.612 92.8381 66.0946C93.1705 65.8674 94.0673 65.0508 94.6461 64.1438C95.1485 63.3864 95.4877 62.65 95.5137 62.5135C95.5761 62.1648 95.564 62.0433 95.5104 62.0535C95.1745 62.6946 94.7874 63.3118 94.3476 63.8997C94.2994 63.9641 94.2498 64.0273 94.2001 64.0901C94.1932 64.119 94.186 64.1496 94.1784 64.1821C94.1626 64.1792 94.1469 64.1771 94.1315 64.1752C90.5597 68.5679 83.2692 68.7298 76.0974 66.4579C75.5276 66.3041 74.9569 66.1199 74.4633 65.8972C70.983 64.6127 67.6003 62.7823 64.7625 60.6125ZM41.306 67.6039C41.4594 67.7116 41.6084 67.8024 41.8273 67.8019C41.8573 67.8015 41.8513 67.7544 41.8476 67.6984C41.6652 67.67 41.4847 67.6382 41.306 67.6039ZM97.0519 52.5733C97.4611 55.8713 97.0085 59.0883 95.608 61.8641C95.5998 61.8826 95.5917 61.9011 95.5833 61.9196C96.37 60.7071 96.964 59.3373 97.374 57.9008C97.1812 57.0105 97.4235 57.4834 97.5998 56.9408C97.7303 56.5068 97.1791 56.3478 97.2744 55.7896C97.2743 55.79 97.2744 55.7906 97.2744 55.791C97.3237 55.5086 97.7355 54.8669 97.5478 54.2357C97.539 54.2138 97.2489 54.1653 97.2111 53.707C97.1859 53.3704 97.1271 52.9826 97.0519 52.5733ZM64.8138 61.0202C64.7312 60.974 64.6507 60.9281 64.5737 60.8835L64.9527 60.8832C64.9053 60.9306 64.8584 60.9763 64.8138 61.0202ZM94.9355 45.6151C95.6039 46.9821 96.1295 48.3796 96.5046 49.7813C96.5604 49.6137 96.725 49.5247 96.6675 49.2195C96.6097 48.924 96.2365 48.6831 96.1469 48.2271C96.0337 47.6533 96.3796 47.1856 95.602 47.093C95.8134 46.9624 96.0384 46.8801 96.2412 46.745C95.7922 46.5291 95.3543 46.1194 94.9355 45.6151ZM55.7648 42.9065C55.7363 42.9247 55.7671 43.062 55.6975 43.0746C55.6315 43.0852 55.393 43.0039 55.2995 43.0223C55.1979 43.0402 55.2221 43.1051 55.114 43.0156C55.1446 43.2605 54.9513 43.0686 54.8642 43.0864C54.7997 43.0975 54.7474 43.1934 54.7759 43.3054C54.6167 43.1701 54.6126 43.3008 54.4878 43.3605C54.4803 43.3635 54.3467 43.3158 54.3129 43.3658C54.2902 43.3968 54.2843 43.5562 54.282 43.5635C54.2574 43.6087 54.1876 43.552 54.1594 43.5715C54.1203 43.5992 54.1287 43.6795 54.1234 43.6869C54.0912 43.7262 54.0447 43.7325 54.0292 43.7563C54.0185 43.773 54.0237 43.7982 54.0635 43.847C53.9285 43.8317 53.9354 43.8681 53.9226 43.9171C53.9103 43.9672 53.8429 43.8665 53.8346 43.9572C53.8252 44.0825 53.8762 44.2012 53.814 44.3077C53.8528 44.2957 53.8924 44.283 53.9312 44.2728C53.9371 44.3019 53.9334 44.3218 53.9476 44.3555C53.7101 44.3191 53.8143 44.4643 53.823 44.4779C53.8542 44.5511 53.7368 44.5494 53.7391 44.5954C53.7503 44.7503 53.8144 44.8757 53.8806 44.9961C53.869 45.4545 54.0859 45.8286 54.2893 46.1584C54.1768 46.3131 54.2581 46.2751 54.3389 46.286C54.3907 46.2933 54.3207 46.3586 54.3566 46.3715C54.3808 46.3798 54.437 46.3452 54.4538 46.3526C54.5099 46.3791 54.4866 46.4518 54.5354 46.4792C54.5415 46.4823 54.6026 46.4224 54.6184 46.4273C54.7144 46.4597 54.5981 46.4797 54.5198 46.5329C54.6778 46.6169 54.7076 46.8101 54.8152 46.9298C54.8424 46.9602 54.8985 46.8958 54.9165 46.9015C54.9659 46.9168 54.8621 46.976 54.8645 46.987C54.9084 47.1188 55.0764 47.2322 55.15 47.305C55.1952 47.3503 55.265 47.2681 55.2725 47.2663C55.3453 47.2636 55.2427 47.3328 55.2659 47.3378C55.3331 47.3519 55.4151 47.2806 55.4707 47.3193C55.4747 47.3237 55.433 47.3761 55.4377 47.3828C55.4688 47.4168 55.6358 47.4751 55.535 47.5959C55.5786 47.5579 55.623 47.52 55.6659 47.4818C55.5865 47.6009 55.6532 47.6634 55.7132 47.675C55.7232 47.6768 55.7882 47.5656 55.8031 47.5882C55.818 47.6109 55.7439 47.741 55.7748 47.7915C55.8257 47.874 55.9264 47.9089 56.0096 47.9631C56.0442 47.9856 56.0757 48.0115 56.0996 48.0461C56.1978 47.8095 56.1666 48.0363 56.1938 48.1029C56.2048 48.1303 56.2663 48.0844 56.2794 48.1137C56.2786 48.1185 56.2286 48.193 56.2288 48.1967C56.31 48.2928 56.4238 48.2796 56.5732 48.2089C56.5542 48.2382 56.5351 48.268 56.5159 48.2975C56.5496 48.2796 56.5834 48.2605 56.6168 48.2417C56.5943 48.2834 56.5716 48.3255 56.5492 48.3672C56.7924 48.4908 57.0427 48.6025 57.302 48.6905C57.2947 48.9441 57.4029 48.7415 57.4891 48.8098C57.5632 48.8689 57.643 49.0597 57.7416 49.0647C57.8425 49.0689 57.7877 48.9986 57.8675 48.9702C57.8998 48.9592 57.9716 49.1431 58.0324 49.1243C58.038 49.1226 58.0819 49.0078 58.1007 49.0134C58.1192 49.0194 58.0799 49.1041 58.0894 49.1104C58.2212 49.1869 58.3297 49.0605 58.4864 49.0846C58.5655 49.0976 58.7552 49.2126 58.8641 49.1993C58.9009 49.1951 58.914 49.1112 58.9377 49.109C59.005 49.1047 59.0132 49.2227 59.0503 49.2488C59.0887 49.2744 59.102 49.1958 59.1226 49.2007C59.2527 49.2323 59.2963 49.2326 59.3507 49.0312C59.356 49.0774 59.3569 49.1277 59.3654 49.1718C59.453 49.2765 59.5768 49.1293 59.6192 49.1076C59.6831 49.0776 59.7001 49.1744 59.7331 49.1655C59.8255 49.1391 59.9353 49.1167 60.0049 49.0577C60.0576 49.0121 59.9709 48.8958 60.0535 48.9053C60.0614 48.9063 60.1087 49.0268 60.1494 48.9995C60.1566 48.9945 60.161 48.8976 60.1987 48.8963C60.2199 48.8953 60.2571 48.958 60.2993 48.9371C60.4847 48.8449 60.6123 48.6463 60.6447 48.4244C60.5601 48.3527 60.3415 48.2655 60.267 48.2337C60.1919 48.2037 60.2391 48.2601 60.2014 48.2577C60.1646 48.2539 60.1793 48.1686 60.1334 48.1838C60.0595 48.2078 59.9878 48.311 59.9216 48.3638C59.9096 48.3734 59.9659 48.4524 59.9039 48.4359C59.8567 48.4245 59.779 48.3697 59.7141 48.293C59.8397 48.2125 59.9454 48.111 60.0259 47.9861C60.0429 47.9595 60.0587 47.9321 60.0731 47.9041C60.0757 47.9039 60.0776 47.9046 60.0785 47.9041C60.1035 47.8962 60.0997 47.8865 60.0858 47.8766C60.0915 47.8647 60.0972 47.8528 60.1025 47.8407C60.1144 47.8434 60.124 47.844 60.1288 47.8386C60.1373 47.8278 60.1324 47.8113 60.1218 47.7925C60.3717 47.1301 59.9832 46.1593 59.1655 45.2915C59.4851 45.4963 59.8395 45.6902 60.0498 46.0259C60.3366 46.5366 60.3248 46.934 60.7216 47.6422C60.8853 47.545 60.9396 47.3659 60.741 47.2677H60.742C60.752 46.9202 60.6556 46.4179 60.5694 46.1741C60.4855 45.9282 60.3759 45.9435 60.287 45.7696C60.274 45.7448 60.3673 45.6958 60.3569 45.6834C60.209 45.5102 60.0455 45.4014 59.9013 45.2398C59.8393 45.1699 59.7888 45.0095 59.7251 44.9389C59.6961 44.9067 59.6526 44.9683 59.6438 44.9326C59.6441 44.9258 59.6972 44.8693 59.6585 44.8573C59.6329 44.8496 59.5626 44.906 59.5502 44.896C59.246 44.6406 58.9208 44.4166 58.5903 44.2365C58.5356 44.2068 58.5234 44.145 58.5054 44.0845C58.4938 44.0459 58.4799 44.0079 58.4517 43.9799C58.4458 43.9745 58.4125 44.0362 58.4034 44.0287C58.3814 44.0107 58.4088 43.9354 58.3791 43.915C58.349 43.8945 58.2571 43.9205 58.2282 43.8986C58.1449 43.8357 58.0973 43.7383 58.0127 43.6786C58.0063 43.7019 58.0009 43.7245 57.9931 43.7483C57.9566 43.6136 57.7993 43.6433 57.7246 43.5966C57.7001 43.5812 57.7716 43.5251 57.7566 43.5018C57.7238 43.4512 57.7195 43.5734 57.6877 43.5764C57.6561 43.5796 57.6503 43.4495 57.6127 43.4331C57.5745 43.4168 57.5119 43.4928 57.4742 43.4718C57.448 43.4567 57.4637 43.3361 57.4289 43.3225C57.2256 43.2453 56.9992 43.2631 56.796 43.1883C56.7683 43.1776 56.7626 43.0766 56.7337 43.0641C56.6791 43.0415 56.66 43.0906 56.6128 43.1011C56.6088 43.1019 56.6383 43.0306 56.6188 43.0338C56.5383 43.046 56.3992 43.1665 56.3367 43.1482C56.2655 43.1233 56.0337 42.7549 56.1339 43.0833C56.1181 43.079 56.0984 43.0777 56.0812 43.0749C56.0745 43.098 56.0679 43.1213 56.0613 43.1443C56.0645 43.0731 56.0676 43.0011 56.0706 42.9299C55.9813 42.9642 55.9051 42.9776 55.8154 42.978C55.7844 42.9778 55.8122 42.8774 55.7648 42.9065ZM73.4748 42.9065C73.4276 42.8775 73.4553 42.9776 73.4245 42.978C73.3348 42.9776 73.2586 42.9642 73.1693 42.9299C73.1723 43.0011 73.1754 43.0731 73.1787 43.1443C73.172 43.1212 73.1651 43.098 73.1584 43.0749C73.1413 43.0777 73.1218 43.079 73.1061 43.0833C73.2062 42.7551 72.9746 43.1229 72.9032 43.1482C72.8407 43.1665 72.7013 43.046 72.6208 43.0338C72.6016 43.031 72.6308 43.1013 72.6271 43.1011C72.5799 43.0907 72.5608 43.0416 72.5062 43.0641C72.4773 43.0766 72.4716 43.1774 72.4439 43.1883C72.2407 43.2631 72.014 43.2452 71.8107 43.3225C71.776 43.3362 71.7918 43.457 71.7654 43.4718C71.7277 43.4927 71.6651 43.4167 71.6269 43.4331C71.5893 43.4496 71.5835 43.5797 71.5519 43.5764C71.5202 43.573 71.5161 43.4515 71.4833 43.5018C71.4683 43.5251 71.5398 43.5812 71.5153 43.5966C71.4407 43.6434 71.283 43.6136 71.2465 43.7483C71.2387 43.7245 71.2336 43.7019 71.2272 43.6786C71.1426 43.7383 71.095 43.8357 71.0117 43.8986C70.9829 43.9205 70.891 43.8946 70.8608 43.915C70.8311 43.9354 70.8583 44.0107 70.8362 44.0287C70.827 44.0357 70.7943 43.9752 70.7882 43.9799C70.7601 44.0078 70.7461 44.0459 70.7346 44.0845C70.7165 44.1449 70.7043 44.2068 70.6496 44.2365C70.3191 44.4166 69.9936 44.6405 69.6894 44.896C69.6768 44.9057 69.607 44.8497 69.5815 44.8573C69.5426 44.8693 69.5955 44.9257 69.5958 44.9326C69.587 44.9683 69.5435 44.9067 69.5145 44.9389C69.4508 45.0096 69.4006 45.1699 69.3386 45.2398C69.1945 45.4013 69.031 45.5103 68.883 45.6834C68.8726 45.6958 68.9657 45.7448 68.9529 45.7696C68.864 45.9436 68.7541 45.9281 68.6702 46.1741C68.584 46.4179 68.488 46.9202 68.498 47.2677H68.4986C68.3 47.3659 68.3546 47.545 68.5183 47.6422C68.9152 46.934 68.9033 46.5366 69.1901 46.0259C69.4004 45.6902 69.7545 45.4963 70.0741 45.2915C69.2565 46.1592 68.8679 47.1301 69.1178 47.7925C69.1073 47.8113 69.1023 47.8278 69.1108 47.8386C69.1155 47.8441 69.1252 47.8433 69.1371 47.8407C69.1424 47.8528 69.1481 47.8647 69.1538 47.8766C69.1401 47.8865 69.1364 47.8963 69.1611 47.9041C69.162 47.9046 69.164 47.9039 69.1664 47.9041C69.1809 47.9321 69.1966 47.9595 69.2137 47.9861C69.2941 48.111 69.3999 48.2125 69.5255 48.293C69.4606 48.3697 69.3832 48.4245 69.336 48.4359C69.274 48.4525 69.33 48.3737 69.3183 48.3638C69.2521 48.311 69.1801 48.2078 69.1062 48.1838C69.0604 48.1688 69.0753 48.2539 69.0385 48.2577C69.0006 48.2602 69.048 48.2037 68.9729 48.2337C68.8985 48.2655 68.6796 48.3527 68.5949 48.4244C68.6273 48.6463 68.7549 48.8449 68.9403 48.9371C68.9825 48.9581 69.0197 48.8956 69.0409 48.8963C69.0787 48.8975 69.0833 48.995 69.0905 48.9995C69.1311 49.0266 69.178 48.907 69.1861 48.9053C69.2688 48.8957 69.1822 49.012 69.2347 49.0577C69.3043 49.1167 69.4145 49.1391 69.5069 49.1655C69.5398 49.1743 69.5566 49.0777 69.6204 49.1076C69.6627 49.1291 69.7868 49.2766 69.8746 49.1718C69.883 49.1277 69.8839 49.0774 69.8892 49.0312C69.9436 49.2325 69.987 49.2323 70.117 49.2007C70.1376 49.1956 70.151 49.2742 70.1893 49.2488C70.2264 49.2228 70.2347 49.1047 70.3019 49.109C70.3256 49.1109 70.3387 49.195 70.3755 49.1993C70.4844 49.2126 70.6741 49.0977 70.7532 49.0846C70.91 49.0604 71.0187 49.1871 71.1506 49.1104C71.16 49.1041 71.1205 49.0192 71.1393 49.0134C71.1579 49.0079 71.2011 49.1208 71.2072 49.1243C71.2681 49.1431 71.3402 48.9588 71.3724 48.9702C71.4522 48.9986 71.3973 49.0689 71.4983 49.0647C71.5969 49.0597 71.6767 48.8688 71.7508 48.8098C71.837 48.7415 71.9452 48.944 71.938 48.6905C72.1972 48.6025 72.4472 48.4907 72.6904 48.3672C72.668 48.3255 72.6456 48.2834 72.6231 48.2417C72.6565 48.2605 72.69 48.2796 72.7237 48.2975C72.7045 48.268 72.6854 48.2382 72.6664 48.2089C72.8159 48.2796 72.9296 48.2928 73.0108 48.1967C73.011 48.193 72.961 48.1185 72.9602 48.1137C72.9733 48.0842 73.0352 48.1304 73.0461 48.1029C73.0733 48.0363 73.0418 47.8096 73.14 48.0461C73.1639 48.0115 73.1953 47.9857 73.23 47.9631C73.3132 47.9089 73.4142 47.874 73.4651 47.7915C73.496 47.741 73.4217 47.6111 73.4365 47.5882C73.4513 47.5656 73.516 47.6759 73.5264 47.675C73.5864 47.6635 73.6532 47.601 73.5737 47.4818C73.6167 47.52 73.6609 47.5579 73.7046 47.5959C73.6039 47.4752 73.7706 47.4169 73.8019 47.3828C73.8066 47.3761 73.7646 47.323 73.7692 47.3193C73.8248 47.2806 73.9069 47.3519 73.9741 47.3378C73.9967 47.3326 73.8947 47.2635 73.9674 47.2663C73.9752 47.2685 74.0445 47.35 74.0896 47.305C74.1631 47.2322 74.3312 47.1188 74.3751 46.987C74.3779 46.9761 74.2738 46.9168 74.3235 46.9015C74.3415 46.8961 74.3976 46.9602 74.4247 46.9298C74.5322 46.8101 74.5618 46.6169 74.7198 46.5329C74.6415 46.4797 74.5256 46.4597 74.6216 46.4273C74.6375 46.4228 74.698 46.4822 74.7042 46.4792C74.7532 46.4518 74.7297 46.3792 74.7858 46.3526C74.8025 46.3449 74.8591 46.3799 74.8834 46.3715C74.9192 46.3586 74.849 46.2934 74.9007 46.286C74.9815 46.275 75.0629 46.3132 74.9503 46.1584C75.1537 45.8286 75.3706 45.4545 75.359 44.9961C75.4252 44.8757 75.4893 44.7503 75.5005 44.5954C75.5028 44.5494 75.3857 44.5511 75.4169 44.4779C75.4259 44.4639 75.5294 44.3192 75.2924 44.3555C75.3065 44.3218 75.3029 44.3019 75.3087 44.2728C75.3475 44.283 75.3871 44.2957 75.4259 44.3077C75.3638 44.2012 75.4147 44.0825 75.4053 43.9572C75.397 43.8664 75.3293 43.9672 75.317 43.9171C75.3042 43.8681 75.3113 43.8317 75.1765 43.847C75.2162 43.7983 75.2214 43.773 75.2108 43.7563C75.1953 43.7325 75.1487 43.7262 75.1165 43.6869C75.1111 43.68 75.1194 43.5992 75.0802 43.5715C75.0519 43.5523 74.9825 43.6085 74.958 43.5635C74.9556 43.5562 74.9497 43.3969 74.927 43.3658C74.8934 43.316 74.7606 43.3631 74.7521 43.3605C74.6273 43.3008 74.623 43.1699 74.4637 43.3054C74.4923 43.1933 74.44 43.0974 74.3754 43.0864C74.2883 43.0687 74.095 43.2604 74.1256 43.0156C74.0177 43.105 74.0419 43.0402 73.9404 43.0223C73.8469 43.0038 73.608 43.0853 73.5421 43.0746C73.4726 43.0619 73.5034 42.9244 73.4748 42.9065ZM56.9342 47.9784C57.0394 48.034 57.1443 48.0854 57.2487 48.1326C57.2597 48.1484 57.2702 48.1659 57.2793 48.1859C57.202 48.459 57.2068 48.1743 57.2047 48.1618C57.1878 48.1 57.0992 48.1797 57.0841 48.1803C57.0546 48.1807 57.1014 48.1229 57.0968 48.1217C57.0132 48.1009 56.91 48.1418 56.9342 47.9784ZM72.3054 47.9784C72.3297 48.1418 72.2264 48.1009 72.1428 48.1217C72.1392 48.124 72.185 48.1807 72.1558 48.1803C72.1411 48.1802 72.0519 48.0998 72.0349 48.1618C72.0328 48.1747 72.0379 48.4588 71.9606 48.1859C71.9697 48.166 71.9799 48.1484 71.9909 48.1326C72.0953 48.0854 72.2002 48.034 72.3054 47.9784ZM73.8788 46.7899C73.8734 46.8794 73.881 46.9603 73.7925 46.8785C73.8218 46.8491 73.8506 46.8196 73.8788 46.7899ZM54.7836 46.0628C54.8569 46.1769 54.9384 46.2909 55.0271 46.4042C54.9517 46.3887 54.8599 46.3959 54.7469 46.4398C54.8073 46.3864 54.8713 46.3374 54.9338 46.2832C54.7309 46.397 54.8449 46.2716 54.8359 46.21C54.8283 46.1612 54.7331 46.1914 54.7246 46.1626C54.7165 46.1323 54.7646 46.0932 54.7836 46.0628ZM74.4557 46.0628C74.4746 46.0932 74.5235 46.1323 74.5153 46.1626C74.5069 46.1915 74.4116 46.1612 74.4041 46.21C74.395 46.2716 74.509 46.397 74.3061 46.2832C74.3687 46.3374 74.4326 46.3863 74.493 46.4398C74.3797 46.3958 74.2877 46.3886 74.2122 46.4042C74.3009 46.2909 74.3823 46.1769 74.4557 46.0628ZM74.907 44.9888C74.9323 45.1338 74.937 45.2854 74.9353 45.44C74.8039 45.4731 74.915 45.4748 74.9273 45.5394C74.9358 45.5914 74.7599 45.5213 74.7578 45.5788L74.7615 45.5931C74.7775 45.6354 74.8394 45.7277 74.7731 45.7528C74.7681 45.7526 74.6808 45.712 74.6582 45.7486C74.6414 45.7761 74.6173 45.8055 74.5912 45.8365C74.7506 45.548 74.8568 45.264 74.9033 44.9982C74.9044 44.995 74.906 44.992 74.907 44.9888ZM54.3359 44.9964C54.3823 45.2625 54.4882 45.547 54.6477 45.8358C54.622 45.8052 54.5983 45.7759 54.5817 45.7486C54.5589 45.7115 54.4693 45.7537 54.4665 45.7528C54.4002 45.7277 54.4624 45.6354 54.4785 45.5931L54.4821 45.5788C54.48 45.5213 54.3039 45.5913 54.3123 45.5394C54.3246 45.4748 54.436 45.4732 54.3043 45.44C54.3025 45.2854 54.3077 45.1338 54.3329 44.9888C54.3338 44.9914 54.335 44.9938 54.3359 44.9964ZM54.9861 43.4983C55.4268 43.3444 55.8321 43.5052 56.2235 43.5722C56.2798 43.5826 56.2988 43.4644 56.3627 43.4986C56.3869 43.5118 56.4145 43.6371 56.4833 43.6291C56.5379 43.6224 56.6772 43.5945 56.7454 43.5876C56.77 43.585 56.7512 43.6581 56.7531 43.6618C56.7822 43.6842 56.7989 43.6126 56.815 43.6151C56.8481 43.6209 56.8309 43.6959 56.8653 43.703C56.8916 43.7082 56.9526 43.6181 56.9802 43.636C56.994 43.645 56.965 43.7365 56.9782 43.7427C57.2436 43.8628 57.5309 43.9463 57.7373 44.1727C56.9921 43.7477 56.2444 43.5324 55.6372 43.5436C55.5854 43.5315 55.5274 43.5387 55.4714 43.553C55.0314 43.5936 54.6802 43.7648 54.4808 44.0747C54.3597 44.2629 54.3048 44.4863 54.3093 44.7317C54.3051 44.7327 54.3008 44.7343 54.2963 44.7352C54.3011 44.7378 54.3055 44.7406 54.3096 44.7429C54.3115 44.8178 54.3192 44.8945 54.3319 44.9731C54.319 44.979 54.2953 44.9743 54.2537 44.9487C54.2114 44.9304 54.1349 44.5804 54.1604 44.4974C54.1789 44.4019 54.2726 44.3846 54.3126 44.3147C54.3195 44.3024 54.2104 44.2095 54.2353 44.1884C54.2601 44.1689 54.3443 44.1913 54.3599 44.1591C54.3787 44.1204 54.2736 44.0754 54.27 44.058C54.2621 43.9987 54.3806 44.0937 54.4169 44.0486C54.4191 44.0458 54.4226 44.0417 54.4269 44.0367C54.4513 44.0068 54.5055 43.949 54.5251 43.9004C54.5358 43.8688 54.5042 43.7251 54.5757 43.7079C54.612 43.6992 54.6969 43.7338 54.7473 43.7141C54.7608 43.708 54.8522 43.6942 54.8678 43.6894C54.9107 43.6716 54.9571 43.5086 54.9861 43.4983ZM73.0165 43.5722C73.4078 43.5052 73.8129 43.3445 74.2535 43.4983C74.2825 43.5086 74.329 43.6712 74.3718 43.6894C74.3873 43.6942 74.4792 43.708 74.4927 43.7141C74.543 43.7337 74.628 43.6992 74.6642 43.7079C74.7356 43.7252 74.7041 43.8689 74.7148 43.9004C74.7344 43.949 74.7886 44.0068 74.8131 44.0367C74.8173 44.0417 74.8208 44.0458 74.8231 44.0486C74.8593 44.0937 74.9778 43.9987 74.97 44.058C74.9664 44.0754 74.8612 44.1203 74.88 44.1591C74.8958 44.1913 74.98 44.1688 75.0046 44.1884C75.0295 44.2095 74.9203 44.3022 74.927 44.3147C74.967 44.3846 75.0607 44.402 75.0792 44.4974C75.1047 44.5804 75.0282 44.9307 74.9859 44.9487C74.9438 44.9745 74.9201 44.9794 74.9073 44.9731C74.92 44.8945 74.9277 44.8178 74.9297 44.7429C74.9339 44.7405 74.9387 44.7379 74.9436 44.7352C74.939 44.7343 74.9346 44.7327 74.9303 44.7317C74.9348 44.4863 74.8802 44.2629 74.7591 44.0747C74.5597 43.7648 74.2085 43.5936 73.7686 43.553C73.7125 43.5387 73.6545 43.5316 73.6027 43.5436C72.9954 43.5324 72.2474 43.7478 71.502 44.1731C71.7084 43.9463 71.9961 43.8628 72.2617 43.7427C72.2746 43.736 72.2459 43.6453 72.2594 43.636C72.287 43.618 72.3484 43.7083 72.3746 43.703C72.409 43.6958 72.3918 43.6209 72.4249 43.6151C72.441 43.613 72.4575 43.6841 72.4865 43.6618C72.489 43.6599 72.4693 43.585 72.4942 43.5876C72.5624 43.5945 72.7021 43.6224 72.7567 43.6291C72.8254 43.6371 72.853 43.5116 72.8772 43.4986C72.9411 43.4645 72.9601 43.5827 73.0165 43.5722ZM70.5301 44.8116C70.5333 44.8112 70.5416 44.8239 70.5517 44.8388C70.538 44.8504 70.5246 44.8623 70.5111 44.874C70.5078 44.8433 70.5068 44.8161 70.5301 44.8116ZM58.7099 44.8116C58.733 44.8161 58.7315 44.8431 58.7282 44.8737C58.7147 44.862 58.7012 44.8504 58.6876 44.8388C58.6979 44.8237 58.7067 44.811 58.7099 44.8116ZM92.0447 41.0289C91.7445 40.3706 91.5336 39.8476 91.2047 40.0155C91.4948 40.3483 91.7747 40.6863 92.0447 41.0289ZM72.1658 31.1009C72.1169 31.1065 72.311 30.8742 72.0319 30.9318C71.8929 30.9598 71.404 31.3364 70.9717 31.2432C70.8985 31.2149 69.7153 30.6087 70.1653 31.3942C70.3353 31.4076 70.506 31.4154 70.6773 31.42C71.8618 31.2438 73.0893 31.1907 74.3408 31.2607C73.8511 30.763 73.0559 30.9926 72.1671 31.1006C72.1668 31.1006 72.1662 31.1009 72.1658 31.1009Z" fill="#EEF0E0"/>
<path d="M34.0671 17.3464C34.2251 17.2526 34.5501 17.1347 34.7192 17.0557C34.8063 17.0148 34.9081 17.2102 34.9221 17.2136C35.0136 17.2375 34.8814 17.028 34.9301 17.0157C34.9972 16.9989 35.13 17.137 35.1898 17.1231C35.228 17.1142 35.1599 16.9475 35.1666 16.9417C35.1776 16.9341 35.1886 16.9266 35.1996 16.9192C35.4528 16.7505 35.7039 16.6649 35.9805 16.5435C37.5082 15.8696 39.2485 15.375 40.9608 15.5886C41.1034 15.6063 41.0917 15.8347 41.2178 15.8091C41.3417 15.7841 41.5174 15.3057 41.5599 15.859C41.5755 15.7501 41.584 15.6721 41.5985 15.573C41.8394 15.7562 42.1167 15.6342 42.3745 15.6596C42.5643 15.6782 42.7264 15.7285 42.8947 15.7778C43.0445 15.823 42.986 16.0062 43.1753 15.7945C43.7854 16.1038 44.4407 16.2822 44.9386 16.775C45.2391 16.4574 45.2764 16.7553 45.4395 16.8992C45.4598 16.917 45.4982 16.7703 45.5632 16.8154C45.645 16.8723 45.5896 17.0985 45.7389 17.1606C45.7774 17.1752 46.182 17.1029 46.2229 17.2763C46.2629 17.4473 46.3709 17.5988 46.409 17.7674C46.4454 17.6749 46.475 17.5833 46.5081 17.4905C46.5694 17.5076 46.6308 17.5261 46.692 17.5443C46.6374 17.6489 46.5827 17.7536 46.5269 17.8585C46.6158 17.7819 46.7049 17.7071 46.7963 17.6309C46.5351 18.182 46.5741 17.9718 46.7998 17.9366C46.9129 17.92 46.9102 18.0454 47.0166 18.0441C47.0552 18.0431 47.1729 17.9089 47.2152 17.9101C47.3178 17.9149 47.1357 18.0864 47.1794 18.1159C47.2233 18.1445 47.4441 17.9715 47.4513 18.1256C47.0877 18.4535 47.4062 18.4952 47.6447 18.2092C47.6727 18.2297 47.6863 18.2596 47.7229 18.2749C47.1176 18.9971 47.6649 18.5767 47.8037 18.5234C47.9404 18.4685 47.7786 18.6625 47.7971 18.6657C47.8515 18.6747 47.8914 18.5715 47.9197 18.5902C48.1064 18.7173 48.1628 18.9721 48.313 19.1301C48.3346 19.1528 48.4117 19.0291 48.4292 19.0645C48.4465 19.1003 48.3749 19.2279 48.4207 19.2578C48.4332 19.2654 48.5226 19.1784 48.5394 19.1937C48.8823 19.5307 49.1116 19.9363 49.4045 20.3192C49.4312 20.3534 49.6269 20.2399 49.6746 20.3122C49.7224 20.3846 49.6424 20.6104 49.6924 20.703C49.7058 20.7276 49.8592 20.6226 49.8776 20.6557C49.9403 20.7689 49.8807 20.9456 49.9343 21.0659C50.0248 21.2689 50.247 21.4018 50.2696 21.6495C50.274 21.6961 50.1383 21.7711 50.1316 21.8448C50.1197 21.9716 50.2944 21.823 50.3313 21.8257C50.4509 21.8364 50.2022 22.0066 50.3019 22.0249C50.3175 22.0276 50.4641 21.9272 50.4718 21.9332C50.5698 22.0431 50.2071 22.2507 50.4752 22.2748C50.3257 22.5047 50.1496 22.3496 50.0274 22.3931C49.7307 22.4971 49.4776 22.7928 49.4096 22.9152C49.3517 23.0213 49.5222 22.9315 49.5351 22.9554C49.6018 23.0814 49.7275 23.256 49.6897 23.3933C49.6672 23.4755 49.5447 23.4031 49.5012 23.4601C49.4575 23.5159 49.5979 23.4746 49.4678 23.5706C49.3377 23.6674 48.9376 23.9172 48.729 23.9963C48.4787 23.892 48.3274 23.7621 48.3077 23.5497C48.3031 23.5014 48.4323 23.4377 48.444 23.4101C48.4653 23.3594 48.3029 23.3819 48.2978 23.3754C48.2722 23.3328 48.5018 23.2282 48.5071 23.2176C48.5591 23.1008 48.3194 23.2595 48.2602 23.2113C48.183 23.1482 48.1661 23.0186 48.1186 22.9151C48.1025 22.8786 48.2749 22.7922 48.2147 22.727C48.1718 22.6798 47.8877 22.6446 48.031 22.4421C48.1033 22.3918 48.1898 22.3457 48.2675 22.2983C47.8918 22.4007 47.8836 22.3603 47.8496 22.163C47.844 22.1318 47.7075 22.201 47.7224 22.1284C47.7372 22.0557 47.9204 21.9123 47.8554 21.8337C47.8318 21.8062 47.6899 21.8912 47.6504 21.8533C47.5394 21.7458 47.5011 21.3893 47.4165 21.2877C47.2526 21.0885 46.9576 21.1882 46.8669 20.965C46.8594 20.948 47.0111 20.8449 46.9908 20.8201C46.9697 20.795 46.7815 20.9447 46.7722 20.9436C46.6713 20.9318 46.7534 20.576 46.6907 20.5725C46.5417 20.5675 46.5575 20.7201 46.4096 20.6521C46.2706 20.5893 46.3047 20.2178 46.2183 20.0757C46.1175 19.9105 45.8094 20.2439 45.974 19.7838C45.572 19.5332 45.1568 19.3025 44.7261 19.1098C44.7699 19.0269 44.8139 18.944 44.858 18.8613C44.7944 18.9016 44.7313 18.9427 44.6691 18.9835C44.7052 18.9235 44.7413 18.8634 44.7773 18.8041C44.4957 18.9649 44.3018 19.0272 44.1447 18.8784C44.1416 18.8755 44.2255 18.7081 44.2244 18.7023C44.1951 18.6513 44.0911 18.7632 44.0666 18.7165C44.0086 18.604 43.9969 18.162 43.8845 18.6533C43.7063 18.4721 43.3948 18.5411 43.2161 18.3843C43.1384 18.3164 43.1953 18.0256 43.1548 17.9957C43.1144 17.9662 43.066 18.2166 43.0475 18.2213C42.9377 18.2476 42.7871 18.1963 42.8415 17.9173C42.7932 18.0219 42.7442 18.1279 42.6968 18.2336C42.7871 17.9308 42.4568 17.9839 42.3807 17.961C42.3667 17.9565 42.3936 17.8216 42.3826 17.82C42.2566 17.8113 42.184 18.0179 42.0689 18.0691C42.0284 18.0874 42.1289 17.8586 42.0169 17.9447C42.0071 17.9524 41.9722 18.1675 41.8639 18.1477C41.6897 18.1149 41.347 18.1557 41.1492 18.0298C41.1333 18.0183 41.2082 17.7879 41.1235 17.8353C41.0927 17.8523 41.0913 18.0219 41.0222 18.0175C40.7574 18.0023 40.4721 17.7959 40.1953 17.9574C40.2048 17.7664 40.3068 17.5519 40.1552 17.6718C40.1312 17.6916 40.15 17.8621 40.1394 17.8687C40.0542 17.9185 39.9766 17.7977 39.8851 17.866C39.8582 17.8866 39.8558 18.0209 39.8234 18.0538C39.7759 18.1024 39.7454 17.913 39.691 17.9965C39.6059 18.1288 39.6072 18.31 39.4699 17.9634C38.8271 18.0327 38.2261 18.2355 37.5686 18.2493C37.4147 18.3957 37.2873 18.5517 37.1189 18.6472C37.0695 18.6753 36.9826 18.4484 36.9229 18.5536C36.9083 18.5775 36.863 18.8684 36.6758 18.4158C36.6518 18.4695 36.6282 18.48 36.6045 18.5167C36.6546 18.5747 36.7053 18.6333 36.7536 18.6929C36.59 18.6697 36.5412 18.8741 36.4569 18.9969C36.3943 19.0875 36.3745 18.8685 36.3296 18.9101C36.2842 18.9514 36.2803 19.0043 36.1127 18.803C36.1389 18.9224 36.1349 18.9632 36.1138 18.9725C36.0839 18.9858 36.0189 18.9359 35.9607 18.9577C35.9499 18.9625 35.9382 19.0912 35.8801 19.0941C35.8382 19.0961 35.7491 18.9383 35.7049 18.9909C35.6966 18.9994 35.68 19.2583 35.6528 19.2955C35.6108 19.3533 35.4115 19.1963 35.3985 19.2002C35.2152 19.2526 35.271 19.4844 34.9667 19.225C35.0559 19.4324 35.0307 19.5997 34.9458 19.6264C34.8409 19.6575 34.3996 19.3978 34.642 19.8188C34.4162 19.7105 34.5006 19.8138 34.3796 19.9035C34.2693 19.9839 33.8635 20.0577 33.791 20.1521C33.7187 20.2437 33.9316 20.4184 33.9201 20.474C33.9028 20.5652 33.8066 20.3874 33.7703 20.4211C33.6681 20.517 33.6005 20.6257 33.5601 20.7785C33.4616 20.6795 33.3619 20.5806 33.2627 20.4823C33.2886 20.5215 33.3145 20.5609 33.3405 20.6001C33.318 20.6186 33.2957 20.643 33.273 20.6582C33.8524 20.9577 33.0844 20.7687 32.9738 20.8601C32.8823 20.9327 32.9604 21.2697 32.9252 21.4006C32.9164 21.4324 32.8194 21.3156 32.8179 21.3224C32.8009 21.4045 32.8697 21.4815 32.7957 21.543C32.7565 21.5751 32.5803 21.4897 32.5446 21.5255C32.2831 21.7899 32.2166 22.1869 32.0312 22.4919C31.9997 22.5438 31.7788 22.459 31.7453 22.5003C31.6979 22.5594 31.8302 22.7017 31.7957 22.7612C31.7613 22.8201 31.517 22.7872 31.5212 22.8464C31.5256 22.9045 31.7541 22.9487 31.6585 22.9912C31.6145 23.0108 31.5113 22.8673 31.4816 22.907C31.3877 23.0334 31.4584 23.3185 31.2101 23.3717C31.2565 23.3879 31.2999 23.3996 31.345 23.4137C31.2475 23.5572 31.0736 23.6433 30.9812 23.801C30.9486 23.8564 31.0318 24.0187 31.0068 24.0744C30.9817 24.1303 30.8283 24.0953 30.8046 24.1398C30.7947 24.1579 30.9244 24.2038 30.918 24.2156C30.8192 24.3579 30.5536 24.357 30.5162 24.5395C30.3817 25.2042 30.2982 25.889 30.2925 26.5564C30.2925 26.5834 30.4688 26.6273 30.49 26.6684C30.5228 26.7316 30.3657 26.7134 30.3576 26.7203C30.316 26.7668 30.4652 26.7654 30.4568 26.8331C30.4378 26.9814 30.284 27.2133 30.2859 27.3667C30.2896 27.7193 30.4277 28.0148 30.5111 28.345C30.5168 28.3688 30.3028 28.361 30.3018 28.4038C30.2953 28.7081 30.5024 28.7537 30.4871 29.1264C30.4688 29.4995 30.4787 30.2213 30.5813 30.6567C30.5817 30.6566 30.5809 30.6569 30.5813 30.6567C31.0003 30.6791 30.955 30.8661 30.7212 31.1061C29.5056 30.5783 29.724 29.5261 29.6331 28.5816C29.5288 27.5842 28.9284 26.3516 29.3069 25.2711C29.3422 25.1719 29.5707 25.1909 29.5482 25.0953C29.5439 25.079 29.3671 25.069 29.3623 25.0204C29.3078 24.3383 29.9207 23.84 30.0839 23.2497C30.1292 23.0879 29.9679 22.9777 29.9917 22.8218C30.061 22.8872 30.1382 22.9462 30.2103 23.0081C30.7649 22.5514 30.9989 21.9411 31.4366 21.4343C31.4565 21.4118 31.6094 21.5243 31.6337 21.5043C31.6825 21.4648 31.5553 21.2894 31.5842 21.2419C31.6218 21.1805 31.7466 21.2658 31.7802 21.2096C31.7965 21.1819 31.6787 21.0966 31.7425 21.0585C31.7493 21.0567 31.8668 21.1498 31.8813 21.1025C31.92 20.9714 31.9971 20.6926 32.0426 20.5885C32.1001 20.4551 32.3402 20.5358 32.3859 20.5108C32.5096 20.4423 32.342 20.2787 32.4258 20.1959C33.0289 19.6068 33.8192 19.33 34.5235 18.8961C34.5667 18.8686 34.6026 18.5436 34.6958 18.5032C34.727 18.4901 34.9107 18.4668 34.9366 18.4599C35.0397 18.4289 35.1931 18.5274 35.2587 18.531C35.3856 18.5386 35.3864 18.2641 35.4318 18.2148C35.498 18.1415 35.6445 18.0938 35.7138 18.0742C35.7258 18.0708 35.7355 18.068 35.742 18.0662C35.8485 18.0363 35.9366 18.3308 35.9788 18.2354C35.9914 18.207 35.8778 18.0008 35.953 17.9692C36.0164 17.9439 36.1085 18.0964 36.1624 18.1089C36.2157 18.1212 36.1943 17.838 36.2241 17.8328C36.3808 17.8135 36.5047 17.9581 36.66 17.9135C36.7852 17.872 37.3474 17.5732 37.3856 17.5011C37.5436 17.1632 37.1901 17.3891 37.1675 17.3871C37.0363 17.3667 37.0201 17.2568 36.9652 17.4928C36.6629 16.9061 36.6235 17.9826 36.2764 17.293C36.3555 17.8088 36.1902 17.5957 36.0519 17.5391C35.862 17.4613 36.0762 17.6967 35.9785 17.7385C35.9404 17.7544 35.7371 17.5874 35.69 17.6431C35.6484 17.693 35.6818 17.8386 35.6358 17.8989C35.6306 17.9057 35.6245 17.9114 35.6171 17.9158C35.4863 17.9946 35.3431 17.9703 35.1329 17.8354C35.1532 17.9306 35.1757 18.0249 35.1973 18.1196C35.0746 18.0673 34.9482 18.0187 34.8218 17.9713C34.873 18.0376 34.9244 18.1045 34.9751 18.1711C34.9578 18.1936 34.9402 18.2157 34.9229 18.2377C34.7894 18.1681 34.662 18.1068 34.5208 18.0388C34.5447 18.5736 34.4028 18.1796 34.2522 18.1961C34.1023 18.2135 34.1801 18.4904 34.0945 18.5463C33.978 18.6229 33.9431 18.6869 33.8158 18.7489C33.7424 18.7847 33.4772 18.645 33.8106 18.9276C33.6218 19.098 33.4233 19.3944 33.1423 19.4019C33.059 19.4049 33.0447 19.2455 33.0256 19.2397C32.9316 19.2151 33.0303 19.4127 32.9658 19.4259C32.8581 19.4476 32.6039 19.4447 32.5182 19.4682C32.3943 19.5011 32.4532 19.8268 32.4552 19.8532C32.4606 20.0031 32.2826 19.8534 32.2701 19.8874C32.2023 20.0821 32.246 20.1772 31.857 19.8744C31.9709 20.0593 32.0927 20.4454 31.8013 20.2363C32.0341 20.4578 31.8838 20.5394 31.8774 20.6673C31.7959 20.6189 31.7144 20.5711 31.6318 20.5229C31.9232 21.0588 31.3486 21.0965 31.1241 21.283C31.1198 21.2886 31.3036 21.4424 31.2359 21.4426C31.2301 21.4414 31.1466 21.374 31.1188 21.3878C31.0281 21.4316 30.6022 21.5667 30.577 21.6021C30.4842 21.7236 30.6202 21.8447 30.5851 21.93C30.5397 22.0426 30.3928 21.9715 30.3519 22.0821C30.3325 22.134 30.4903 22.2859 30.422 22.342C30.3817 22.3754 30.2345 22.2953 30.2028 22.323C30.0893 22.4221 30.132 22.5634 29.8795 22.5716C30.3342 22.8526 29.9601 22.7193 29.8949 22.7572C29.63 22.9095 29.6966 23.2968 29.5668 23.4751C29.158 24.0346 28.6451 24.5239 28.4052 25.1875C28.3669 25.2953 28.6214 25.3825 28.5796 25.4918C28.5603 25.5408 28.3595 25.5534 28.3392 25.6385C28.3224 25.7068 28.3999 25.8237 28.3839 25.9086C28.3798 25.9312 28.2005 25.9011 28.1931 25.9349C28.1372 26.1912 28.2288 26.4636 28.289 26.7305C28.3115 26.8291 28.0663 26.8656 28.4852 26.8898C28.3793 26.9158 28.2869 26.943 28.1828 26.9687C28.4347 27.1227 28.152 27.2083 28.21 27.3932C28.2179 27.4144 28.4998 27.5593 28.2889 27.6275C28.4381 27.6375 28.5654 27.6298 28.7006 27.6363C28.7552 27.7101 28.5806 27.8181 28.5624 27.8683C28.5443 27.918 28.7385 27.952 28.7403 27.9666C28.7449 28.0219 28.4935 28.0101 28.4857 28.0142C28.2431 28.2834 28.3801 28.2597 28.7677 28.4033C28.8644 28.4371 28.5991 28.7223 28.9052 28.755C28.7824 28.7661 28.6731 28.7587 28.5554 28.7624C28.5293 28.8462 28.5033 28.9316 28.4793 29.0172C28.5956 28.9889 28.712 28.9576 28.8293 28.932C28.7413 29.1058 29.0338 29.2128 29.0411 29.343C29.0449 29.4182 28.7847 29.444 28.8473 29.4812C28.8598 29.4883 29.0329 29.4498 29.0505 29.4733C29.1937 29.6643 29.0237 29.7826 29.0277 29.9988C29.03 30.1012 29.3613 30.1204 29.1846 30.3024C29.1666 30.3184 28.9218 30.5214 29.339 30.5091C29.22 30.5658 29.1599 30.6057 29.0596 30.6522C29.6915 30.6727 29.1011 30.7702 29.031 31.0428C28.993 31.1843 29.2233 31.5577 29.3308 31.6609C29.395 31.7235 29.6184 31.6409 29.6327 31.6505C29.7129 31.71 29.4964 31.7906 29.5594 31.851C29.6232 31.9121 29.902 31.9058 29.9091 31.9868C29.9146 32.0493 29.6308 32.1143 29.7577 32.1596C29.7849 32.1684 29.9894 32.0259 29.9377 32.1493C29.9293 32.168 29.7476 32.4128 29.7091 32.466C29.5358 32.4546 29.2572 32.3092 29.1657 32.246C27.4528 31.2127 26.9976 27.4572 27.602 25.7144C27.6453 25.5486 27.9139 25.4915 27.9581 25.3911C28.0027 25.29 27.7581 25.3297 27.7985 25.2367C27.8401 25.1436 28.0148 25.1112 28.0507 25.0258C28.2943 24.4478 28.5857 23.8962 28.8584 23.3588C28.9286 23.22 28.8081 23.0299 28.8683 22.8984C28.8919 22.8475 29.1112 22.9475 29.1261 22.9115C29.2864 22.5252 29.2673 22.0665 29.5114 21.7129C29.6131 21.5664 29.8862 21.5141 29.9962 21.3823C30.0874 21.2736 30.0566 21.0732 30.1291 20.9662C30.168 20.9079 30.3385 20.9857 30.3647 20.9742C30.4541 20.9327 30.2563 20.8248 30.2824 20.7885C30.3573 20.6889 30.6096 20.8039 30.6624 20.7019C30.6831 20.6616 30.5435 20.5595 30.5633 20.4911C30.5889 20.4046 30.694 20.528 30.7355 20.4858C30.7383 20.4835 30.6352 20.415 30.6513 20.3873C30.7538 20.2087 30.8474 19.9503 30.9875 19.8085C31.2775 19.513 31.7308 19.3973 32.0361 19.1828C32.1134 19.1279 31.9877 19.025 32.005 18.9989C32.0905 18.8739 32.2555 18.985 32.3259 18.8348C32.3372 18.8097 32.2738 18.5731 32.3863 18.5541C32.4469 18.544 32.5808 18.6149 32.6358 18.6127C32.6908 18.6103 32.5701 18.4453 32.6129 18.4117C32.6906 18.351 32.7537 18.4804 32.85 18.3761C32.8883 18.3347 32.928 18.0647 33.058 17.9919C33.2693 17.8728 33.6149 17.8571 33.8532 17.7164C33.9352 17.6683 33.9359 17.4231 34.0671 17.3464ZM45.5471 18.1576C45.3726 18.6879 45.6178 18.5764 45.8143 18.6478C45.8227 18.6516 45.7156 18.7536 45.7749 18.7591C45.8034 18.7613 46.0054 18.6272 46.0231 18.754C46.0283 18.7786 45.9127 19.3238 46.1663 18.8263C46.0647 18.4719 45.7408 18.4168 45.5471 18.1576ZM38.5838 16.8286C38.162 16.9332 37.8235 17.1734 37.4481 17.3316C37.7391 17.3612 38.0247 17.3944 38.3042 17.4505C38.4139 17.1995 38.3773 17.4229 38.4861 17.4772C38.5718 17.5206 38.532 17.1351 38.6435 17.1623C38.7017 17.1769 38.8498 17.427 38.9493 17.3027C38.9528 17.2981 38.94 17.0973 39.0262 17.0809C39.2181 17.0441 39.5123 16.918 39.7367 16.9525C39.8022 16.9627 39.7968 17.1739 39.8724 17.1978C39.9271 17.2151 39.9874 17.0188 40.0754 17.0611C40.1865 17.1157 40.2336 17.4515 40.3128 16.9864C40.3171 17.1528 40.3123 17.3151 40.3175 17.4773C40.5414 16.7144 41.1704 16.8279 41.4791 16.9418C41.7442 17.0335 41.8736 17.65 41.9522 16.8014C41.6593 16.7505 41.4124 16.8064 41.1043 16.7547C41.0722 16.7487 40.8845 16.6566 40.8171 16.6393C40.7795 16.6294 40.7855 16.4889 40.7328 16.4877C40.7211 16.4878 40.65 16.6685 40.6276 16.6627C40.5514 16.6426 40.3219 16.3576 40.2865 16.365C40.1938 16.3884 40.2286 16.6071 40.1895 16.6466C40.06 16.7781 40.0416 16.4505 39.912 16.5598C39.8886 16.5794 39.8209 16.8666 39.7258 16.8333C39.6871 16.8193 39.614 16.6755 39.5843 16.684C39.4225 16.7307 39.2597 16.9392 39.112 16.9212C38.9901 16.9064 38.9988 16.6838 38.9309 16.6613C38.8625 16.6402 38.8153 16.9035 38.7749 16.9236C38.7094 16.9553 38.6054 16.8233 38.5838 16.8286Z" fill="#EEF0E0"/>
<path d="M92.1698 16.8262C92.3446 16.8801 92.6484 17.0413 92.8196 17.1136C92.9079 17.1506 92.8311 17.3569 92.8378 17.3699C92.8809 17.4538 92.948 17.2154 92.9895 17.2431C93.0467 17.2815 93.0328 17.4729 93.0829 17.5078C93.1149 17.5299 93.1935 17.3669 93.2018 17.369C93.2148 17.372 93.2276 17.3751 93.2403 17.3783C93.5337 17.453 93.7643 17.5817 94.0379 17.7058C95.5524 18.3884 97.0729 19.3576 98.0399 20.7755C98.1206 20.8935 97.9419 21.0358 98.0442 21.1127C98.1445 21.1884 98.619 21.0034 98.2318 21.4006C98.3237 21.3402 98.3878 21.2949 98.4717 21.2402C98.4928 21.541 98.7664 21.667 98.917 21.8761C99.0279 22.0298 99.0968 22.1837 99.1705 22.3418C99.2351 22.4833 99.0588 22.5603 99.3424 22.5619C99.5111 23.2205 99.808 23.8264 99.7651 24.5212C100.201 24.5362 100.002 24.7597 100.001 24.9757C100.001 25.0024 100.137 24.9348 100.146 25.0125C100.157 25.1109 99.9502 25.2185 100.002 25.3705C100.017 25.4089 100.337 25.6621 100.234 25.8063C100.132 25.9484 100.089 26.1284 99.9873 26.2676C100.081 26.2338 100.17 26.196 100.261 26.1597C100.289 26.2166 100.315 26.2742 100.342 26.3317C100.227 26.3597 100.112 26.3876 99.9968 26.415C100.113 26.4308 100.228 26.4476 100.345 26.4655C99.759 26.6331 99.9429 26.5243 100.118 26.6691C100.205 26.7423 100.11 26.8228 100.181 26.9009C100.207 26.9289 100.385 26.9284 100.412 26.9607C100.477 27.0401 100.228 27.0172 100.234 27.0691C100.242 27.1205 100.518 27.171 100.407 27.2776C99.9203 27.2227 100.1 27.4865 100.472 27.476C100.475 27.5103 100.461 27.5402 100.474 27.5775C99.5325 27.6019 100.209 27.7324 100.341 27.8005C100.473 27.8661 100.221 27.8732 100.23 27.8891C100.259 27.9354 100.363 27.8975 100.368 27.9306C100.396 28.1525 100.243 28.3623 100.224 28.5773C100.222 28.6082 100.364 28.584 100.35 28.62C100.335 28.6564 100.192 28.6874 100.2 28.7411C100.203 28.7554 100.327 28.7648 100.326 28.7874C100.301 29.2634 100.151 29.6995 100.06 30.1686C100.052 30.2109 100.267 30.2815 100.245 30.3641C100.223 30.4472 100.001 30.5364 99.9656 30.6345C99.956 30.6606 100.137 30.7051 100.124 30.7406C100.082 30.8617 99.9105 30.9337 99.8567 31.0528C99.766 31.2535 99.8155 31.5054 99.6467 31.6855C99.6151 31.7196 99.4684 31.6684 99.4092 31.712C99.3069 31.7869 99.534 31.8184 99.5566 31.8476C99.6287 31.9431 99.3359 31.8714 99.389 31.9572C99.3972 31.9705 99.5713 32.013 99.571 32.0225C99.5549 32.1675 99.1583 32.036 99.3197 32.2504C99.0491 32.2916 99.0463 32.0585 98.9322 31.9967C98.6565 31.8457 98.2677 31.854 98.1315 31.8847C98.0142 31.912 98.195 31.9788 98.1856 32.0041C98.1368 32.1369 98.0917 32.3454 97.9648 32.4084C97.8888 32.4462 97.8602 32.3078 97.7889 32.3133C97.7185 32.318 97.843 32.3945 97.6847 32.3618C97.5258 32.3296 97.0727 32.1991 96.8742 32.097C96.7838 31.8422 96.7792 31.6435 96.9238 31.4879C96.9567 31.4527 97.0902 31.506 97.1185 31.4964C97.1703 31.4784 97.0438 31.3722 97.0462 31.3648C97.0608 31.3176 97.2922 31.4187 97.3036 31.4155C97.425 31.3767 97.1469 31.3039 97.1434 31.228C97.1387 31.129 97.2236 31.0306 97.2689 30.9269C97.2853 30.8907 97.4649 30.9614 97.4731 30.8736C97.4797 30.8105 97.3161 30.5761 97.5625 30.5486C97.6482 30.569 97.7399 30.603 97.827 30.6294C97.5004 30.418 97.5253 30.3852 97.6497 30.2294C97.6688 30.2046 97.5269 30.149 97.5905 30.1122C97.6544 30.0751 97.8838 30.1166 97.8992 30.0164C97.904 29.9808 97.7463 29.9312 97.7482 29.8771C97.7545 29.7235 97.9951 29.4601 98.0149 29.3302C98.0549 29.077 97.7847 28.9233 97.8917 28.7087C97.9005 28.6923 98.0771 28.737 98.0822 28.7057C98.087 28.6736 97.8516 28.6325 97.8447 28.6246C97.7865 28.5417 98.1077 28.3686 98.0687 28.3196C97.9737 28.2054 97.8698 28.3177 97.8227 28.1626C97.7779 28.0181 98.0788 27.7992 98.1283 27.6417C98.1856 27.4583 97.7318 27.4479 98.1859 27.2681C98.1084 26.8044 98.0081 26.3441 97.8694 25.8972C97.9605 25.8753 98.0519 25.8538 98.1431 25.8322C98.0709 25.8114 97.9983 25.7912 97.9267 25.7718C97.9956 25.7592 98.0645 25.7467 98.1328 25.7346C97.8265 25.6308 97.6519 25.5273 97.6605 25.3128C97.6615 25.3083 97.842 25.2611 97.8456 25.2565C97.8647 25.2012 97.712 25.1972 97.7311 25.1484C97.7776 25.0312 98.1023 24.7322 97.6589 24.9715C97.678 24.7201 97.4215 24.5338 97.422 24.298C97.422 24.1955 97.6782 24.0463 97.674 23.9965C97.6695 23.9471 97.45 24.0757 97.4341 24.0653C97.3421 24.001 97.2818 23.8555 97.5274 23.7122C97.417 23.7452 97.305 23.7785 97.1944 23.8128C97.4815 23.6805 97.2243 23.4698 97.1917 23.3983C97.1863 23.3848 97.305 23.3162 97.2989 23.307C97.2227 23.2076 97.0202 23.2894 96.9062 23.2379C96.8659 23.2199 97.1036 23.1439 96.9655 23.1174C96.9533 23.1153 96.7684 23.2313 96.7124 23.1378C96.6227 22.9866 96.3676 22.7594 96.3325 22.5295C96.3297 22.5104 96.5532 22.4133 96.4615 22.3817C96.4284 22.3704 96.3004 22.4811 96.2585 22.427C96.0963 22.2205 96.0641 21.8724 95.7617 21.7742C95.911 21.6547 96.1383 21.588 95.9494 21.555C95.9187 21.5503 95.8029 21.6773 95.7911 21.6737C95.6982 21.6433 95.7378 21.5061 95.6266 21.4834C95.5935 21.4771 95.4917 21.5642 95.4458 21.5621C95.3779 21.5594 95.4998 21.4111 95.4016 21.4262C95.2469 21.4509 95.1122 21.5721 95.2814 21.2404C94.8079 20.8099 94.2627 20.5001 93.8202 20.0229C93.61 20.0067 93.4104 20.0167 93.2288 19.9561C93.1758 19.9381 93.2864 19.7225 93.1694 19.7488C93.1424 19.7536 92.8967 19.916 93.1089 19.4741C93.0533 19.4923 93.0298 19.4815 92.987 19.4886C92.977 19.5645 92.9671 19.6415 92.9547 19.7171C92.8642 19.5805 92.6804 19.6816 92.534 19.7017C92.426 19.7162 92.5747 19.5548 92.5148 19.5493C92.4543 19.5434 92.4125 19.5761 92.4507 19.3171C92.3798 19.4166 92.347 19.441 92.3261 19.4316C92.2966 19.4185 92.2907 19.3371 92.2362 19.3087C92.226 19.3035 92.1228 19.3817 92.0822 19.3406C92.0531 19.3109 92.1107 19.139 92.0426 19.1417C92.0309 19.1414 91.8287 19.3032 91.7835 19.3082C91.7134 19.3157 91.6974 19.0641 91.686 19.0562C91.5262 18.9559 91.3922 19.1533 91.3817 18.7541C91.2881 18.9594 91.1484 19.0531 91.0726 19.0085C90.9805 18.9519 90.8786 18.4515 90.7301 18.9139C90.66 18.6743 90.6399 18.8062 90.4938 18.7773C90.3615 18.75 90.0382 18.5003 89.9205 18.5105C89.8054 18.519 89.8191 18.7934 89.7709 18.8229C89.6926 18.8718 89.7586 18.6808 89.7097 18.6767C89.5716 18.6661 89.4468 18.6896 89.3083 18.763C89.315 18.6235 89.3211 18.4833 89.3268 18.3437C89.3154 18.3893 89.304 18.435 89.2928 18.4807C89.2642 18.4765 89.2316 18.4762 89.2053 18.4697C89.3726 19.0991 88.9989 18.4061 88.8581 18.3858C88.7441 18.3672 88.5498 18.6523 88.431 18.7148C88.4018 18.73 88.4224 18.5796 88.4164 18.583C88.3451 18.626 88.335 18.7286 88.2407 18.7156C88.1912 18.7083 88.1357 18.5213 88.0858 18.5188C87.7178 18.5047 87.3841 18.7241 87.0377 18.7937C86.9788 18.8056 86.8922 18.5856 86.8396 18.5889C86.7647 18.594 86.7501 18.7876 86.6836 18.8024C86.6176 18.8167 86.4774 18.6145 86.4371 18.6575C86.3978 18.7 86.5192 18.8981 86.4244 18.8566C86.3804 18.8376 86.4152 18.6644 86.3664 18.6694C86.2112 18.6856 86.0515 18.9301 85.8456 18.7832C85.8651 18.8283 85.8858 18.8682 85.906 18.911C85.736 18.9362 85.5563 18.8663 85.3792 18.9048C85.3169 18.918 85.2548 19.0891 85.1974 19.1083C85.1398 19.1273 85.0618 18.9908 85.0135 19.0036C84.9937 19.0087 85.048 19.1354 85.0349 19.1383C84.8648 19.1616 84.6862 18.9655 84.5281 19.0611C83.9537 19.4106 83.3988 19.8107 82.908 20.2556C82.8881 20.2734 82.9755 20.4329 82.9599 20.4764C82.9359 20.5434 82.842 20.414 82.8322 20.4139C82.7702 20.4146 82.8722 20.5233 82.8172 20.5627C82.6961 20.6485 82.423 20.6912 82.3121 20.7957C82.0568 21.0354 81.9336 21.335 81.7479 21.6179C81.7349 21.6388 81.5957 21.4752 81.5635 21.5032C81.3362 21.7022 81.4425 21.8859 81.1586 22.1239C80.8722 22.3604 80.3479 22.8499 80.0954 23.2158C80.0951 23.2155 80.0946 23.2154 80.0942 23.2152C80.3592 23.5399 80.1917 23.6317 79.8575 23.6185C79.4309 22.3681 80.3512 21.829 80.9818 21.1291C81.6425 20.3842 82.1354 19.1142 83.1783 18.6645C83.2745 18.6234 83.4153 18.8046 83.4697 18.7236C83.479 18.7098 83.3663 18.5725 83.3985 18.5361C83.8585 18.036 84.6351 18.1505 85.175 17.8717C85.3236 17.7957 85.295 17.6026 85.4248 17.5146C85.4239 17.6099 85.433 17.7067 85.4365 17.8016C86.143 17.9013 86.7451 17.6607 87.4091 17.6405C87.4389 17.64 87.4594 17.8288 87.4903 17.8332C87.5519 17.8426 87.5947 17.6302 87.6487 17.6193C87.7188 17.6057 87.7402 17.7552 87.8038 17.7419C87.835 17.7352 87.818 17.5909 87.8885 17.6121C87.8944 17.614 87.9052 17.7655 87.9497 17.744C88.0716 17.6839 88.3267 17.5525 88.4334 17.5157C88.5695 17.4678 88.6717 17.6999 88.7204 17.7164C88.8532 17.7613 88.8607 17.5269 88.9773 17.5329C89.8123 17.5799 90.5429 17.9766 91.3298 18.2051C91.3784 18.2188 91.6417 18.0267 91.7337 18.0684C91.7639 18.0824 91.9041 18.203 91.9261 18.2172C92.0173 18.2726 92.0463 18.4519 92.087 18.503C92.1656 18.602 92.3689 18.4182 92.4354 18.4189C92.5334 18.4187 92.6657 18.4952 92.7261 18.5333C92.7366 18.54 92.7452 18.5453 92.7509 18.5489C92.8434 18.6078 92.6837 18.8704 92.7823 18.8376C92.8118 18.8273 92.8889 18.6056 92.9619 18.6399C93.0229 18.6697 92.9705 18.8404 92.9969 18.8886C93.0231 18.9365 93.2196 18.7301 93.2427 18.7496C93.3605 18.8526 93.3351 19.041 93.4705 19.126C93.5841 19.1911 94.1773 19.4077 94.2561 19.388C94.6114 19.2795 94.2105 19.1683 94.1969 19.1501C94.1254 19.0392 94.1963 18.9539 93.9847 19.0709C94.2208 18.4547 93.3953 19.1453 93.6775 18.427C93.3471 18.8307 93.396 18.5652 93.3462 18.4249C93.2782 18.2324 93.2454 18.549 93.1497 18.5044C93.1128 18.4869 93.1021 18.2243 93.0296 18.2267C92.9651 18.2292 92.8793 18.3516 92.8041 18.358C92.7957 18.3588 92.7872 18.358 92.7791 18.3555C92.6342 18.3114 92.5577 18.1892 92.5179 17.9432C92.4609 18.0221 92.4057 18.1021 92.3501 18.1817C92.3073 18.0557 92.2595 17.9294 92.2106 17.8041C92.1956 17.8865 92.1802 17.9695 92.1646 18.0517C92.1365 18.054 92.1086 18.0558 92.0808 18.0577C92.0436 17.9123 92.0041 17.7767 91.9603 17.6266C91.5813 18.0036 91.7781 17.6341 91.6656 17.5339C91.5531 17.4349 91.4009 17.6784 91.3028 17.653C91.1685 17.6184 91.098 17.6356 90.9675 17.5833C90.8923 17.553 90.8182 17.2633 90.8324 17.6996C90.581 17.6748 90.2315 17.7281 90.0382 17.5258C89.9806 17.4663 90.088 17.3485 90.0796 17.3304C90.0349 17.2442 89.9557 17.4503 89.9029 17.4117C89.8152 17.3469 89.6471 17.1573 89.5727 17.1099C89.4656 17.0406 89.2662 17.3039 89.2483 17.3232C89.142 17.4285 89.1326 17.1965 89.0992 17.2097C88.9111 17.2911 88.8709 17.3878 88.8321 16.8964C88.7728 17.1053 88.5721 17.4559 88.5295 17.1C88.5234 17.4211 88.3632 17.3655 88.2654 17.4473C88.2462 17.3544 88.2261 17.262 88.206 17.1686C88.0093 17.7453 87.5971 17.3474 87.3097 17.3081C87.3026 17.3073 87.3139 17.5483 87.2682 17.4985C87.2652 17.4944 87.2583 17.3862 87.2294 17.3751C87.1364 17.3377 86.7515 17.1155 86.7087 17.1208C86.5575 17.1346 86.5608 17.3168 86.475 17.3487C86.362 17.3915 86.3152 17.2353 86.207 17.2798C86.1561 17.3007 86.1515 17.5195 86.0646 17.5072C86.0131 17.5003 85.9723 17.3375 85.9307 17.3328C85.7818 17.3164 85.7076 17.4434 85.5313 17.263C85.633 17.7878 85.4781 17.4218 85.4066 17.3996C85.1168 17.3076 84.8797 17.6184 84.6623 17.6434C83.9788 17.7205 83.2756 17.6733 82.6299 17.9438C82.5253 17.9882 82.6339 18.2343 82.5262 18.2774C82.4777 18.2966 82.3323 18.1567 82.2565 18.1992C82.1953 18.2328 82.1624 18.3689 82.0897 18.4142C82.0701 18.4256 81.9712 18.274 81.9416 18.2911C81.717 18.4224 81.5803 18.6733 81.4263 18.897C81.3695 18.9798 81.1773 18.8235 81.4429 19.1484C81.3523 19.0879 81.2698 19.038 81.1806 18.9786C81.2387 19.2677 80.9849 19.1166 80.8891 19.2834C80.8785 19.3026 80.964 19.6089 80.7714 19.499C80.8649 19.6156 80.9564 19.7043 81.043 19.8083C81.026 19.8979 80.8293 19.8416 80.7803 19.8618C80.7317 19.8817 80.838 20.0478 80.8286 20.0589C80.7909 20.0995 80.6277 19.9035 80.6217 19.9033C80.2611 19.9046 80.3711 19.9898 80.5279 20.3717C80.5683 20.4657 80.1807 20.4607 80.3634 20.7084C80.2723 20.6252 80.2036 20.5396 80.1214 20.4553C80.0425 20.4921 79.9628 20.5303 79.884 20.5697C79.9831 20.6365 80.0845 20.7013 80.1824 20.7706C79.9955 20.8219 80.1148 21.1093 80.0242 21.2017C79.9716 21.2547 79.7774 21.0798 79.7923 21.1508C79.7954 21.1647 79.9401 21.2666 79.935 21.2954C79.8914 21.5288 79.6898 21.4822 79.5336 21.6295C79.46 21.6994 79.669 21.9567 79.4164 21.9473C79.3936 21.9449 79.0776 21.8985 79.3682 22.1991C79.2463 22.149 79.1765 22.1314 79.0748 22.0882C79.4848 22.5686 79.0157 22.197 78.7677 22.3264C78.6379 22.3926 78.5178 22.8106 78.5139 22.9586C78.5108 23.0478 78.7221 23.1583 78.724 23.1751C78.7339 23.2739 78.529 23.1671 78.527 23.2541C78.525 23.3418 78.7163 23.5434 78.6612 23.6024C78.6187 23.6479 78.3801 23.4812 78.4319 23.6053C78.4444 23.6313 78.6861 23.6881 78.5603 23.7316C78.5408 23.7377 78.2379 23.7653 78.1726 23.7721C78.0649 23.6363 77.9858 23.3339 77.971 23.2244C77.5881 21.2769 80.0251 18.4396 81.7024 17.7077C81.8525 17.6278 82.076 17.7869 82.1791 17.7517C82.2828 17.7165 82.0887 17.5636 82.1837 17.5307C82.2797 17.4985 82.4214 17.6052 82.5079 17.5741C83.0936 17.3638 83.6924 17.2058 84.2682 17.0434C84.417 17.0013 84.4742 16.7842 84.6109 16.7396C84.664 16.7226 84.739 16.9514 84.7753 16.938C85.1651 16.7949 85.4868 16.4707 85.9098 16.4112C86.0853 16.387 86.3079 16.5526 86.4784 16.5444C86.6191 16.5378 86.7445 16.38 86.8717 16.3611C86.9404 16.3503 86.998 16.5278 87.0241 16.54C87.1148 16.5779 87.0605 16.3585 87.1049 16.3535C87.2282 16.3413 87.3136 16.6051 87.4238 16.5748C87.4674 16.5628 87.448 16.3913 87.5114 16.3596C87.5919 16.32 87.5723 16.4807 87.6311 16.4828C87.6347 16.4833 87.6155 16.3609 87.6466 16.354C87.8461 16.3089 88.0984 16.2034 88.2963 16.2109C88.7081 16.225 89.0974 16.4812 89.4595 16.5617C89.5515 16.5816 89.5427 16.4196 89.5735 16.4148C89.7226 16.3934 89.7517 16.5901 89.9091 16.5406C89.935 16.5323 90.0668 16.3256 90.1562 16.3961C90.2042 16.4341 90.2414 16.5805 90.2798 16.6197C90.3182 16.6589 90.3592 16.4586 90.4125 16.4676C90.5093 16.4841 90.4563 16.6179 90.5975 16.6188C90.6535 16.6192 90.8787 16.4664 91.0196 16.5137C91.2487 16.5896 91.4913 16.8345 91.7541 16.9162C91.8443 16.9446 92.0254 16.7806 92.1698 16.8262ZM99.126 25.8826C98.6124 26.1011 98.8578 26.2102 98.9338 26.4033C98.936 26.412 98.7893 26.3994 98.8242 26.4472C98.8419 26.4699 99.0751 26.5318 98.9914 26.6281C98.9765 26.6481 98.4909 26.9204 99.032 26.7822C99.231 26.474 99.0588 26.1969 99.126 25.8826ZM95.5469 19.8289C95.1911 19.5853 94.7881 19.494 94.423 19.3214C94.5928 19.5567 94.7567 19.7905 94.8986 20.0351C95.1581 19.9495 94.9673 20.0711 94.9984 20.1879C95.0223 20.2802 95.2833 19.9947 95.3365 20.0951C95.3639 20.1481 95.2751 20.4243 95.4334 20.4156C95.4398 20.4145 95.5809 20.272 95.6497 20.325C95.8034 20.4429 96.0912 20.5783 96.2128 20.7678C96.2479 20.8233 96.0867 20.9593 96.1186 21.0312C96.142 21.0831 96.3282 20.9979 96.3543 21.0913C96.3863 21.21 96.1656 21.4674 96.5661 21.2181C96.4443 21.3316 96.3195 21.4352 96.2013 21.5464C96.92 21.2076 97.2485 21.7507 97.3657 22.0555C97.4711 22.3134 97.0929 22.8167 97.782 22.3152C97.6279 22.0636 97.4235 21.9166 97.26 21.6534C97.2434 21.6256 97.1891 21.4246 97.1579 21.3631C97.1409 21.3285 97.2495 21.2404 97.2157 21.2005C97.2074 21.1921 97.027 21.2581 97.0158 21.2382C96.9808 21.1685 97.0434 20.807 97.0142 20.7868C96.9357 20.7336 96.795 20.9044 96.7397 20.9015C96.556 20.8923 96.7891 20.6615 96.6221 20.6376C96.5909 20.6336 96.3322 20.7729 96.2947 20.6802C96.28 20.6418 96.3396 20.4922 96.3136 20.4759C96.1722 20.3868 95.9091 20.4041 95.8256 20.2826C95.7565 20.1823 95.9282 20.0412 95.9005 19.9758C95.8714 19.9108 95.6437 20.0503 95.6018 20.0338C95.5351 20.0063 95.565 19.8417 95.5469 19.8289Z" fill="#EEF0E0"/>
</svg>
