<svg width="60" height="25" viewBox="0 0 60 25" fill="none" xmlns="http://www.w3.org/2000/svg">
<rect width="59.4937" height="25" rx="12.5" fill="white"/>
<path d="M11.9586 11.2298H13.0623V15.9861H11.9586V15.488C11.5061 15.9112 11.0194 16.1228 10.4985 16.1228C9.8409 16.1228 9.29723 15.8852 8.8675 15.4099C8.44102 14.9248 8.22778 14.3193 8.22778 13.5933C8.22778 12.8803 8.44102 12.2862 8.8675 11.8109C9.29397 11.3356 9.82788 11.0979 10.4692 11.0979C11.0227 11.0979 11.5191 11.3258 11.9586 11.7816V11.2298ZM9.35094 13.5933C9.35094 14.0491 9.47303 14.4202 9.71719 14.7067C9.96787 14.9964 10.2837 15.1413 10.6646 15.1413C11.0715 15.1413 11.4003 15.0013 11.651 14.7213C11.9017 14.4316 12.027 14.0637 12.027 13.6177C12.027 13.1717 11.9017 12.8038 11.651 12.5141C11.4003 12.2308 11.0747 12.0892 10.6743 12.0892C10.2967 12.0892 9.98089 12.2325 9.72696 12.519C9.47628 12.8087 9.35094 13.1668 9.35094 13.5933Z" fill="#189871"/>
<path d="M15.9239 13.4126L14.2147 11.2298H15.5234L16.5831 12.6166L17.6623 11.2298H19.0101L17.2521 13.4126L19.2885 15.9861H17.9797L16.5831 14.2086L15.1523 15.9861H13.8094L15.9239 13.4126Z" fill="#189871"/>
<path d="M23.366 11.2298H24.4697V15.9861H23.366V15.488C22.9135 15.9112 22.4268 16.1228 21.9059 16.1228C21.2483 16.1228 20.7046 15.8852 20.2749 15.4099C19.8484 14.9248 19.6352 14.3193 19.6352 13.5933C19.6352 12.8803 19.8484 12.2862 20.2749 11.8109C20.7014 11.3356 21.2353 11.0979 21.8766 11.0979C22.4301 11.0979 22.9265 11.3258 23.366 11.7816V11.2298ZM20.7583 13.5933C20.7583 14.0491 20.8804 14.4202 21.1246 14.7067C21.3753 14.9964 21.6911 15.1413 22.0719 15.1413C22.4789 15.1413 22.8077 15.0013 23.0584 14.7213C23.3091 14.4316 23.4344 14.0637 23.4344 13.6177C23.4344 13.1717 23.3091 12.8038 23.0584 12.5141C22.8077 12.2308 22.4821 12.0892 22.0817 12.0892C21.7041 12.0892 21.3883 12.2325 21.1344 12.519C20.8837 12.8087 20.7583 13.1668 20.7583 13.5933Z" fill="#189871"/>
<path d="M25.8565 11.2298H26.9553V11.6693C27.1669 11.4479 27.3475 11.2981 27.4973 11.22C27.6568 11.1386 27.857 11.0979 28.0979 11.0979C28.6351 11.0979 29.06 11.3323 29.3725 11.8011C29.7176 11.3323 30.1847 11.0979 30.774 11.0979C31.8451 11.0979 32.3806 11.7474 32.3806 13.0464V15.9861H31.277V13.3442C31.277 12.8885 31.2216 12.5662 31.1109 12.3773C30.997 12.1853 30.8098 12.0892 30.5494 12.0892C30.2466 12.0892 30.0252 12.2032 29.8852 12.4311C29.7485 12.6589 29.6801 13.0252 29.6801 13.5298V15.9861H28.5765V13.3589C28.5765 12.5124 28.3323 12.0892 27.844 12.0892C27.5347 12.0892 27.3085 12.2048 27.1652 12.4359C27.0252 12.6671 26.9553 13.0317 26.9553 13.5298V15.9861H25.8565V11.2298Z" fill="#189871"/>
<path d="M37.2737 11.2298H38.3773V15.9861H37.2737V15.488C36.8212 15.9112 36.3345 16.1228 35.8136 16.1228C35.156 16.1228 34.6123 15.8852 34.1825 15.4099C33.7561 14.9248 33.5428 14.3193 33.5428 13.5933C33.5428 12.8803 33.7561 12.2862 34.1825 11.8109C34.609 11.3356 35.1429 11.0979 35.7843 11.0979C36.3377 11.0979 36.8342 11.3258 37.2737 11.7816V11.2298ZM34.666 13.5933C34.666 14.0491 34.7881 14.4202 35.0322 14.7067C35.2829 14.9964 35.5987 15.1413 35.9796 15.1413C36.3865 15.1413 36.7154 15.0013 36.966 14.7213C37.2167 14.4316 37.342 14.0637 37.342 13.6177C37.342 13.1717 37.2167 12.8038 36.966 12.5141C36.7154 12.2308 36.3898 12.0892 35.9894 12.0892C35.6117 12.0892 35.2959 12.2325 35.042 12.519C34.7913 12.8087 34.666 13.1668 34.666 13.5933Z" fill="#189871"/>
<path d="M40.8971 12.2553V15.9861H39.7983V12.2553H39.3295V11.2298H39.7983V9.48642H40.8971V11.2298H41.7517V12.2553H40.8971Z" fill="#189871"/>
<path d="M43.6317 12.2553V15.9861H42.533V12.2553H42.0642V11.2298H42.533V9.48642H43.6317V11.2298H44.4863V12.2553H43.6317Z" fill="#189871"/>
<path d="M46.3322 11.2298V15.9861H45.2335V11.2298H46.3322ZM45.0674 9.25202C45.0674 9.05995 45.1374 8.89392 45.2774 8.75393C45.4174 8.61394 45.5851 8.54395 45.7804 8.54395C45.979 8.54395 46.1483 8.61394 46.2883 8.75393C46.4282 8.89066 46.4982 9.05832 46.4982 9.25691C46.4982 9.4555 46.4282 9.62478 46.2883 9.76477C46.1515 9.90476 45.9839 9.97475 45.7853 9.97475C45.5867 9.97475 45.4174 9.90476 45.2774 9.76477C45.1374 9.62478 45.0674 9.45387 45.0674 9.25202Z" fill="#189871"/>
<path d="M51.4255 11.4349V12.895C51.1748 12.5889 50.9502 12.379 50.7516 12.265C50.5563 12.1478 50.3267 12.0892 50.063 12.0892C49.6496 12.0892 49.3061 12.2341 49.0327 12.5238C48.7592 12.8136 48.6225 13.1766 48.6225 13.6128C48.6225 14.0588 48.7543 14.4251 49.018 14.7116C49.285 14.998 49.6252 15.1413 50.0386 15.1413C50.3023 15.1413 50.5351 15.0843 50.7369 14.9704C50.9323 14.8597 51.1618 14.6448 51.4255 14.3258V15.7761C50.9795 16.0073 50.5335 16.1228 50.0875 16.1228C49.3517 16.1228 48.7364 15.8852 48.2416 15.4099C47.7467 14.9313 47.4993 14.3372 47.4993 13.6275C47.4993 12.9178 47.75 12.3187 48.2513 11.8304C48.7527 11.3421 49.368 11.0979 50.0972 11.0979C50.566 11.0979 51.0088 11.2102 51.4255 11.4349Z" fill="#189871"/>
</svg>
