<svg width="80" height="104" viewBox="0 0 80 104" fill="none" xmlns="http://www.w3.org/2000/svg">
<path d="M23.1081 101.813C20.6652 101.813 13.3533 64.2706 14.9455 54.2324L18.8424 54.9686H22.9906C16.9568 72.9703 25.4645 101.813 23.1081 101.813Z" fill="#1F2126"/>
<path d="M25.2945 54.3054L24.476 56.3407C23.3643 59.928 22.7663 64.0101 22.4777 66.7289C22.431 67.1614 22.1585 67.4271 22.1182 67.711C22.0786 67.9944 22.3256 67.7676 22.2911 68.0243C22.2562 68.2809 22.0825 68.4613 22.0567 68.7036C21.8829 70.3296 21.7648 71.9868 21.7522 73.6214C21.7492 74.0459 21.9477 74.3777 21.9603 74.7637C21.965 74.9136 21.7214 74.9264 21.7273 75.0331C21.788 76.182 22.0803 77.2364 22.1303 78.3743C22.1512 78.8515 21.9854 79.3797 22.0048 79.8498C22.02 80.2346 22.1957 80.631 22.2306 80.9783C22.25 81.1672 22.0747 81.2834 22.0664 81.3531C22.0406 81.5954 22.2587 81.4918 22.2703 81.613C22.3018 81.9466 22.0457 82.1385 22.0996 82.4546C22.1209 82.5781 22.2929 82.5451 22.3388 82.7223C22.3968 82.9466 22.2277 82.8786 22.2392 83.0416C22.2395 83.0515 22.3605 83.0072 22.3747 83.0927C22.4663 83.6394 22.6431 84.3249 22.6986 84.8599C22.8121 85.9564 22.7153 87.0769 22.8113 88.1247C22.8357 88.3867 22.9873 88.2962 23.0066 88.3775C23.0986 88.7717 22.9234 88.9227 23.0536 89.3424C23.075 89.4113 23.3382 89.663 23.3201 89.9362C23.3104 90.0839 23.195 90.2651 23.1801 90.3904C23.1652 90.5157 23.3728 90.5066 23.3941 90.6507C23.435 90.9239 23.2815 90.8659 23.3643 91.2496C23.3977 91.4065 23.6675 91.8855 23.7128 92.2851C23.7894 92.9569 23.7319 93.7695 23.8469 94.5488C23.8845 94.8077 24.146 95.1145 24.2105 95.5337C24.2866 96.0226 24.377 96.9846 24.44 97.478C24.4762 97.7566 24.2571 97.8016 24.2523 97.8356C24.2178 98.0494 24.454 97.9356 24.4618 98.0735C24.4725 98.2644 24.31 98.4447 24.3187 98.6217C24.3246 98.7374 24.5078 98.7351 24.513 98.7596C24.6671 99.6265 24.7493 100.416 24.7349 101.433C24.7309 101.556 24.7246 101.67 24.7121 101.795C24.6954 101.952 24.6712 102.106 24.6308 102.265C24.599 102.391 24.5179 102.671 24.3294 102.93C24.2149 103.151 23.6065 103.611 23.083 103.573C22.4236 103.574 22.001 103.175 21.8787 103.068C21.7873 102.984 21.7072 102.898 21.6322 102.81C21.5948 102.766 21.5584 102.721 21.5233 102.675C21.4923 102.635 21.4718 102.607 21.4466 102.573C21.2552 102.313 21.0662 101.982 20.9423 101.751C20.6465 101.191 20.436 100.714 20.2143 100.183C19.7867 99.1495 19.4259 98.1308 19.0892 97.1059C18.4158 95.0428 17.8575 92.9799 17.4044 90.9045C17.321 90.5221 17.5401 90.4446 17.4276 90.1282C17.3153 89.8088 16.7529 89.5956 17.2271 89.2011C17.1166 89.2163 17.0393 89.2341 16.9385 89.2471C16.9292 88.5111 16.6194 87.8743 16.4497 87.196C16.3235 86.6911 16.2469 86.2526 16.1604 85.7876C16.0847 85.3755 16.2824 85.3727 15.9596 85.0654C15.747 83.2747 15.3575 81.4885 15.2942 79.69C14.8104 79.3503 14.9955 78.909 14.9548 78.3293C14.9499 78.2577 14.8141 78.3584 14.7899 78.1475C14.7592 77.8826 14.963 77.7087 14.8742 77.2698C14.8502 77.1542 14.4495 76.3283 14.5261 75.9855C14.6022 75.6437 14.6025 75.1675 14.6734 74.8165C14.583 74.8787 14.4987 74.9528 14.4107 75.0203C14.3669 74.8567 14.3243 74.694 14.2807 74.5289C14.3946 74.4867 14.5088 74.4444 14.6236 74.4031C14.4961 74.3231 14.3699 74.2427 14.241 74.1618C14.8132 73.8603 14.6492 74.1059 14.4235 73.6603C14.3111 73.437 14.3883 73.2358 14.2907 73.0049C14.2551 72.9218 14.0686 72.8921 14.0315 72.8001C13.9416 72.5744 14.2074 72.6765 14.1846 72.5311C14.1607 72.3843 13.8596 72.2105 13.9416 71.9309C14.4623 72.1379 14.1912 71.369 13.8123 71.3824C13.7984 71.2886 13.8028 71.2079 13.7778 71.1059C14.7357 71.0738 13.9978 70.6784 13.8414 70.4959C13.6852 70.3149 13.9399 70.2903 13.924 70.2454C13.8785 70.1161 13.7862 70.2262 13.7702 70.1336C13.6659 69.5159 13.7492 68.937 13.6883 68.32C13.6795 68.2318 13.5452 68.3266 13.5469 68.2223C13.5486 68.118 13.6797 68.0035 13.652 67.854C13.6446 67.8138 13.5167 67.8152 13.5092 67.7522C13.3618 66.4483 13.3381 65.1756 13.2413 63.8128C13.2328 63.6916 12.9994 63.6134 12.989 63.3802C12.9789 63.1508 13.1543 62.7571 13.1507 62.464C13.1498 62.3854 12.9607 62.3758 12.9589 62.272C12.9533 61.915 13.0899 61.6261 13.0954 61.2389C13.1059 60.5995 12.969 59.9848 13.0702 59.3249C13.0892 59.2043 13.2464 59.2209 13.289 59.0495C13.3632 58.7559 13.1351 58.8678 13.1041 58.8085C13.0045 58.615 13.3091 58.5601 13.2323 58.3577C13.2205 58.3272 13.04 58.369 13.037 58.3418C13.0106 57.9191 13.4337 57.9072 13.2202 57.4756C13.4771 57.1112 13.5372 57.736 13.6661 57.8065C13.9763 57.9713 14.3546 57.5618 14.4833 57.3387C14.5938 57.1379 14.3997 57.1213 14.4038 57.0369C14.4254 56.5779 14.4448 55.95 14.5849 55.6151C14.6664 55.425 14.7 55.7907 14.7771 55.6975C14.8533 55.606 14.7168 55.5227 14.8901 55.4471C14.9912 55.4013 15.2022 55.3473 15.4034 55.3237C15.3796 55.3219 15.3564 55.319 15.3343 55.3129C15.1529 55.2629 15.3492 55.0082 15.0588 55.0584C14.9986 55.0699 15.1165 55.3353 14.8459 55.1923C14.8028 55.1696 14.3904 54.833 14.3063 54.761C14.5753 54.6539 15.3119 54.5811 15.5866 54.5663C16.4813 54.5178 17.5341 54.5347 18.6858 54.6008L18.4663 54.5819C19.8447 54.4235 21.3769 54.3105 22.9561 54.2324L25.2945 54.3054ZM21.9858 57.0393C21.8075 57.5669 21.6439 58.1086 21.5068 58.6656C20.6974 61.9443 20.9964 65.5318 20.7549 68.8469C20.7321 69.1589 20.4993 69.2768 20.5379 69.5431C20.5445 69.5881 20.7243 69.4783 20.7377 69.6161C20.9147 71.5049 20.5316 73.5155 20.7162 75.3701C20.7662 75.8685 20.9663 75.9384 21.038 76.3728C20.9416 76.3004 20.8422 76.2546 20.7456 76.1917C20.5517 78.2137 20.8376 80.2201 20.9993 82.2444C21.0063 82.3367 20.8167 82.367 20.8192 82.4644C20.8241 82.6594 21.0536 82.8233 21.0785 82.9903C21.1109 83.208 20.963 83.2614 20.9948 83.4614C21.0106 83.5588 21.1534 83.5144 21.1521 83.7294C21.152 83.7474 21.0001 83.7754 21.0356 83.9143C21.1334 84.2987 21.3561 85.0865 21.4335 85.3993C21.5315 85.7976 21.344 86.1629 21.3488 86.3206C21.3623 86.7479 21.5967 86.7099 21.6429 87.0631C21.9749 89.5878 22.0753 92.039 22.4705 94.6262C22.4953 94.7887 22.8455 95.3375 22.8814 95.6516C22.8928 95.7565 22.9004 96.2857 22.9053 96.3603C22.9297 96.681 22.8128 96.9944 22.8037 97.1705C22.7856 97.5115 23.0847 97.8641 23.1345 98.0532C23.2219 98.3757 23.2576 98.9527 23.2665 99.0996C23.2868 99.4323 22.9678 99.3536 23.0622 99.5727C23.0902 99.639 23.3189 99.5356 23.3429 99.7995C23.361 100.016 23.1889 100.111 23.1663 100.248C23.1435 100.373 23.4331 100.638 23.4286 100.728C23.4156 100.919 23.376 101.07 23.3291 101.216C23.3301 101.217 23.3312 101.218 23.3322 101.219C23.3511 101.238 23.369 101.254 23.3861 101.27C23.366 101.261 23.3439 101.253 23.3197 101.245C23.2604 101.425 23.1908 101.598 23.1428 101.828C23.1301 101.876 23.1192 101.933 23.0881 102.007C23.0753 102.037 23.0636 102.055 23.0622 102.06C23.0583 102.064 23.0868 102.056 23.083 102.063C23.0982 102.068 23.0673 102.076 23.001 102.031C22.9555 102.003 22.8959 101.954 22.8299 101.884C22.7575 101.806 22.7066 101.745 22.653 101.677C22.6126 101.626 22.5722 101.57 22.5316 101.513C22.5269 101.522 22.5219 101.53 22.5185 101.539C22.4709 101.653 22.4776 101.757 22.4508 101.714C22.4393 101.728 22.3093 101.539 22.4763 101.434C22.2789 101.143 22.151 100.931 22.1006 100.879C21.5162 100.297 22.1703 101.414 22.188 101.431C22.337 101.808 22.2076 101.817 22.597 101.993C22.5417 102.123 22.5614 102.247 22.6288 102.345C22.6662 102.42 22.8862 102.58 23.083 102.55C23.521 102.484 23.5012 102.06 23.5458 101.918C23.5681 101.82 23.6017 101.701 23.6564 101.63C23.7111 101.561 23.7931 101.501 23.9164 101.46C23.4174 101.095 23.6725 100.9 23.7618 100.542C23.8803 100.078 23.5996 100.443 23.5762 100.126C23.5686 100.014 23.7661 99.5767 23.7162 99.4163C23.6646 99.2347 23.4772 99.1753 23.4376 98.9157C23.364 98.4402 23.4059 98.1088 23.5659 97.6744C23.4611 97.6125 23.3574 97.5596 23.2537 97.5071C23.3211 97.2416 23.3855 96.9659 23.448 96.6831C23.3714 96.7374 23.2941 96.7919 23.2174 96.8457C23.1943 96.7695 23.1717 96.6924 23.149 96.6148C23.234 96.3248 23.3173 96.0926 23.4065 95.8081C22.8226 95.1633 23.2638 95.2896 23.2689 94.901C23.2726 94.5049 22.961 94.314 22.9122 94.0027C22.8456 93.5778 22.7855 93.417 22.7418 92.9948C22.7167 92.7528 22.9207 92.2974 22.5493 92.6995C22.4019 91.9552 22.128 90.9245 22.2053 90.2475C22.2269 90.0434 22.3982 90.2877 22.41 90.2519C22.4641 90.074 22.2274 89.962 22.2333 89.7831C22.2429 89.4839 22.3316 88.8971 22.3405 88.6695C22.3526 88.3387 22.0021 87.8569 21.9744 87.8057C21.8203 87.5213 22.043 87.4147 22.0145 87.3237C21.8508 86.8042 21.7378 86.695 22.2074 86.4656C21.9771 86.3549 21.5445 85.8022 21.8856 85.6237C21.5622 85.6584 21.5578 85.1722 21.4418 84.8822C21.5287 84.8162 21.615 84.7492 21.7027 84.6832C21.0487 84.1149 21.3335 82.84 21.3218 82.0064C21.3212 81.9859 21.0748 81.9723 21.1175 81.8442C21.1213 81.836 21.2317 81.8384 21.2378 81.7546C21.2559 81.4796 21.4341 80.413 21.4272 80.2912C21.3993 79.8522 21.212 79.7896 21.1735 79.5227C21.1231 79.171 21.2832 79.1079 21.2351 78.7724C21.213 78.6158 20.9869 78.4837 21.0007 78.2354C21.0087 78.0879 21.177 78.0627 21.1832 77.9461C21.2057 77.5309 21.081 77.2325 21.2817 76.8534C20.737 76.7855 21.125 76.5878 21.1566 76.4046C21.2853 75.6634 21.0234 74.7499 21.0574 74.1162C21.1641 72.1363 21.5106 70.3941 21.6789 68.4927C21.7069 68.1831 21.4402 68.0936 21.477 67.7684C21.4941 67.6224 21.6995 67.4839 21.719 67.2463C21.7352 67.0552 21.6562 66.7745 21.6768 66.5335C21.6822 66.4697 21.8662 66.4785 21.8756 66.3851C21.9471 65.6759 21.8879 64.9804 21.8891 64.2515C21.8893 63.9824 22.1537 63.8506 21.7266 63.8412C21.8435 63.7533 21.9472 63.6673 22.0622 63.5867C21.8482 63.1897 22.168 62.9311 22.1811 62.4319C22.181 62.3779 21.9551 61.9601 22.2019 61.7877C22.0556 61.7471 21.9233 61.7577 21.7895 61.7283C21.7701 61.5097 22.0023 61.2256 22.0481 61.0878C22.0933 60.9509 21.9196 60.8196 21.9264 60.7769C21.9547 60.6151 22.2003 60.7032 22.2071 60.6917C22.6075 59.9996 22.4575 60.0562 22.1846 59.5247C22.1136 59.3925 22.5828 58.6958 22.3301 58.4692C22.4527 58.4936 22.5475 58.5634 22.6595 58.6051C22.7514 58.3876 22.8463 58.1704 22.9423 57.9562C22.8132 57.9713 22.6813 57.9964 22.5527 58.0082C22.7188 57.7005 22.6892 57.3719 22.7083 57.0727C22.4756 57.0619 22.2333 57.0505 21.9858 57.0393ZM23.3861 101.27C23.4522 101.297 23.4966 101.327 23.5188 101.346C23.5648 101.386 23.5469 101.388 23.5316 101.383C23.5129 101.377 23.4795 101.353 23.439 101.316C23.4217 101.301 23.4043 101.286 23.3861 101.27ZM22.6364 101.378C22.6599 101.374 22.6856 101.371 22.7135 101.369C22.7085 101.354 22.7051 101.339 22.7014 101.325C22.6777 101.342 22.6561 101.36 22.6364 101.378ZM18.2707 88.8442C18.1439 88.0221 18.5788 87.2396 17.7729 87.5769C17.9552 88.4184 18.2052 89.1221 18.3892 90.0119C18.4075 90.1022 18.4671 90.6944 18.5005 90.8906C18.5195 91.0022 18.3822 91.0383 18.42 91.1867C18.4291 91.2193 18.6532 91.3554 18.6644 91.4213C18.7012 91.6413 18.5957 92.3884 18.6281 92.4808C18.7183 92.7362 18.9072 92.5835 18.9748 92.6859C19.1996 93.0282 18.8885 93.149 19.0882 93.4859C19.124 93.5461 19.4646 93.7053 19.5023 93.9912C19.5172 94.1079 19.4246 94.3353 19.4546 94.4184C19.6153 94.8627 19.9547 95.3433 20.0456 95.7757C20.1194 96.1278 19.8779 96.0944 19.9018 96.2826C19.9247 96.4635 20.2435 96.6277 20.2966 96.7507C20.3812 96.95 20.3155 97.2341 20.3367 97.2948C20.7656 98.5147 21.2798 99.525 21.8306 100.645C21.5956 99.8561 21.3868 98.9929 21.2375 98.2148C20.8681 97.8338 21.1487 97.9932 21.1186 97.6673C21.0979 97.4282 20.7562 97.4762 20.6689 97.2195L20.655 97.1647C20.6284 97.0022 20.7799 96.5736 20.5686 96.2586C20.561 96.2478 20.3573 96.2755 20.2772 96.0278C20.0959 95.4668 19.746 94.6022 19.6149 93.9435C19.5756 93.747 19.7926 93.7339 19.757 93.4967C19.7292 93.3172 19.4917 93.1901 19.4677 92.9222C19.4393 92.5881 19.7293 92.3518 19.2143 92.2381C19.3731 92.1799 19.5349 92.1507 19.6886 92.0901C18.7677 91.6008 18.4157 89.8112 18.2707 88.8442ZM22.3944 99.3885C22.4114 99.367 22.4303 99.3434 22.4521 99.3183C22.4065 99.2964 22.3721 99.2736 22.3457 99.2507C22.3618 99.2967 22.3782 99.3426 22.3944 99.3885ZM16.9461 55.1652C16.7013 55.1625 16.6633 55.3958 16.6191 55.3977C16.3559 55.4072 16.3965 55.1817 16.1552 55.1781C15.9846 55.1755 15.7632 55.2751 15.5645 55.3116C15.6471 55.3101 15.7214 55.3167 15.7771 55.3352C15.823 55.623 15.8497 55.9384 15.8511 56.2731C15.8558 56.5718 15.8326 56.8919 15.775 57.239C15.7489 57.4003 15.6048 57.3687 15.5787 57.431C15.5307 57.5402 15.6819 57.7362 15.6813 57.7632C15.6789 57.931 15.4259 57.8601 15.4155 57.8825C15.3066 58.1385 15.5981 58.069 15.6229 58.3205C15.6559 58.6646 15.6056 59.0358 15.5987 59.4378C15.5957 59.5769 15.3999 59.517 15.4238 59.8224C15.4401 60.0397 15.6834 60.6523 15.4629 60.9705C15.3738 60.9763 15.2735 60.9423 15.1808 60.9303C15.5734 61.3522 15.5644 61.5012 15.5116 62.1075C15.5036 62.2042 15.6616 62.2854 15.617 62.4596C15.5726 62.6345 15.3378 62.6567 15.3668 63.0068C15.3779 63.1309 15.5487 63.1862 15.5704 63.3691C15.6305 63.8808 15.5198 64.9336 15.5559 65.3537C15.6278 66.2085 15.9628 66.6547 15.9523 67.4163C15.9519 67.4754 15.7563 67.3675 15.7653 67.4751C15.7748 67.5837 16.0275 67.6695 16.0363 67.6954C16.1319 67.9763 15.8873 68.6272 15.9461 68.7776C16.0903 69.1516 16.1465 68.758 16.2613 69.2883C16.371 69.7942 16.157 70.5472 16.1677 71.0586C16.1806 71.6562 16.6601 71.7837 16.2551 72.2966C16.5128 73.8407 16.7829 75.4053 17.075 76.9534C16.9807 76.9645 16.8861 76.9751 16.7916 76.9852C16.8775 77.0974 16.9637 77.2094 17.0491 77.3215C16.9763 77.3146 16.9035 77.3086 16.8313 77.3016C17.2008 77.8341 17.4307 78.3235 17.4798 79.0097C17.4808 79.023 17.2892 79.021 17.2852 79.0326C17.2778 79.1907 17.4523 79.3353 17.4432 79.4744C17.4216 79.8104 17.1185 80.429 17.5697 80.0996C17.6082 80.8702 17.9463 81.7199 17.9921 82.4502C18.0125 82.7685 17.7377 82.9174 17.7505 83.069C17.7635 83.2203 18.0005 83.0964 18.0208 83.1471C18.1404 83.452 18.2358 83.9692 17.9651 84.0789C18.0907 84.1196 18.2185 84.1635 18.345 84.2046C18.024 84.2276 18.3579 85.1826 18.4048 85.4365C18.4133 85.4832 18.278 85.5177 18.2869 85.5524C18.3882 85.9401 18.622 85.9854 18.7667 86.3084C18.8177 86.4219 18.5365 86.2884 18.7069 86.5711C18.7219 86.5955 18.9352 86.5371 19.0135 86.8985C19.1373 87.4715 19.4728 88.5535 19.5265 89.2562C19.5311 89.3135 19.2562 89.1977 19.3706 89.4387C19.4116 89.5258 19.5682 89.4448 19.6219 89.6652C19.8386 90.5478 19.8673 91.4888 20.2572 92.352C20.0614 92.3659 19.77 92.1028 20.009 92.5467C20.0479 92.617 20.2008 92.5196 20.2157 92.5518C20.3352 92.815 20.2731 93.0646 20.4183 93.3541C20.4614 93.4387 20.5982 93.4278 20.6588 93.5305C20.7486 93.6815 20.5812 93.8013 20.711 93.9672C20.9148 94.2248 21.1036 94.2225 20.8538 94.6647C21.2881 96.1364 21.7762 97.6198 22.272 99.0401C22.2804 98.9426 22.3119 98.8236 22.2966 98.6673C22.293 98.6322 22.1546 98.4401 22.1538 98.2577C22.1533 98.1264 22.3303 98.0658 22.2738 97.8569C22.2634 97.8101 21.9824 97.4308 21.9419 97.2931C21.8799 97.0862 22.0615 96.7025 22.0581 96.6574C22.0127 96.0573 21.7483 95.8592 22.0595 95.36C21.821 95.2987 21.6382 94.9761 21.6156 94.68C21.587 94.305 21.9336 93.4988 21.4342 93.4727C21.5858 93.0172 21.4596 93.0841 21.3775 92.5687C21.3062 92.1276 21.306 90.8501 21.2281 90.4989C21.1481 90.1318 20.9043 90.3497 20.8469 90.2066C20.7519 89.9714 20.9702 90.0754 20.9433 89.9085C20.8661 89.4298 20.7718 89.0348 20.6229 88.5968C20.7596 88.5542 20.8966 88.5095 21.0332 88.466C20.9833 88.4489 20.9334 88.4319 20.8835 88.4147C20.8716 88.3176 20.8539 88.2089 20.8458 88.1179C20.335 88.9604 20.7902 87.3724 20.7508 86.934C20.715 86.5602 20.3417 85.9506 20.2295 85.5531C20.2019 85.455 20.3617 85.5059 20.3557 85.4858C20.2832 85.2495 20.1752 85.2247 20.1507 84.8957C20.1382 84.7215 20.3076 84.5228 20.2918 84.3526C20.1766 83.1191 19.8625 81.9399 19.7332 80.7042C19.711 80.4927 19.928 80.2925 19.9184 80.1172C19.9047 79.8658 19.7018 79.7215 19.6803 79.4845C19.6589 79.2482 19.8614 78.8905 19.8154 78.7318C19.7699 78.573 19.5683 78.8637 19.608 78.5642C19.6265 78.4268 19.8075 78.6554 19.8009 78.4875C19.7805 77.9698 19.5318 77.2464 19.7007 76.6794C19.6528 76.7064 19.6103 76.7422 19.5648 76.7747C19.553 76.1808 19.6482 75.6562 19.6436 75.0439C19.6423 74.8301 19.4858 74.4482 19.4812 74.2382C19.4764 74.028 19.6311 73.9288 19.6319 73.7606C19.6325 73.6916 19.4927 73.7213 19.4947 73.6748C19.5209 73.0929 19.7672 72.7714 19.737 72.1651C19.6285 69.9413 19.6279 67.635 19.7629 65.3553C19.7683 65.264 19.5922 65.1846 19.5793 65.0485C19.5596 64.8389 19.7221 64.8457 19.7307 64.819C19.7859 64.6449 19.6285 64.7011 19.6564 64.4594C19.7175 63.9248 19.9645 63.0928 20.037 62.5647C20.2023 61.3463 20.2598 60.3015 20.4715 59.1046C20.4864 59.0184 20.6834 59.1249 20.7221 58.9789C20.9582 58.1256 20.8974 57.7977 21.1262 57.0017C20.2536 56.9645 19.382 56.9313 18.6969 56.9183V56.9169C18.623 56.9766 18.5459 57.0249 18.4663 57.0629L18.2423 57.0437C17.7683 57.1764 17.2775 56.9813 16.8877 56.6584C17.3776 56.5896 17.8584 56.554 18.3329 56.5448L18.4663 56.5563C19.4349 56.3689 20.3974 56.2989 21.3699 56.2815C21.4434 56.0884 21.5267 55.874 21.6198 55.6458C21.4271 55.7176 21.2192 55.7984 20.9426 55.6651C20.9029 55.6454 20.4768 55.3628 20.2136 55.7675C20.1299 55.6399 20.056 55.5728 19.9934 55.4653C19.4607 56.0661 19.6079 55.4772 18.8873 55.3376C18.8007 55.3207 18.6665 55.3136 18.5064 55.3132C17.9864 55.2294 17.2444 55.1696 16.9461 55.1652ZM15.6271 74.101C15.6378 74.051 16.0617 73.3523 15.5344 73.619C15.4234 74.4953 15.6882 75.3722 15.7014 76.2745C16.1994 75.886 15.8983 75.4142 15.7591 74.8067V74.806C15.7526 74.7773 15.9157 74.8759 15.8631 74.7154C15.8374 74.6376 15.5685 74.3659 15.6271 74.101ZM21.9447 55.5728C21.9191 55.5714 21.8938 55.573 21.8687 55.5759L22.2962 56.169C22.2825 56.2057 22.2687 56.2424 22.2551 56.2792C22.2954 56.2795 22.3357 56.279 22.3761 56.2795L22.7491 56.7969C22.7546 56.7766 22.7607 56.7566 22.7677 56.7368C22.8445 56.5235 23.0876 56.631 23.0754 56.4887C23.0729 56.4607 22.8887 56.4463 22.9001 56.3691C22.9043 56.3413 22.9087 56.3144 22.9136 56.2883C22.9277 56.2886 22.942 56.289 22.9561 56.2893L22.9229 56.2433C22.9554 56.0878 23.0006 55.9602 23.0539 55.8445L23.1065 55.7134L22.9561 55.7087C22.6384 55.6838 22.3703 55.5958 21.9447 55.5728ZM22.9229 56.2433C22.9198 56.2581 22.9164 56.273 22.9136 56.2883C22.7338 56.2846 22.5547 56.2816 22.3761 56.2795L22.2962 56.169C22.3616 55.9943 22.4277 55.8209 22.4946 55.6492L22.9229 56.2433ZM18.5064 55.3132C18.5229 55.3159 18.5392 55.3183 18.5552 55.321L18.4663 55.3132C18.4799 55.3132 18.4932 55.3132 18.5064 55.3132Z" fill="#1F2126"/>
<path d="M57.3602 101.813C59.76 101.813 67.2218 64.2424 65.5969 54.2324L61.4277 55.2334L57.4508 54.833C63.6084 72.7843 55.27 101.813 57.3602 101.813Z" fill="#1F2126"/>
<path d="M56.1589 54.7979C57.2741 58.5021 57.8858 62.7201 58.1864 65.5269C58.2349 65.9723 58.508 66.2455 58.5494 66.5379C58.5903 66.8297 58.3426 66.5969 58.3783 66.8614C58.4143 67.1256 58.5888 67.3108 58.6157 67.5604C58.797 69.2348 58.9236 70.9422 58.9456 72.6261C58.951 73.0633 58.7547 73.4062 58.7444 73.804C58.7405 73.9585 58.984 73.9702 58.9788 74.0803C58.925 75.2641 58.6393 76.3522 58.5964 77.5248C58.5785 78.0165 58.7474 78.5595 58.731 79.0439C58.7182 79.4403 58.5455 79.8496 58.5129 80.2076C58.4946 80.4024 58.6707 80.5211 58.6792 80.5929C58.7063 80.842 58.4879 80.7367 58.477 80.8615C58.4475 81.2055 58.7045 81.4014 58.6526 81.7274C58.632 81.8546 58.46 81.8217 58.4152 82.0044C58.3586 82.2359 58.5272 82.1649 58.5167 82.333C58.5157 82.3428 58.3954 82.2983 58.3817 82.3861C58.2936 82.9501 58.1209 83.6568 58.0687 84.2085C57.962 85.3374 58.0651 86.4927 57.9748 87.5709C57.9518 87.841 57.7997 87.7488 57.7809 87.8325C57.691 88.2387 57.8668 88.3953 57.7391 88.8258C57.7181 88.8969 57.4561 89.1577 57.4755 89.4391C57.4858 89.5912 57.6019 89.7775 57.6173 89.9066C57.6325 90.0355 57.4254 90.027 57.4047 90.1756C57.3654 90.4539 57.5183 90.3957 57.4372 90.7909C57.4046 90.9519 57.1363 91.4502 57.0931 91.8574C57.0184 92.5519 57.0787 93.3831 56.9644 94.189C56.9266 94.4584 56.6672 94.7665 56.6023 95.201C56.5261 95.7076 56.4348 96.693 56.3697 97.2001C56.3338 97.4776 56.5507 97.5316 56.5561 97.5652C56.5893 97.7863 56.3544 97.6679 56.3456 97.8102C56.334 98.005 56.4937 98.2034 56.4853 98.3707C56.4788 98.4868 56.2945 98.4854 56.29 98.5102C56.1252 99.4127 56.0431 100.206 56.0139 101.214C56.012 101.478 56.0087 101.701 56.0584 102.055C56.0707 102.137 56.0859 102.219 56.1064 102.303C56.1347 102.418 56.1781 102.558 56.2462 102.701C56.2806 102.773 56.3223 102.848 56.3749 102.926C56.4012 102.964 56.4301 103.004 56.4626 103.043C56.4995 103.088 56.5578 103.151 56.6161 103.203C56.8487 103.424 57.2421 103.583 57.5793 103.576C58.2829 103.569 58.6756 103.139 58.7979 103.03C58.8866 102.942 58.9644 102.852 59.0371 102.76C59.0732 102.715 59.1094 102.666 59.142 102.621C59.1663 102.587 59.1903 102.553 59.2138 102.519C59.4001 102.248 59.5801 101.914 59.7018 101.675C59.9906 101.097 60.1952 100.609 60.4113 100.065C60.8302 99.001 61.183 97.9581 61.5139 96.9051C62.1751 94.7877 62.7249 92.6716 63.1712 90.5424C63.2537 90.1482 63.0344 90.0705 63.1467 89.7424C63.2583 89.4134 63.8192 89.1923 63.3447 88.7877C63.4553 88.8029 63.5325 88.8214 63.6333 88.8345C63.641 88.0773 63.9496 87.4193 64.1178 86.7209C64.243 86.2012 64.3189 85.7484 64.4046 85.2698C64.4796 84.8454 64.2825 84.8432 64.6044 84.5261C64.8144 82.6813 65.2012 80.8416 65.2629 78.9891C65.7456 78.6384 65.5605 78.1841 65.6007 77.587C65.6056 77.5134 65.7413 77.6167 65.7653 77.3995C65.7957 77.1267 65.5921 76.948 65.6804 76.4958C65.7043 76.3766 66.1035 75.5258 66.0269 75.1728C65.9507 74.8208 65.9502 74.3303 65.8792 73.9688C65.9695 74.0328 66.0539 74.109 66.1419 74.1785C66.1854 74.0099 66.2279 73.8419 66.2713 73.6721C66.1575 73.6288 66.0435 73.5857 65.9289 73.5434C66.0562 73.4608 66.1822 73.3776 66.311 73.2942C65.7394 72.9844 65.9032 73.2373 66.1284 72.7781C66.2406 72.548 66.1632 72.3406 66.2606 72.1027C66.2961 72.017 66.4824 71.9861 66.5194 71.8913C66.6091 71.6588 66.3438 71.7641 66.3665 71.6147C66.3904 71.4634 66.6908 71.2841 66.6088 70.9963C66.089 71.2101 66.3593 70.4179 66.7375 70.4313C66.7514 70.3346 66.7467 70.2514 66.7717 70.1463C65.8156 70.1144 66.552 69.7059 66.7082 69.5185C66.8641 69.3319 66.6096 69.3065 66.6257 69.2603C66.6711 69.1273 66.7633 69.2405 66.7793 69.145C66.8832 68.5089 66.8001 67.9121 66.8607 67.2775C66.8694 67.1866 67.0036 67.2839 67.0019 67.1765C67 67.0691 66.8689 66.9512 66.8966 66.7972C66.9039 66.7558 67.0316 66.7572 67.0391 66.6924C67.186 65.3498 67.2096 64.0392 67.3063 62.6349C67.3148 62.5099 67.5478 62.4292 67.5582 62.1889C67.5681 61.954 67.393 61.5473 67.3967 61.2456C67.3978 61.1647 67.5865 61.1548 67.5882 61.0478C67.5938 60.6795 67.4574 60.3838 67.4519 59.9844C67.4415 59.325 67.5784 58.6932 67.4774 58.0127C67.4584 57.8884 67.3015 57.9057 67.259 57.7292C67.1849 57.4265 67.4126 57.5418 67.4436 57.4807C67.5429 57.281 67.239 57.2259 67.3156 57.017C67.3274 56.9856 67.5083 57.0285 67.5109 57.0003C67.5372 56.565 67.1146 56.5525 67.3277 56.108C67.0713 55.7327 67.0115 56.3761 66.8828 56.4489C66.5731 56.6187 66.1951 56.1967 66.0666 55.9668C65.9561 55.7608 66.1502 55.7427 66.146 55.6558C66.1244 55.1825 66.1052 54.5365 65.9652 54.1912C65.8837 53.9956 65.8502 54.3723 65.7733 54.2763C65.6971 54.1819 65.8335 54.096 65.6604 54.018C65.5803 53.9806 65.4311 53.9379 65.2725 53.9094C65.3662 53.8234 65.2284 53.6278 65.4896 53.6602C65.5504 53.6688 65.446 53.9472 65.7091 53.7866C65.7506 53.7615 66.1463 53.3945 66.2268 53.3163C65.9522 53.2204 65.2119 53.1838 64.9364 53.183C64.068 53.1799 63.0547 53.2482 61.9495 53.3683C60.6758 53.0999 59.2748 52.8575 57.8302 52.6423L55.2526 52.4712L56.1589 54.7979ZM57.931 55.5732C58.1718 55.5852 58.4216 55.5978 58.6754 55.6107C58.8452 56.1327 59.0007 56.6684 59.1327 57.2183C59.9447 60.5928 59.659 64.2886 59.9161 67.7023C59.9404 68.0236 60.1732 68.1441 60.1359 68.4186C60.1292 68.4645 59.9498 68.3526 59.9371 68.4943C59.7697 70.4409 60.1632 72.5097 59.9899 74.4211C59.943 74.9349 59.7439 75.008 59.6749 75.456C59.7707 75.3808 59.8697 75.333 59.9658 75.2675C60.1716 77.3491 59.8987 79.4176 59.7497 81.5035C59.7434 81.5987 59.9331 81.6288 59.9309 81.7291C59.9272 81.93 59.699 82.1002 59.6752 82.2723C59.6442 82.4968 59.7923 82.5509 59.7618 82.7571C59.7466 82.8575 59.6036 82.8128 59.6062 83.0341C59.6064 83.0526 59.7585 83.0805 59.7239 83.2239C59.6286 83.6201 59.4107 84.4336 59.3353 84.7562C59.2397 85.1674 59.4292 85.5411 59.4253 85.704C59.4143 86.1444 59.1796 86.1067 59.1354 86.471C58.8175 89.0747 58.7298 91.5958 58.3386 94.265C58.3138 94.435 57.9657 94.9945 57.9293 95.3214C57.9179 95.4298 57.9099 95.9769 57.9048 96.0541C57.8814 96.3744 57.9961 96.7067 58.0049 96.8874C58.0212 97.2447 57.7222 97.5951 57.6708 97.7949C57.581 98.1341 57.5428 98.714 57.5314 98.8722C57.5073 99.2186 57.8266 99.1396 57.7295 99.3675C57.7005 99.4377 57.4739 99.324 57.4468 99.5896C57.4251 99.816 57.5952 99.918 57.6149 100.063C57.6247 100.135 57.5561 100.228 57.4858 100.312C57.415 100.404 57.3416 100.501 57.3423 100.547C57.3487 100.742 57.3813 100.896 57.4199 101.043C57.3781 101.093 57.3372 101.14 57.3012 101.177C57.2861 101.192 57.2717 101.206 57.258 101.219C57.3094 101.196 57.374 101.175 57.452 101.162C57.4993 101.329 57.5495 101.496 57.5752 101.715C57.5844 101.778 57.5927 101.853 57.6139 101.942C57.6201 101.967 57.6272 101.989 57.6332 102.006C57.639 102.002 57.6457 101.999 57.6522 101.994C57.6966 101.965 57.7545 101.913 57.8182 101.842C57.8884 101.762 57.9366 101.701 57.988 101.632C58.0392 101.564 58.0913 101.488 58.1422 101.41C58.1522 101.395 58.1617 101.38 58.1712 101.365C58.2111 101.403 58.2409 101.441 58.2616 101.474C58.3055 101.551 58.3066 101.6 58.3055 101.643C58.3223 101.605 58.3411 101.55 58.3407 101.487C58.3406 101.424 58.3117 101.35 58.213 101.299C58.2458 101.247 58.2763 101.199 58.3041 101.155C58.3106 101.162 58.3166 101.17 58.3231 101.177C58.3205 101.163 58.3191 101.148 58.3172 101.134C58.4153 100.978 58.4809 100.873 58.5142 100.837C59.0989 100.224 58.4481 101.387 58.4304 101.404C58.2782 101.801 58.4218 101.789 58.0197 101.989C58.0717 102.112 58.0589 102.228 58.0025 102.323C57.9873 102.347 57.9753 102.365 57.949 102.391C57.9178 102.421 57.8832 102.447 57.8451 102.47C57.7693 102.514 57.6761 102.541 57.5793 102.533C57.4698 102.527 57.3634 102.466 57.3015 102.383C57.2463 102.308 57.2317 102.249 57.2121 102.174C57.1725 102.005 57.1845 101.919 57.169 101.797C57.1429 101.529 57.0827 101.397 56.8291 101.282C57.3448 100.906 57.094 100.732 57.0147 100.344C56.9047 99.8895 57.1789 100.254 57.2084 99.9283C57.2191 99.8039 57.0259 99.3703 57.0782 99.1978C57.1321 99.0095 57.3201 98.9493 57.3623 98.6796C57.4381 98.2052 57.4003 97.8482 57.2425 97.401C57.3473 97.3382 57.4501 97.292 57.5542 97.2355C57.4881 96.9603 57.4247 96.6751 57.363 96.3827C57.4392 96.4389 57.5161 96.4951 57.5925 96.5507C57.6157 96.472 57.6386 96.3922 57.6615 96.3119C57.5757 96.0233 57.4937 95.7758 57.4047 95.4839C57.9885 94.8148 57.5466 94.9544 57.5417 94.551C57.5378 94.1421 57.849 93.9444 57.8972 93.6229C57.9621 93.1908 58.0221 93.0201 58.0646 92.5855C58.0891 92.3358 57.8837 91.867 58.2558 92.2801C58.4003 91.5157 58.6699 90.4516 58.5898 89.7539C58.5674 89.5438 58.3974 89.7965 58.3855 89.7594C58.3308 89.5764 58.5665 89.4599 58.5598 89.2756C58.5491 88.9666 58.4576 88.3644 58.4476 88.1293C58.434 87.7885 58.7813 87.2903 58.8086 87.2373C58.9611 86.943 58.7382 86.8362 58.7662 86.7417C58.9268 86.2055 59.0388 86.0922 58.5688 85.8588C58.7981 85.7434 59.2267 85.1707 58.8849 84.9901C59.2082 85.024 59.21 84.5226 59.3242 84.2231C59.237 84.1556 59.1503 84.0872 59.0623 84.0197C59.7118 83.43 59.4199 82.119 59.4264 81.2606C59.4269 81.2394 59.6726 81.2238 59.6293 81.0923C59.6255 81.0839 59.5153 81.0871 59.5085 81.001C59.4888 80.718 59.3044 79.6206 59.3104 79.4948C59.3356 79.0424 59.5221 78.9766 59.5589 78.7014C59.6071 78.3388 59.447 78.2747 59.493 77.9288C59.5141 77.7674 59.7388 77.6299 59.7235 77.3742C59.7146 77.2225 59.5465 77.1975 59.5396 77.0775C59.5145 76.65 59.6374 76.3419 59.4347 75.9526C59.978 75.8793 59.5892 75.6783 59.5565 75.4897C59.4234 74.7269 59.6796 73.7845 59.6421 73.1317C59.5241 71.093 59.1689 69.2996 58.9919 67.3414C58.9625 67.0225 59.2282 66.9294 59.19 66.5945C59.1723 66.444 58.9665 66.3021 58.946 66.0572C58.929 65.8603 59.0066 65.5713 58.985 65.3229C58.9794 65.2571 58.7961 65.267 58.7862 65.1708C58.7118 64.4398 58.7679 63.7238 58.7641 62.9722C58.7629 62.6949 58.4987 62.5595 58.9249 62.5488C58.808 62.4585 58.7045 62.3702 58.5895 62.2875C58.8018 61.8777 58.4816 61.6128 58.467 61.0981C58.4665 61.0431 58.6916 60.6117 58.4445 60.4342C58.5905 60.3921 58.7227 60.4029 58.8563 60.3724C58.8751 60.1473 58.6426 59.854 58.5967 59.713C58.5513 59.572 58.7241 59.4367 58.7172 59.3926C58.6887 59.2265 58.4455 59.3162 58.4369 59.3052C58.0355 58.5921 58.1857 58.6503 58.4573 58.1026C58.5281 57.9671 58.0582 57.2489 58.3103 57.0156C58.188 57.0407 58.0932 57.1122 57.9814 57.1551C57.8894 56.931 57.7941 56.7074 57.6981 56.4867C57.827 56.5023 57.9589 56.5282 58.0873 56.5405C57.9204 56.222 57.9508 55.8824 57.931 55.5732ZM57.6332 102.006C57.6178 102.016 57.6052 102.022 57.5952 102.026C57.6232 102.029 57.6567 102.053 57.646 102.04C57.644 102.035 57.6392 102.023 57.6332 102.006ZM57.5793 102.026C57.5651 102.031 57.572 102.034 57.5952 102.026C57.5896 102.025 57.5842 102.025 57.5793 102.026ZM58.2785 101.698C58.2491 101.766 58.2993 101.751 58.3051 101.656C58.3052 101.652 58.3053 101.648 58.3055 101.643C58.2927 101.673 58.2814 101.692 58.2785 101.698ZM57.258 101.219C57.1907 101.25 57.1456 101.282 57.1231 101.302C57.0759 101.346 57.0944 101.347 57.1086 101.343C57.1265 101.337 57.1587 101.313 57.1977 101.276C57.2183 101.257 57.2376 101.239 57.258 101.219ZM62.3022 88.4232C62.4272 87.577 61.9922 86.7711 62.7974 87.1166C62.6168 87.983 62.3682 88.7097 62.1862 89.6258C62.1677 89.7206 62.1095 90.3287 62.0765 90.5313C62.0576 90.6463 62.1947 90.6831 62.1572 90.836C62.1479 90.8696 61.9252 91.0101 61.9139 91.0779C61.8777 91.3037 61.9845 92.0745 61.9526 92.1694C61.8632 92.4327 61.674 92.2761 61.6068 92.3818C61.3831 92.7348 61.6941 92.858 61.4956 93.2054C61.4594 93.2703 61.1202 93.4333 61.0832 93.7281C61.0685 93.8483 61.162 94.0822 61.1322 94.1678C60.9733 94.6245 60.6346 95.1237 60.5456 95.5678C60.4732 95.9302 60.714 95.895 60.6909 96.0884C60.6691 96.2734 60.3501 96.4484 60.2981 96.574C60.2144 96.7793 60.2811 97.0709 60.2602 97.1334C59.8355 98.3944 59.3278 99.4324 58.7838 100.591C59.0113 99.7831 59.2171 98.8908 59.3639 98.0858C59.7308 97.6924 59.4516 97.8579 59.4802 97.5228C59.5013 97.2716 59.8422 97.3223 59.9285 97.0578L59.942 97.0012C59.9682 96.8334 59.8139 96.3961 60.0251 96.0666C60.033 96.0555 60.2364 96.0831 60.3154 95.8281C60.4942 95.2513 60.842 94.3568 60.9707 93.6795C61.0094 93.4772 60.7927 93.4647 60.8275 93.2207C60.8546 93.0366 61.0918 92.9019 61.115 92.6269C61.1425 92.2829 60.8526 92.0407 61.3666 91.922C61.2079 91.8626 61.0461 91.8329 60.8924 91.771C61.8112 91.2623 62.159 89.419 62.3022 88.4232ZM64.3994 53.8403C64.5092 53.833 64.6422 53.8683 64.7766 53.9018C64.7759 53.902 64.7752 53.9022 64.7745 53.9025C64.7288 54.1986 64.7027 54.5241 64.7014 54.8683C64.6967 55.1761 64.7195 55.5059 64.7769 55.8637C64.8029 56.029 64.9468 55.9972 64.973 56.0612C65.0209 56.1738 64.8698 56.3759 64.8705 56.4037C64.873 56.5763 65.1249 56.5038 65.1359 56.5266C65.2446 56.7905 64.9536 56.7189 64.9288 56.9781C64.8959 57.3315 64.9461 57.7148 64.953 58.129C64.9558 58.2725 65.1516 58.2107 65.1276 58.5257C65.1114 58.7481 64.8681 59.3804 65.0882 59.7081C65.1771 59.7141 65.2773 59.6792 65.3698 59.6668C64.9779 60.1021 64.9869 60.254 65.0396 60.8791C65.0476 60.9788 64.8899 61.0625 64.9343 61.2421C64.9786 61.4224 65.2131 61.4451 65.1842 61.8061C65.1732 61.9326 65.0026 61.9906 64.9809 62.1788C64.9209 62.7064 65.0314 63.7897 64.9954 64.223C64.9236 65.1043 64.5894 65.5634 64.5999 66.3484C64.6004 66.4091 64.7954 66.2979 64.7866 66.4085C64.7775 66.5204 64.5249 66.6094 64.516 66.6361C64.4207 66.9259 64.6652 67.5953 64.6065 67.7506C64.4625 68.1361 64.4063 67.7305 64.2917 68.277C64.1824 68.7986 64.3961 69.5734 64.3856 70.1005C64.3729 70.716 63.8943 70.8483 64.299 71.3756C64.0423 72.9668 63.7735 74.5786 63.4828 76.1737C63.577 76.1849 63.6714 76.1954 63.7658 76.2057C63.68 76.3214 63.5939 76.4371 63.5087 76.5527C63.5814 76.5455 63.6541 76.5393 63.7261 76.5319C63.3576 77.0811 63.1285 77.5857 63.08 78.2925C63.08 78.3062 63.2713 78.3038 63.2743 78.3158C63.2819 78.4785 63.1079 78.6276 63.117 78.7708C63.1388 79.1168 63.4418 79.7537 62.991 79.4153C62.9532 80.2094 62.6167 81.0843 62.5717 81.8371C62.5516 82.165 62.8263 82.3181 62.8136 82.4743C62.8006 82.6299 62.5639 82.503 62.5437 82.5551C62.4247 82.8694 62.3301 83.402 62.6003 83.5144C62.475 83.5566 62.3476 83.6023 62.2214 83.6449C62.5418 83.6688 62.2095 84.6526 62.1631 84.9141C62.1547 84.9622 62.2899 84.9974 62.2811 85.0332C62.1805 85.4327 61.9474 85.4792 61.8031 85.8133C61.7523 85.9304 62.0328 85.792 61.8628 86.0837C61.8477 86.1088 61.6351 86.0494 61.5574 86.4214C61.4348 87.0113 61.1013 88.1282 61.0491 88.8515C61.045 88.9101 61.3187 88.7906 61.2051 89.0389C61.1642 89.1286 61.0077 89.0458 60.9545 89.2729C60.7395 90.1835 60.7125 91.1532 60.3254 92.0427C60.521 92.0563 60.8114 91.7846 60.5739 92.2423C60.5353 92.3148 60.3819 92.2151 60.3671 92.2482C60.2484 92.5201 60.3119 92.7749 60.167 93.0763C60.1242 93.1635 59.987 93.1526 59.9268 93.2585C59.8376 93.4143 60.0055 93.5371 59.8764 93.7083C59.6736 93.9743 59.4848 93.9726 59.7356 94.4267C59.3973 95.6214 59.0273 96.8199 58.6475 97.9896C58.6321 97.8668 58.4772 97.7989 58.5318 97.5933C58.5416 97.552 58.824 97.1584 58.8649 97.0154C58.9277 96.8004 58.747 96.4023 58.7506 96.356C58.7957 95.7457 59.0607 95.5328 58.75 95.0188C58.9869 94.9637 59.1703 94.6233 59.1924 94.3184C59.2209 93.9288 58.8726 93.1042 59.3715 93.0739C59.219 92.6039 59.3451 92.6725 59.4257 92.1399C59.4951 91.6882 59.4904 90.3712 59.5665 90.0083C59.6448 89.6291 59.8893 89.8524 59.9461 89.7046C60.0399 89.4614 59.8224 89.57 59.8484 89.3978C59.9235 88.9031 60.0155 88.4977 60.1621 88.0446C60.0255 88.0015 59.8884 87.9564 59.7518 87.9124C59.8015 87.8944 59.8512 87.8763 59.9009 87.8582C59.9123 87.7581 59.9296 87.6462 59.9371 87.5525C60.4515 88.4171 59.9888 86.7844 60.0258 86.3322C60.0596 85.9465 60.4286 85.3175 60.5383 84.9068C60.5653 84.8058 60.4067 84.8587 60.4117 84.8385C60.4826 84.5943 60.5907 84.5681 60.6132 84.229C60.6248 84.0494 60.4545 83.8457 60.4693 83.6702C60.5769 82.3992 60.8831 81.1823 61.0046 79.9088C61.0253 79.6908 60.8071 79.4862 60.8154 79.3056C60.8275 79.0465 61.0299 78.8964 61.0498 78.6521C61.0696 78.4085 60.8648 78.0413 60.91 77.8778C60.9545 77.714 61.1575 78.0122 61.116 77.7043C61.0968 77.5627 60.9172 77.7991 60.9228 77.6262C60.94 77.0928 61.1838 76.3464 61.0118 75.7635C61.0598 75.791 61.1026 75.8275 61.1481 75.8607C61.1564 75.2489 61.0582 74.7094 61.0591 74.0789C61.0591 73.8587 61.213 73.4642 61.2165 73.248C61.2199 73.0315 61.065 72.9304 61.0632 72.7573C61.0622 72.6861 61.2021 72.7159 61.1999 72.6681C61.1704 72.0689 60.9225 71.7393 60.9493 71.1146C61.0454 68.8242 61.0348 66.4494 60.8914 64.1029C60.8855 64.0089 61.0608 63.9266 61.0732 63.7864C61.0923 63.5705 60.9301 63.5779 60.9214 63.5504C60.8657 63.3711 61.023 63.4291 60.9942 63.1801C60.9313 62.6298 60.6821 61.7737 60.6084 61.231C60.4398 59.9763 60.3802 58.9016 60.167 57.6695C60.1519 57.581 59.9554 57.69 59.9168 57.5404C59.695 56.7181 59.7332 56.37 59.5513 55.6569C60.3547 55.7004 61.1454 55.7475 61.7773 55.7964L62.1407 55.7724C62.1439 55.7716 62.1471 55.7708 62.1503 55.77C62.1502 55.7695 62.1501 55.7691 62.15 55.7686C62.7132 56.0512 63.3032 55.8115 63.7433 55.3969C63.1647 55.3441 62.6011 55.3375 62.0471 55.366L61.8169 55.381C60.9911 55.1492 60.1605 55.0047 59.3187 54.9027C59.3176 54.8996 59.3164 54.8965 59.3152 54.8933C59.2448 54.6998 59.1631 54.4819 59.0716 54.2474C59.2371 54.3268 59.4202 54.3934 59.6717 54.2981C59.7132 54.2819 60.1657 54.0346 60.3882 54.4737C60.4842 54.3513 60.5648 54.2898 60.6377 54.186C61.1097 54.8519 61.0208 54.2359 61.7528 54.1631C61.7712 54.1613 61.7918 54.1606 61.8142 54.16C62.3062 54.0244 63.2589 53.8916 63.6077 53.8681C63.8524 53.8526 63.9024 54.0898 63.9466 54.0895C64.2105 54.0857 64.1583 53.8567 64.3994 53.8403ZM64.9267 73.2334C64.916 73.182 64.4923 72.4631 65.0189 72.7371C65.13 73.6396 64.8666 74.5426 64.8539 75.472C64.3564 75.0726 64.6566 74.5861 64.7952 73.9602V73.9595C64.8016 73.9301 64.6392 74.0319 64.6914 73.8668C64.7168 73.7867 64.9854 73.5064 64.9267 73.2334ZM58.1477 54.1211C58.3029 54.1088 58.4709 54.0987 58.6727 54.1065L58.3141 54.5692C58.343 54.6483 58.3719 54.7276 58.4004 54.8073C58.316 54.7996 58.2316 54.7915 58.1471 54.7844L57.844 55.1751C57.749 55.0305 57.5534 55.1072 57.5645 54.9749C57.567 54.9461 57.7503 54.9318 57.7391 54.8524C57.734 54.817 57.7281 54.7828 57.7219 54.75C57.6906 54.7476 57.6593 54.7451 57.628 54.7427L57.7005 54.6493C57.6675 54.512 57.6247 54.3961 57.5756 54.2894L57.5158 54.1367L57.6853 54.1478C57.828 54.1487 57.9629 54.1361 58.1077 54.1242L58.1353 54.0885C58.1394 54.0993 58.1436 54.1103 58.1477 54.1211ZM58.1477 54.1211C58.1343 54.1222 58.121 54.1232 58.1077 54.1242L57.7005 54.6493C57.7082 54.6816 57.7153 54.7152 57.7219 54.75C57.864 54.761 58.0057 54.7724 58.1471 54.7844L58.3141 54.5692C58.2591 54.4187 58.2038 54.2693 58.1477 54.1211ZM61.8142 54.16C61.8002 54.1639 61.7864 54.1672 61.7731 54.1711L61.9346 54.1607C61.8903 54.1589 61.8499 54.159 61.8142 54.16Z" fill="#1F2126"/>
<path d="M29.8418 17.2656C30.8182 17.1173 32.6888 17.422 33.4787 17.5177C35.0382 17.6806 35.9846 17.4314 37.341 17.9801C37.4442 18.0229 37.1389 18.2166 37.3304 18.2807C37.5216 18.3449 37.8286 18.0647 37.8803 18.0732C38.4415 18.1527 39.3395 19.0615 39.6249 19.1456C40.3476 19.3489 39.7616 18.8572 40.7138 19.298C40.814 19.3465 40.9146 19.4051 41.0155 19.4709C41.2405 19.4016 41.4537 19.3351 41.6444 19.2659C42.6757 18.9023 42.8183 18.1303 43.8114 18.5583C46.5504 17.6505 49.4606 17.4904 52.2535 17.8525C52.2271 17.9936 52.1993 18.1349 52.1716 18.2759C52.4005 18.208 52.6349 18.1443 52.8674 18.0847C52.818 18.1845 52.7705 18.285 52.7221 18.384C53.7973 18.1496 54.7762 18.1551 55.9153 18.6263C55.9374 18.6357 55.7997 18.8912 55.8164 18.9043C56.0632 19.0374 56.4133 18.9228 56.6268 19.0521C57.1456 19.3587 57.8307 20.3103 57.6946 19.4364C58.8939 20.0799 60.4255 20.5679 61.467 21.3722C61.918 21.7196 61.8283 22.1966 62.0363 22.3619C62.2433 22.5282 62.3296 22.1264 62.416 22.1656C62.9342 22.4022 63.6889 22.9744 63.5215 23.3875C63.7086 23.3141 63.905 23.2458 64.0957 23.1755C63.9333 23.3492 64.2233 23.6585 64.5923 23.9772C64.9658 24.2979 65.4104 24.6261 65.5799 24.787C65.6414 24.8453 65.5183 25.0131 65.5662 25.0541C66.1019 25.5091 66.4382 25.3843 66.9471 25.7401C67.1236 25.8655 66.6444 25.895 67.1337 26.1732C67.1752 26.1979 67.388 25.9385 67.8398 26.4302C68.5652 27.2024 69.9489 28.7301 70.5144 29.9056C70.5612 29.9999 70.1021 29.9439 70.4281 30.2917C70.5449 30.4192 70.7061 30.202 70.9331 30.5602C71.8117 31.9512 72.3399 33.6402 73.1493 35.1195C72.8666 35.1681 72.3684 34.7406 72.8436 35.5031C72.9193 35.6259 73.1161 35.4335 73.147 35.4902C73.3918 35.9566 73.3655 36.4501 73.6146 36.9622C73.6882 37.1132 73.8885 37.097 73.989 37.2889C74.137 37.5745 73.9006 37.7812 74.0986 38.1036C74.4051 38.6124 74.6879 38.6542 74.3001 39.4539C75.016 43.3447 74.6795 47.7585 72.4372 51.1959C72.1895 51.7974 71.921 52.3678 71.5962 52.9232C71.31 53.4044 70.9748 53.8613 70.565 54.2906C70.2919 54.5686 70.0164 54.3372 69.6247 54.8042C69.5488 54.9123 68.9523 55.8019 68.47 55.215C68.2858 55.4022 68.1466 55.4835 67.972 55.6227C68.166 55.6424 68.3675 55.6549 68.5602 55.668C67.6893 56.0445 67.0998 56.5844 66.3506 56.9782C65.7972 57.258 66.1177 56.8161 65.777 56.9562C65.4392 57.0888 65.2771 57.2085 64.7678 56.9332C64.5173 57.444 64.2153 57.1943 63.5891 57.2806C63.523 57.2903 63.1426 57.5195 62.8123 57.5191C62.5723 57.5187 62.4802 57.2507 62.1085 57.3214C62.0527 57.3354 61.278 57.7195 61.0194 57.751C60.6279 57.8099 60.0053 57.4414 59.9346 57.4333C58.8591 57.3311 58.404 57.6334 57.705 56.9737C57.5206 57.2985 56.8479 57.4142 56.3467 57.2956C55.695 57.1527 54.5718 56.1937 54.2493 56.8729C53.5903 56.3745 53.6241 56.5956 52.7654 56.3658C51.9751 56.1671 50.0379 55.2095 49.4264 54.9999C48.806 54.7994 48.9613 55.3004 48.7003 55.2551C48.2717 55.1786 48.5919 54.9827 48.3209 54.8747C47.5545 54.5668 46.8801 54.3238 46.1133 54.0967C46.1612 53.8843 46.2077 53.6694 46.2555 53.4567C46.1903 53.5033 46.1248 53.5499 46.0593 53.5962C45.909 53.5193 45.7378 53.4378 45.601 53.3605C46.3962 54.8068 44.4776 52.7198 43.837 52.2937C43.2765 51.9503 42.1229 51.7524 41.4612 51.4184C41.3005 51.3382 41.5216 51.2132 41.4888 51.197C41.1043 51.0129 40.9659 51.1035 40.5196 50.7652C39.1995 51.7701 37.8919 52.7588 36.4341 53.5492C36.1104 53.7241 35.6809 53.5484 35.4052 53.6754C35.0096 53.8573 34.8726 54.2395 34.4989 54.4157C34.1257 54.5921 33.4581 54.5076 33.2226 54.6623C32.985 54.8171 33.5423 54.9457 33.0394 55.0553C32.8085 55.1045 33.1026 54.7165 32.8339 54.8182C32.0004 55.1357 30.8978 55.8649 29.9008 55.8651C29.9617 55.9236 30.0356 55.9701 30.105 56.0223C29.1213 56.3066 28.2137 56.3762 27.1839 56.5918C26.8292 56.6665 26.2145 57.0202 25.8583 57.0853C25.5008 57.1515 25.2973 56.9458 25.0119 56.9862C24.8943 57.0022 24.9706 57.2048 24.891 57.2133C23.8853 57.3101 23.2998 56.9988 22.265 57.1146C18.5117 57.4854 14.0543 57.209 10.6007 54.1054C10.4682 53.9824 10.1953 54.0934 9.97922 53.9174C9.65043 53.6446 9.81711 53.4609 9.78703 53.4138C9.6254 53.1458 9.54906 53.2909 9.34537 53.1021C9.31025 53.0698 9.27158 53.0267 9.2288 52.9682C8.60627 52.1471 7.95914 50.5976 7.57141 49.6647C6.64913 47.5196 6.0759 45.5748 5.9097 43.2662C5.89883 43.0998 6.21297 43.206 6.21513 42.9216C6.29143 40.9413 6.00648 40.4619 6.58651 38.0558C7.13474 35.6266 9.15735 31.5241 10.8279 29.3369C10.8285 29.3373 10.829 29.3378 10.8296 29.3383C10.8491 28.268 11.6805 27.4246 12.6065 27.0359C10.3202 32.0151 7.5213 36.2125 7.22268 42.0536C7.07888 45.6152 8.42703 49.3511 10.7609 51.9412C11.0546 52.2763 11.3676 52.5813 11.6959 52.8601C11.388 52.5575 11.101 52.2309 10.8376 51.8787C5.61472 44.8975 7.79227 33.843 15.5679 26.3231C15.6355 26.1891 15.7144 26.0717 15.8147 25.9932C15.8697 25.9505 15.9172 25.9428 15.9606 25.9507C16.0601 25.8582 16.1605 25.7665 16.2617 25.6752C16.2496 25.6202 16.2905 25.5542 16.4675 25.4715C16.4739 25.4683 16.4866 25.4644 16.5042 25.459C16.7465 25.2455 16.9937 25.0354 17.2456 24.8288C18.4741 23.8214 19.7536 22.9496 21.0613 22.213C20.7725 22.0332 20.3165 21.9884 20.0278 22.0334C19.6384 22.0922 19.7869 22.3457 19.6644 22.4229C19.009 22.8322 18.1109 23.5386 17.5663 23.7893C17.2364 23.939 17.6766 23.4475 17.4774 23.4799C17.2773 23.5127 17.3119 23.7624 17.0254 23.6846C16.7401 23.6046 16.0144 23.2899 15.8707 22.9746C16.6821 21.9475 17.6691 21.0882 18.8454 20.5032C19.1135 20.3704 19.1959 20.576 19.317 20.544C19.5392 20.4853 19.7532 20.0907 19.8003 20.0641C20.086 19.899 20.1475 20.303 20.1926 20.2943C20.6879 20.1979 20.3693 19.8757 20.7682 19.6185C21.2892 19.285 22.029 19.0169 22.7157 18.7508C22.9578 18.6594 22.9529 18.9732 23.4581 18.7459C23.8103 18.5816 24.8562 17.861 25.4892 18.053C25.5273 18.1819 25.4997 18.3451 25.5089 18.4872C26.1118 17.7278 26.4134 17.6621 27.5373 17.5641C27.7158 17.5499 27.8436 17.2893 28.1681 17.3189C28.4909 17.3517 28.5585 17.6959 29.1734 17.608C29.3916 17.5775 29.5007 17.3106 29.8418 17.2656ZM40.7624 48.6125C37.5984 51.0445 33.7215 53.0468 29.7742 54.3348C32.7223 53.6721 35.477 52.2381 38.1224 50.6638C38.2565 50.5844 38.4163 50.823 38.5611 50.744C38.8519 50.5859 38.9506 50.144 39.1823 49.9754C39.4844 49.7547 39.659 49.9105 39.9334 49.6995C40.0662 49.5956 39.9063 49.4427 40.2238 49.2584C40.2507 49.244 40.395 49.4224 40.5749 49.2525C40.6459 49.185 40.7265 49.1061 40.8137 49.0202C41.3845 49.3399 42.0571 49.6851 42.3895 49.8589C43.005 50.1843 43.3127 50.7822 43.5283 50.9407C44.1135 51.3665 44.2727 51.0458 44.7943 51.3438C48.5284 53.4296 52.2832 55.3069 56.6548 56.038C56.9303 56.0864 57.9864 55.8284 58.49 55.886C58.6566 55.9126 59.5386 56.0783 59.6728 56.0886C60.2052 56.1459 60.6861 56.3881 60.9864 56.4335C61.5865 56.5246 62.2182 56.0994 62.5286 56.029C63.0714 55.9168 64.0532 55.7976 64.2865 55.7503C64.8416 55.6502 64.7593 56.1471 65.1419 55.9345C65.252 55.869 65.0452 55.561 65.4486 55.4396C65.7825 55.3366 66.0065 55.5409 66.2553 55.5C66.507 55.4587 66.7779 54.892 66.9138 54.8377C67.6458 54.5487 68.0947 54.612 68.838 54.0946C69.1703 53.8674 70.0671 53.0508 70.6459 52.1438C71.1483 51.3864 71.4876 50.65 71.5136 50.5135C71.576 50.1648 71.5639 50.0433 71.5103 50.0535C71.1743 50.6946 70.7873 51.3118 70.3475 51.8997C70.2993 51.9641 70.2497 52.0273 70.2 52.0901C70.1931 52.119 70.1859 52.1496 70.1783 52.1821C70.1625 52.1792 70.1468 52.1771 70.1313 52.1752C66.5596 56.5679 59.2691 56.7298 52.0973 54.4579C51.5275 54.3041 50.9567 54.1199 50.4632 53.8972C46.9829 52.6127 43.6002 50.7823 40.7624 48.6125ZM17.3059 55.6039C17.4593 55.7116 17.6083 55.8024 17.8271 55.8019C17.8572 55.8015 17.8512 55.7544 17.8475 55.6984C17.6651 55.67 17.4846 55.6382 17.3059 55.6039ZM73.0518 40.5733C73.461 43.8713 73.0084 47.0883 71.6079 49.8641C71.5996 49.8826 71.5916 49.9011 71.5832 49.9196C72.3699 48.7071 72.9638 47.3373 73.3738 45.9008C73.181 45.0105 73.4234 45.4834 73.5997 44.9408C73.7302 44.5068 73.179 44.3478 73.2742 43.7896C73.2742 43.79 73.2743 43.7906 73.2742 43.791C73.3235 43.5086 73.7354 42.8669 73.5477 42.2357C73.5389 42.2138 73.2488 42.1653 73.211 41.707C73.1857 41.3704 73.127 40.9826 73.0518 40.5733ZM40.8137 49.0202C40.7311 48.974 40.6505 48.9281 40.5735 48.8835L40.9526 48.8832C40.9052 48.9306 40.8583 48.9763 40.8137 49.0202ZM70.9354 33.6151C71.6038 34.9821 72.1294 36.3796 72.5045 37.7813C72.5602 37.6137 72.7248 37.5247 72.6674 37.2195C72.6096 36.924 72.2364 36.6831 72.1468 36.2271C72.0335 35.6533 72.3794 35.1856 71.6019 35.093C71.8133 34.9624 72.0383 34.8801 72.241 34.745C71.7921 34.5291 71.3542 34.1194 70.9354 33.6151ZM31.7647 30.9065C31.7362 30.9247 31.767 31.062 31.6974 31.0746C31.6314 31.0852 31.3929 31.0039 31.2994 31.0223C31.1978 31.0402 31.2219 31.1051 31.1139 31.0156C31.1445 31.2605 30.9512 31.0686 30.8641 31.0864C30.7996 31.0975 30.7473 31.1934 30.7758 31.3054C30.6166 31.1701 30.6125 31.3008 30.4877 31.3605C30.4802 31.3635 30.3466 31.3158 30.3128 31.3658C30.29 31.3968 30.2842 31.5562 30.2818 31.5635C30.2573 31.6087 30.1875 31.552 30.1593 31.5715C30.1202 31.5992 30.1286 31.6795 30.1233 31.6869C30.0911 31.7262 30.0445 31.7325 30.029 31.7563C30.0184 31.773 30.0236 31.7982 30.0633 31.847C29.9284 31.8317 29.9353 31.8681 29.9225 31.9171C29.9102 31.9672 29.8428 31.8665 29.8345 31.9572C29.8251 32.0825 29.876 32.2012 29.8139 32.3077C29.8527 32.2957 29.8923 32.283 29.9311 32.2728C29.937 32.3019 29.9333 32.3218 29.9474 32.3555C29.71 32.3191 29.8142 32.4643 29.8229 32.4779C29.8541 32.5511 29.7367 32.5494 29.7389 32.5954C29.7502 32.7503 29.8143 32.8757 29.8805 32.9961C29.8689 33.4545 30.0858 33.8286 30.2892 34.1584C30.1767 34.3131 30.258 34.2751 30.3388 34.286C30.3905 34.2933 30.3206 34.3586 30.3565 34.3715C30.3807 34.3798 30.4368 34.3452 30.4537 34.3526C30.5098 34.3791 30.4864 34.4518 30.5353 34.4792C30.5413 34.4823 30.6025 34.4224 30.6182 34.4273C30.7142 34.4597 30.598 34.4797 30.5197 34.5329C30.6777 34.6169 30.7075 34.8101 30.8151 34.9298C30.8423 34.9602 30.8983 34.8958 30.9164 34.9015C30.9658 34.9168 30.8619 34.976 30.8644 34.987C30.9083 35.1188 31.0763 35.2322 31.1498 35.305C31.1951 35.3503 31.2649 35.2681 31.2724 35.2663C31.3452 35.2636 31.2425 35.3328 31.2657 35.3378C31.333 35.3519 31.415 35.2806 31.4706 35.3193C31.4746 35.3237 31.4329 35.3761 31.4376 35.3828C31.4686 35.4168 31.6357 35.4751 31.5349 35.5959C31.5785 35.5579 31.6228 35.52 31.6658 35.4818C31.5864 35.6009 31.6531 35.6634 31.7131 35.675C31.7231 35.6768 31.788 35.5656 31.803 35.5882C31.8179 35.6109 31.7438 35.741 31.7747 35.7915C31.8256 35.874 31.9263 35.9089 32.0095 35.9631C32.0441 35.9856 32.0756 36.0115 32.0994 36.0461C32.1977 35.8095 32.1665 36.0363 32.1937 36.1029C32.2047 36.1303 32.2661 36.0844 32.2793 36.1137C32.2784 36.1185 32.2285 36.193 32.2287 36.1967C32.3099 36.2928 32.4236 36.2796 32.5731 36.2089C32.5541 36.2382 32.535 36.268 32.5158 36.2975C32.5495 36.2796 32.5833 36.2605 32.6167 36.2417C32.5942 36.2834 32.5715 36.3255 32.5491 36.3672C32.7923 36.4908 33.0426 36.6025 33.3018 36.6905C33.2946 36.9441 33.4028 36.7414 33.489 36.8098C33.5631 36.8689 33.6429 37.0597 33.7415 37.0647C33.8424 37.0689 33.7876 36.9986 33.8674 36.9702C33.8996 36.9592 33.9715 37.1431 34.0323 37.1243C34.0378 37.1226 34.0818 37.0078 34.1006 37.0134C34.1191 37.0194 34.0798 37.1041 34.0892 37.1104C34.221 37.1869 34.3296 37.0605 34.4863 37.0846C34.5653 37.0976 34.755 37.2126 34.864 37.1993C34.9008 37.1952 34.9139 37.1112 34.9376 37.109C35.0049 37.1047 35.0131 37.2227 35.0502 37.2488C35.0885 37.2744 35.1019 37.1958 35.1224 37.2007C35.2526 37.2323 35.2962 37.2326 35.3506 37.0312C35.3559 37.0774 35.3568 37.1277 35.3652 37.1718C35.4529 37.2766 35.5766 37.1293 35.619 37.1076C35.683 37.0776 35.6999 37.1744 35.733 37.1655C35.8253 37.1391 35.9352 37.1167 36.0047 37.0577C36.0574 37.0121 35.9708 36.8958 36.0534 36.9053C36.0613 36.9063 36.1086 37.0268 36.1493 36.9995C36.1564 36.9945 36.1609 36.8976 36.1986 36.8963C36.2197 36.8953 36.2569 36.958 36.2992 36.9371C36.4846 36.8449 36.6122 36.6463 36.6446 36.4244C36.5599 36.3527 36.3414 36.2655 36.2669 36.2337C36.1918 36.2037 36.239 36.2601 36.2013 36.2577C36.1645 36.2539 36.1792 36.1686 36.1333 36.1838C36.0594 36.2078 35.9877 36.311 35.9215 36.3638C35.9095 36.3734 35.9658 36.4524 35.9038 36.4359C35.8566 36.4245 35.7789 36.3697 35.714 36.293C35.8396 36.2125 35.9453 36.111 36.0257 35.9861C36.0428 35.9595 36.0585 35.9321 36.073 35.9041C36.0756 35.9039 36.0775 35.9046 36.0784 35.9041C36.1033 35.8962 36.0995 35.8865 36.0857 35.8766C36.0914 35.8647 36.0971 35.8528 36.1023 35.8407C36.1143 35.8434 36.1239 35.844 36.1287 35.8386C36.1372 35.8278 36.1322 35.8113 36.1217 35.7925C36.3716 35.1301 35.9831 34.1593 35.1654 33.2915C35.485 33.4963 35.8393 33.6902 36.0497 34.0259C36.3365 34.5366 36.3247 34.934 36.7215 35.6422C36.8851 35.545 36.9395 35.3659 36.7408 35.2677H36.7418C36.7518 34.9202 36.6555 34.4179 36.5693 34.1741C36.4854 33.9282 36.3758 33.9435 36.2869 33.7696C36.2739 33.7448 36.3672 33.6958 36.3568 33.6834C36.2088 33.5102 36.0454 33.4014 35.9012 33.2398C35.8392 33.1699 35.7887 33.0095 35.725 32.9389C35.696 32.9067 35.6524 32.9683 35.6437 32.9326C35.6439 32.9258 35.6971 32.8693 35.6583 32.8573C35.6327 32.8496 35.5625 32.906 35.5501 32.896C35.2458 32.6406 34.9207 32.4166 34.5902 32.2365C34.5355 32.2068 34.5233 32.145 34.5052 32.0845C34.4937 32.0459 34.4798 32.0079 34.4516 31.9799C34.4457 31.9745 34.4124 32.0362 34.4033 32.0287C34.3813 32.0107 34.4086 31.9354 34.379 31.915C34.3488 31.8945 34.2569 31.9205 34.2281 31.8986C34.1448 31.8357 34.0972 31.7383 34.0126 31.6786C34.0062 31.7019 34.0008 31.7245 33.993 31.7483C33.9565 31.6136 33.7991 31.6433 33.7245 31.5966C33.7 31.5812 33.7715 31.5251 33.7565 31.5018C33.7237 31.4512 33.7194 31.5734 33.6875 31.5764C33.656 31.5796 33.6502 31.4495 33.6126 31.4331C33.5743 31.4168 33.5118 31.4928 33.474 31.4718C33.4478 31.4567 33.4635 31.3361 33.4287 31.3225C33.2255 31.2453 32.9991 31.2631 32.7959 31.1883C32.7681 31.1776 32.7625 31.0766 32.7336 31.0641C32.679 31.0415 32.6598 31.0906 32.6127 31.1011C32.6087 31.1019 32.6382 31.0306 32.6187 31.0338C32.5381 31.046 32.3991 31.1665 32.3366 31.1482C32.2653 31.1233 32.0336 30.7549 32.1337 31.0833C32.118 31.079 32.0983 31.0777 32.0811 31.0749C32.0743 31.098 32.0678 31.1213 32.0611 31.1443C32.0644 31.0731 32.0675 31.0011 32.0705 30.9299C31.9812 30.9642 31.905 30.9776 31.8153 30.978C31.7843 30.9778 31.812 30.8774 31.7647 30.9065ZM49.4747 30.9065C49.4274 30.8775 49.4552 30.9776 49.4244 30.978C49.3347 30.9776 49.2585 30.9642 49.1692 30.9299C49.1722 31.0011 49.1753 31.0731 49.1786 31.1443C49.1719 31.1212 49.165 31.098 49.1582 31.0749C49.1411 31.0777 49.1217 31.079 49.1059 31.0833C49.206 30.7551 48.9745 31.1229 48.9031 31.1482C48.8406 31.1665 48.7012 31.046 48.6207 31.0338C48.6015 31.031 48.6307 31.1013 48.627 31.1011C48.5798 31.0907 48.5606 31.0416 48.5061 31.0641C48.4772 31.0766 48.4714 31.1774 48.4438 31.1883C48.2405 31.2631 48.0139 31.2452 47.8106 31.3225C47.7758 31.3362 47.7917 31.457 47.7653 31.4718C47.7276 31.4927 47.665 31.4167 47.6268 31.4331C47.5892 31.4496 47.5834 31.5797 47.5518 31.5764C47.5201 31.573 47.5159 31.4515 47.4832 31.5018C47.4682 31.5251 47.5397 31.5812 47.5152 31.5966C47.4406 31.6434 47.2828 31.6136 47.2464 31.7483C47.2386 31.7245 47.2335 31.7019 47.2271 31.6786C47.1425 31.7383 47.0949 31.8357 47.0116 31.8986C46.9828 31.9205 46.8909 31.8946 46.8607 31.915C46.831 31.9354 46.8582 32.0107 46.836 32.0287C46.8269 32.0357 46.7942 31.9752 46.7881 31.9799C46.7599 32.0078 46.746 32.0459 46.7344 32.0845C46.7164 32.1449 46.7042 32.2068 46.6495 32.2365C46.319 32.4166 45.9935 32.6405 45.6893 32.896C45.6766 32.9057 45.6069 32.8497 45.5813 32.8573C45.5425 32.8693 45.5954 32.9257 45.5957 32.9326C45.5869 32.9683 45.5433 32.9067 45.5144 32.9389C45.4507 33.0096 45.4005 33.1699 45.3385 33.2398C45.1943 33.4013 45.0308 33.5103 44.8829 33.6834C44.8725 33.6958 44.9656 33.7448 44.9528 33.7696C44.8639 33.9436 44.7539 33.9281 44.67 34.1741C44.5839 34.4179 44.4878 34.9202 44.4978 35.2677H44.4985C44.2999 35.3659 44.3545 35.545 44.5182 35.6422C44.915 34.934 44.9032 34.5366 45.19 34.0259C45.4003 33.6902 45.7544 33.4963 46.074 33.2915C45.2564 34.1592 44.8678 35.1301 45.1177 35.7925C45.1071 35.8113 45.1022 35.8278 45.1107 35.8386C45.1154 35.8441 45.1251 35.8433 45.137 35.8407C45.1423 35.8528 45.1479 35.8647 45.1537 35.8766C45.1399 35.8865 45.1362 35.8963 45.161 35.9041C45.1618 35.9046 45.1638 35.9039 45.1663 35.9041C45.1808 35.9321 45.1965 35.9595 45.2136 35.9861C45.294 36.111 45.3998 36.2125 45.5254 36.293C45.4605 36.3697 45.3831 36.4245 45.3359 36.4359C45.2739 36.4525 45.3299 36.3737 45.3182 36.3638C45.252 36.311 45.18 36.2078 45.106 36.1838C45.0603 36.1688 45.0751 36.2539 45.0384 36.2577C45.0005 36.2602 45.0479 36.2037 44.9728 36.2337C44.8983 36.2655 44.6794 36.3527 44.5948 36.4244C44.6271 36.6463 44.7548 36.8449 44.9402 36.9371C44.9823 36.9581 45.0196 36.8956 45.0408 36.8963C45.0786 36.8975 45.0832 36.995 45.0904 36.9995C45.1309 37.0266 45.1779 36.907 45.186 36.9053C45.2687 36.8957 45.1821 37.012 45.2346 37.0577C45.3042 37.1167 45.4143 37.1391 45.5067 37.1655C45.5397 37.1743 45.5564 37.0777 45.6203 37.1076C45.6626 37.1291 45.7867 37.2766 45.8744 37.1718C45.8829 37.1277 45.8838 37.0774 45.8891 37.0312C45.9435 37.2325 45.9869 37.2323 46.1169 37.2007C46.1375 37.1956 46.1508 37.2742 46.1892 37.2488C46.2263 37.2228 46.2345 37.1047 46.3018 37.109C46.3255 37.1109 46.3386 37.195 46.3754 37.1993C46.4843 37.2126 46.674 37.0977 46.7531 37.0846C46.9099 37.0604 47.0186 37.1871 47.1505 37.1104C47.1599 37.1041 47.1204 37.0192 47.1391 37.0134C47.1578 37.0079 47.2009 37.1208 47.2071 37.1243C47.268 37.1431 47.3401 36.9588 47.3723 36.9702C47.4521 36.9986 47.3972 37.0689 47.4982 37.0647C47.5968 37.0597 47.6766 36.8688 47.7507 36.8098C47.8369 36.7415 47.9451 36.944 47.9378 36.6905C48.1971 36.6025 48.4471 36.4907 48.6903 36.3672C48.6679 36.3255 48.6455 36.2834 48.623 36.2417C48.6563 36.2605 48.6898 36.2796 48.7236 36.2975C48.7043 36.268 48.6853 36.2382 48.6663 36.2089C48.8158 36.2796 48.9295 36.2928 49.0107 36.1967C49.0109 36.193 48.9609 36.1185 48.9601 36.1137C48.9732 36.0842 49.0351 36.1304 49.046 36.1029C49.0732 36.0363 49.0417 35.8096 49.1399 36.0461C49.1637 36.0115 49.1952 35.9857 49.2298 35.9631C49.3131 35.9089 49.4141 35.874 49.465 35.7915C49.4958 35.741 49.4216 35.6111 49.4364 35.5882C49.4512 35.5656 49.5159 35.6759 49.5263 35.675C49.5863 35.6635 49.6531 35.601 49.5736 35.4818C49.6165 35.52 49.6608 35.5579 49.7045 35.5959C49.6038 35.4752 49.7705 35.4169 49.8017 35.3828C49.8065 35.3761 49.7644 35.323 49.7691 35.3193C49.8247 35.2806 49.9067 35.3519 49.9739 35.3378C49.9966 35.3326 49.8945 35.2635 49.9673 35.2663C49.9751 35.2685 50.0444 35.35 50.0895 35.305C50.163 35.2322 50.331 35.1188 50.375 34.987C50.3777 34.9761 50.2737 34.9168 50.3233 34.9015C50.3414 34.8961 50.3974 34.9602 50.4246 34.9298C50.5321 34.8101 50.5617 34.6169 50.7197 34.5329C50.6413 34.4797 50.5255 34.4597 50.6214 34.4273C50.6373 34.4228 50.6979 34.4822 50.704 34.4792C50.7531 34.4518 50.7296 34.3792 50.7856 34.3526C50.8024 34.3449 50.859 34.3799 50.8832 34.3715C50.9191 34.3586 50.8489 34.2934 50.9006 34.286C50.9814 34.275 51.0628 34.3132 50.9502 34.1584C51.1536 33.8286 51.3705 33.4545 51.3589 32.9961C51.4251 32.8757 51.4892 32.7503 51.5004 32.5954C51.5027 32.5494 51.3856 32.5511 51.4168 32.4779C51.4258 32.4639 51.5293 32.3192 51.2923 32.3555C51.3064 32.3218 51.3027 32.3019 51.3086 32.2728C51.3474 32.283 51.387 32.2957 51.4258 32.3077C51.3637 32.2012 51.4146 32.0825 51.4052 31.9572C51.3969 31.8664 51.3292 31.9672 51.3169 31.9171C51.3041 31.8681 51.3112 31.8317 51.1763 31.847C51.2161 31.7983 51.2212 31.773 51.2106 31.7563C51.1952 31.7325 51.1486 31.7262 51.1164 31.6869C51.111 31.68 51.1193 31.5992 51.0801 31.5715C51.0518 31.5523 50.9824 31.6085 50.9578 31.5635C50.9555 31.5562 50.9496 31.3969 50.9269 31.3658C50.8932 31.316 50.7605 31.3631 50.752 31.3605C50.6272 31.3008 50.6229 31.1699 50.4636 31.3054C50.4921 31.1933 50.4399 31.0974 50.3753 31.0864C50.2881 31.0687 50.0949 31.2604 50.1255 31.0156C50.0176 31.105 50.0418 31.0402 49.9403 31.0223C49.8468 31.0038 49.6079 31.0853 49.5419 31.0746C49.4724 31.0619 49.5033 30.9244 49.4747 30.9065ZM32.9341 35.9784C33.0392 36.034 33.1441 36.0854 33.2485 36.1326C33.2596 36.1484 33.2701 36.1659 33.2792 36.1859C33.2018 36.459 33.2067 36.1743 33.2046 36.1618C33.1876 36.1 33.0991 36.1797 33.084 36.1803C33.0545 36.1807 33.1013 36.1229 33.0967 36.1217C33.0131 36.1009 32.9098 36.1418 32.9341 35.9784ZM48.3052 35.9784C48.3295 36.1418 48.2263 36.1009 48.1427 36.1217C48.1391 36.124 48.1849 36.1807 48.1557 36.1803C48.141 36.1802 48.0518 36.0998 48.0348 36.1618C48.0327 36.1747 48.0378 36.4588 47.9605 36.1859C47.9696 36.166 47.9798 36.1484 47.9908 36.1326C48.0952 36.0854 48.2001 36.034 48.3052 35.9784ZM49.8787 34.7899C49.8733 34.8794 49.8809 34.9604 49.7924 34.8785C49.8217 34.8491 49.8504 34.8196 49.8787 34.7899ZM30.7835 34.0628C30.8568 34.1769 30.9382 34.2909 31.0269 34.4042C30.9516 34.3887 30.8598 34.3959 30.7468 34.4398C30.8072 34.3864 30.8712 34.3374 30.9337 34.2832C30.7308 34.397 30.8448 34.2716 30.8357 34.21C30.8282 34.1612 30.7329 34.1914 30.7245 34.1626C30.7163 34.1323 30.7645 34.0932 30.7835 34.0628ZM50.4556 34.0628C50.4744 34.0932 50.5234 34.1323 50.5152 34.1626C50.5068 34.1915 50.4115 34.1612 50.4039 34.21C50.3949 34.2716 50.5089 34.397 50.306 34.2832C50.3685 34.3374 50.4324 34.3863 50.4929 34.4398C50.3796 34.3958 50.2875 34.3886 50.2121 34.4042C50.3008 34.2909 50.3822 34.1769 50.4556 34.0628ZM50.9069 32.9888C50.9321 33.1338 50.9369 33.2854 50.9352 33.44C50.8037 33.4731 50.9148 33.4748 50.9272 33.5394C50.9356 33.5914 50.7598 33.5213 50.7577 33.5788L50.7613 33.5931C50.7774 33.6354 50.8393 33.7277 50.773 33.7528C50.768 33.7526 50.6806 33.712 50.6581 33.7486C50.6413 33.7761 50.6171 33.8055 50.5911 33.8365C50.7505 33.548 50.8566 33.264 50.9032 32.9982C50.9043 32.995 50.9058 32.992 50.9069 32.9888ZM30.3358 32.9964C30.3822 33.2625 30.4881 33.547 30.6476 33.8358C30.6218 33.8052 30.5982 33.7759 30.5816 33.7486C30.5588 33.7115 30.4692 33.7537 30.4664 33.7528C30.4 33.7277 30.4623 33.6354 30.4784 33.5931L30.482 33.5788C30.4799 33.5213 30.3038 33.5913 30.3122 33.5394C30.3245 33.4748 30.4358 33.4732 30.3042 33.44C30.3024 33.2854 30.3075 33.1338 30.3328 32.9888C30.3337 32.9914 30.3349 32.9938 30.3358 32.9964ZM30.986 31.4983C31.4266 31.3444 31.832 31.5052 32.2233 31.5722C32.2797 31.5826 32.2987 31.4644 32.3626 31.4986C32.3868 31.5118 32.4144 31.6371 32.4831 31.6291C32.5378 31.6224 32.6771 31.5945 32.7453 31.5876C32.7699 31.585 32.7511 31.6581 32.7529 31.6618C32.7821 31.6842 32.7988 31.6126 32.8149 31.6151C32.848 31.6209 32.8307 31.6959 32.8652 31.703C32.8914 31.7082 32.9525 31.6181 32.9801 31.636C32.9939 31.645 32.9649 31.7365 32.9781 31.7427C33.2435 31.8628 33.5307 31.9463 33.7372 32.1727C32.992 31.7477 32.2443 31.5324 31.6371 31.5436C31.5853 31.5315 31.5273 31.5387 31.4713 31.553C31.0312 31.5936 30.6801 31.7648 30.4807 32.0747C30.3596 32.2629 30.3047 32.4863 30.3092 32.7317C30.3049 32.7327 30.3007 32.7343 30.2962 32.7352C30.301 32.7378 30.3053 32.7406 30.3095 32.7429C30.3114 32.8177 30.3191 32.8945 30.3318 32.9731C30.3189 32.979 30.2952 32.9743 30.2535 32.9487C30.2113 32.9304 30.1348 32.5804 30.1603 32.4974C30.1787 32.4019 30.2724 32.3846 30.3125 32.3147C30.3194 32.3024 30.2103 32.2095 30.2352 32.1884C30.2599 32.1689 30.3441 32.1913 30.3598 32.1591C30.3786 32.1204 30.2735 32.0754 30.2699 32.058C30.262 31.9987 30.3805 32.0937 30.4167 32.0486C30.419 32.0458 30.4225 32.0417 30.4267 32.0367C30.4512 32.0068 30.5054 31.949 30.525 31.9004C30.5357 31.8688 30.5041 31.7251 30.5756 31.7079C30.6119 31.6992 30.6968 31.7338 30.7471 31.7141C30.7607 31.708 30.852 31.6942 30.8677 31.6894C30.9106 31.6716 30.957 31.5086 30.986 31.4983ZM49.0163 31.5722C49.4076 31.5052 49.8128 31.3445 50.2534 31.4983C50.2824 31.5086 50.3288 31.6712 50.3716 31.6894C50.3872 31.6942 50.4791 31.708 50.4925 31.7141C50.5429 31.7337 50.6279 31.6992 50.6641 31.7079C50.7355 31.7252 50.7039 31.8689 50.7147 31.9004C50.7343 31.949 50.7885 32.0068 50.813 32.0367C50.8172 32.0417 50.8207 32.0458 50.8229 32.0486C50.8592 32.0937 50.9777 31.9987 50.9698 32.058C50.9663 32.0754 50.8611 32.1203 50.8799 32.1591C50.8956 32.1913 50.9799 32.1688 51.0045 32.1884C51.0294 32.2095 50.9202 32.3022 50.9269 32.3147C50.9669 32.3846 51.0606 32.402 51.0791 32.4974C51.1046 32.5804 51.028 32.9307 50.9858 32.9487C50.9437 32.9745 50.92 32.9794 50.9072 32.9731C50.9199 32.8945 50.9276 32.8178 50.9295 32.7429C50.9338 32.7405 50.9386 32.7379 50.9435 32.7352C50.9389 32.7343 50.9345 32.7327 50.9302 32.7317C50.9347 32.4863 50.8801 32.2629 50.759 32.0747C50.5596 31.7648 50.2084 31.5936 49.7684 31.553C49.7124 31.5387 49.6544 31.5316 49.6026 31.5436C48.9953 31.5324 48.2473 31.7478 47.5019 32.1731C47.7083 31.9463 47.996 31.8628 48.2616 31.7427C48.2745 31.736 48.2458 31.6453 48.2593 31.636C48.2869 31.618 48.3483 31.7083 48.3745 31.703C48.4088 31.6958 48.3917 31.6209 48.4248 31.6151C48.4408 31.613 48.4573 31.6841 48.4864 31.6618C48.4888 31.6599 48.4692 31.585 48.4941 31.5876C48.5623 31.5945 48.702 31.6224 48.7565 31.6291C48.8253 31.6371 48.8529 31.5116 48.8771 31.4986C48.941 31.4645 48.9599 31.5827 49.0163 31.5722ZM46.5299 32.8116C46.5332 32.8112 46.5415 32.8239 46.5516 32.8388C46.5379 32.8504 46.5245 32.8623 46.511 32.874C46.5076 32.8433 46.5066 32.8161 46.5299 32.8116ZM34.7097 32.8116C34.7329 32.8161 34.7314 32.8431 34.7281 32.8737C34.7146 32.862 34.7011 32.8504 34.6874 32.8388C34.6977 32.8237 34.7065 32.811 34.7097 32.8116ZM68.0446 29.0289C67.7444 28.3706 67.5335 27.8476 67.2046 28.0155C67.4946 28.3483 67.7746 28.6863 68.0446 29.0289ZM48.1657 19.1009C48.1168 19.1065 48.3109 18.8742 48.0318 18.9318C47.8927 18.9598 47.4039 19.3364 46.9716 19.2432C46.8984 19.2149 45.7152 18.6087 46.1652 19.3942C46.3352 19.4076 46.5059 19.4154 46.6772 19.42C47.8617 19.2438 49.0892 19.1907 50.3407 19.2607C49.851 18.763 49.0558 18.9926 48.167 19.1006C48.1666 19.1006 48.1661 19.1009 48.1657 19.1009Z" fill="#1F2126"/>
<path d="M10.0671 5.34644C10.2251 5.25258 10.5501 5.13475 10.7192 5.05575C10.8063 5.01475 10.9081 5.21023 10.9221 5.21356C11.0136 5.2375 10.8814 5.02802 10.9301 5.01567C10.9972 4.99894 11.13 5.13698 11.1898 5.12314C11.228 5.11425 11.1599 4.94751 11.1666 4.94175C11.1776 4.93409 11.1886 4.92656 11.1996 4.91922C11.4528 4.75049 11.7039 4.66485 11.9805 4.54351C13.5082 3.86961 15.2485 3.37496 16.9608 3.58864C17.1034 3.60634 17.0917 3.83472 17.2178 3.80909C17.3417 3.78406 17.5174 3.30574 17.5599 3.85896C17.5755 3.75009 17.584 3.67208 17.5985 3.57304C17.8394 3.75621 18.1167 3.63422 18.3745 3.65961C18.5643 3.67816 18.7264 3.72851 18.8947 3.77784C19.0445 3.823 18.986 4.00624 19.1753 3.79453C19.7854 4.1038 20.4407 4.28221 20.9386 4.77501C21.2391 4.45743 21.2764 4.75533 21.4395 4.89924C21.4598 4.91695 21.4982 4.77027 21.5632 4.81537C21.645 4.87231 21.5896 5.09854 21.7389 5.16057C21.7774 5.17518 22.182 5.10295 22.2229 5.27625C22.2629 5.44732 22.3709 5.59878 22.409 5.76743C22.4454 5.67486 22.475 5.58326 22.5081 5.49048C22.5694 5.50764 22.6308 5.52608 22.692 5.54427C22.6374 5.64892 22.5827 5.75364 22.5269 5.85846C22.6158 5.7819 22.7049 5.70712 22.7963 5.63087C22.5351 6.18201 22.5741 5.97182 22.7998 5.93656C22.9129 5.91997 22.9102 6.04542 23.0166 6.04409C23.0552 6.04309 23.1729 5.90893 23.2152 5.91008C23.3178 5.91491 23.1357 6.08639 23.1794 6.11589C23.2233 6.14448 23.4441 5.9715 23.4513 6.12562C23.0877 6.45346 23.4062 6.49518 23.6447 6.20918C23.6727 6.22975 23.6863 6.25964 23.7229 6.2749C23.1176 6.99713 23.6649 6.57668 23.8037 6.52337C23.9404 6.46851 23.7786 6.66254 23.7971 6.66568C23.8515 6.67474 23.8914 6.57153 23.9197 6.59017C24.1064 6.71725 24.1628 6.97205 24.313 7.13006C24.3346 7.15284 24.4117 7.02907 24.4292 7.0645C24.4465 7.10032 24.3749 7.22788 24.4207 7.25777C24.4332 7.26538 24.5226 7.17839 24.5394 7.1937C24.8823 7.53074 25.1116 7.93631 25.4045 8.31919C25.4312 8.35345 25.6269 8.23994 25.6746 8.31218C25.7224 8.38464 25.6424 8.61036 25.6924 8.70304C25.7058 8.72759 25.8592 8.62258 25.8776 8.6557C25.9403 8.76887 25.8807 8.94556 25.9343 9.06588C26.0248 9.26886 26.247 9.40177 26.2696 9.64949C26.274 9.69614 26.1383 9.77112 26.1316 9.84475C26.1197 9.97155 26.2944 9.82298 26.3313 9.82573C26.4509 9.83637 26.2022 10.0066 26.3019 10.0249C26.3175 10.0276 26.4641 9.92723 26.4718 9.93321C26.5698 10.0431 26.2071 10.2507 26.4752 10.2748C26.3257 10.5047 26.1496 10.3496 26.0274 10.3931C25.7307 10.4971 25.4776 10.7928 25.4096 10.9152C25.3517 11.0213 25.5222 10.9315 25.5351 10.9554C25.6018 11.0814 25.7275 11.256 25.6897 11.3933C25.6672 11.4755 25.5447 11.4031 25.5012 11.4601C25.4575 11.5159 25.5979 11.4746 25.4678 11.5706C25.3377 11.6674 24.9376 11.9172 24.729 11.9963C24.4787 11.892 24.3274 11.7621 24.3077 11.5497C24.3031 11.5014 24.4323 11.4377 24.444 11.4101C24.4653 11.3594 24.3029 11.3819 24.2978 11.3754C24.2722 11.3328 24.5018 11.2282 24.5071 11.2176C24.5591 11.1008 24.3194 11.2595 24.2602 11.2113C24.183 11.1482 24.1661 11.0186 24.1186 10.9151C24.1025 10.8786 24.2749 10.7922 24.2147 10.727C24.1718 10.6798 23.8877 10.6446 24.031 10.4421C24.1033 10.3918 24.1898 10.3457 24.2675 10.2983C23.8918 10.4007 23.8836 10.3603 23.8496 10.163C23.844 10.1318 23.7075 10.201 23.7224 10.1284C23.7372 10.0557 23.9204 9.91228 23.8554 9.83373C23.8318 9.80621 23.6899 9.89118 23.6504 9.85328C23.5394 9.74579 23.5011 9.38926 23.4165 9.28766C23.2526 9.0885 22.9576 9.18819 22.8669 8.96499C22.8594 8.94796 23.0111 8.84494 22.9908 8.82015C22.9697 8.795 22.7815 8.9447 22.7722 8.94363C22.6713 8.93175 22.7534 8.57597 22.6907 8.57254C22.5417 8.56753 22.5575 8.72011 22.4096 8.65211C22.2706 8.58929 22.3047 8.21783 22.2183 8.07573C22.1175 7.91055 21.8094 8.24391 21.974 7.78385C21.572 7.53319 21.1568 7.30251 20.7261 7.10984C20.7699 7.02695 20.8139 6.94399 20.858 6.86126C20.7944 6.90161 20.7313 6.94271 20.6691 6.98348C20.7052 6.9235 20.7413 6.86338 20.7773 6.80415C20.4957 6.96494 20.3018 7.02724 20.1447 6.87837C20.1416 6.87548 20.2255 6.70809 20.2244 6.70234C20.1951 6.65133 20.0911 6.76321 20.0666 6.71652C20.0086 6.60403 19.9969 6.16203 19.8845 6.65334C19.7063 6.47213 19.3948 6.54109 19.2161 6.38434C19.1384 6.31638 19.1953 6.02561 19.1548 5.99566C19.1144 5.96615 19.066 6.21658 19.0475 6.22135C18.9377 6.24764 18.7871 6.19626 18.8415 5.91728C18.7932 6.0219 18.7442 6.12792 18.6968 6.2336C18.7871 5.93078 18.4568 5.98389 18.3807 5.96098C18.3667 5.95652 18.3936 5.82159 18.3826 5.81999C18.2566 5.81134 18.184 6.01786 18.0689 6.06914C18.0284 6.08741 18.1289 5.85865 18.0169 5.94468C18.0071 5.95241 17.9722 6.16755 17.8639 6.14769C17.6897 6.11487 17.347 6.15572 17.1492 6.02977C17.1333 6.01827 17.2082 5.78793 17.1235 5.83527C17.0927 5.85234 17.0913 6.02188 17.0222 6.01751C16.7574 6.00235 16.4721 5.79587 16.1953 5.95739C16.2048 5.76636 16.3068 5.5519 16.1552 5.67176C16.1312 5.69163 16.15 5.86213 16.1394 5.86868C16.0542 5.91846 15.9766 5.79773 15.8851 5.866C15.8582 5.88658 15.8558 6.02091 15.8234 6.05383C15.7759 6.10245 15.7454 5.913 15.691 5.99654C15.6059 6.1288 15.6072 6.30995 15.4699 5.96341C14.8271 6.03266 14.2261 6.23555 13.5686 6.24934C13.4147 6.3957 13.2873 6.5517 13.1189 6.64723C13.0695 6.67532 12.9826 6.44838 12.9229 6.55362C12.9083 6.57746 12.863 6.86839 12.6758 6.41584C12.6518 6.46951 12.6282 6.48003 12.6045 6.51673C12.6546 6.57471 12.7053 6.63332 12.7536 6.69292C12.59 6.6697 12.5412 6.87408 12.4569 6.99693C12.3943 7.08752 12.3745 6.86846 12.3296 6.91007C12.2842 6.9514 12.2803 7.00431 12.1127 6.80299C12.1389 6.92242 12.1349 6.96317 12.1138 6.97254C12.0839 6.98583 12.0189 6.93593 11.9607 6.95774C11.9499 6.96252 11.9382 7.09125 11.8801 7.09414C11.8382 7.09605 11.7491 6.93829 11.7049 6.99091C11.6966 6.99944 11.68 7.25828 11.6528 7.29549C11.6108 7.35328 11.4115 7.19634 11.3985 7.20019C11.2152 7.25257 11.271 7.48444 10.9667 7.22501C11.0559 7.4324 11.0307 7.59966 10.9458 7.62637C10.8409 7.65749 10.3996 7.39782 10.642 7.81879C10.4162 7.7105 10.5006 7.81381 10.3796 7.90348C10.2693 7.98386 9.86354 8.05766 9.79103 8.15209C9.71875 8.24371 9.93157 8.41837 9.92013 8.47395C9.90282 8.56517 9.80665 8.38743 9.77026 8.42108C9.66806 8.51703 9.60055 8.62566 9.56014 8.7785C9.46155 8.67954 9.36191 8.5806 9.26267 8.48225C9.28857 8.52153 9.31449 8.56092 9.34054 8.60007C9.31798 8.61865 9.29568 8.64296 9.27298 8.65818C9.85243 8.95766 9.08445 8.76873 8.97383 8.86014C8.88228 8.93268 8.96039 9.26969 8.92517 9.40056C8.9164 9.43242 8.81942 9.31559 8.81786 9.32239C8.80085 9.4045 8.86967 9.4815 8.79574 9.54302C8.75649 9.57507 8.58027 9.48973 8.54464 9.52551C8.28308 9.78992 8.21659 10.1869 8.03119 10.4919C7.9997 10.5438 7.77879 10.459 7.7453 10.5003C7.69787 10.5594 7.83022 10.7017 7.79567 10.7612C7.76128 10.8201 7.51695 10.7872 7.52116 10.8464C7.52556 10.9045 7.75405 10.9487 7.6585 10.9912C7.61453 11.0108 7.51127 10.8673 7.48161 10.907C7.38765 11.0334 7.45839 11.3185 7.21013 11.3717C7.25651 11.3879 7.29986 11.3996 7.34504 11.4137C7.24753 11.5572 7.07363 11.6433 6.98119 11.801C6.94856 11.8564 7.03177 12.0187 7.00685 12.0744C6.98168 12.1303 6.82832 12.0953 6.80461 12.1398C6.79473 12.1579 6.92437 12.2038 6.91799 12.2156C6.81922 12.3579 6.55359 12.357 6.51616 12.5395C6.38166 13.2042 6.29823 13.889 6.29253 14.5564C6.2925 14.5834 6.46885 14.6273 6.49003 14.6684C6.52275 14.7316 6.36567 14.7134 6.35764 14.7203C6.31599 14.7668 6.4652 14.7654 6.45683 14.8331C6.43784 14.9814 6.28399 15.2133 6.28588 15.3667C6.28964 15.7193 6.4277 16.0148 6.51106 16.345C6.51683 16.3688 6.30277 16.361 6.30178 16.4038C6.29526 16.7081 6.50242 16.7537 6.48707 17.1264C6.46881 17.4995 6.47872 18.2213 6.58129 18.6567C6.58086 18.6569 6.58172 18.6566 6.58129 18.6567C7.00029 18.6791 6.95496 18.8661 6.72119 19.1061C5.50564 18.5783 5.72396 17.5261 5.63307 16.5816C5.52877 15.5842 4.9284 14.3516 5.30694 13.2711C5.34223 13.1719 5.57066 13.1909 5.54821 13.0953C5.54388 13.079 5.36708 13.069 5.36234 13.0204C5.30782 12.3383 5.92073 11.84 6.08392 11.2497C6.12921 11.0879 5.96786 10.9777 5.99167 10.8218C6.06097 10.8872 6.13825 10.9462 6.2103 11.0081C6.76492 10.5514 6.99894 9.94113 7.43662 9.4343C7.45655 9.4118 7.60937 9.52426 7.63371 9.50426C7.68254 9.46479 7.5553 9.28939 7.58418 9.2419C7.62185 9.18048 7.7466 9.26583 7.7802 9.20957C7.7965 9.18188 7.6787 9.09659 7.74249 9.05855C7.74934 9.0567 7.86676 9.14981 7.88129 9.10252C7.92001 8.97136 7.99713 8.69263 8.04264 8.58854C8.10014 8.45508 8.34015 8.53575 8.38589 8.51084C8.50958 8.44232 8.34196 8.27866 8.42583 8.19593C9.02894 7.60682 9.81924 7.32997 10.5235 6.8961C10.5667 6.8686 10.6026 6.54358 10.6958 6.50321C10.727 6.49011 10.9107 6.46683 10.9366 6.4599C11.0397 6.42892 11.1931 6.52736 11.2587 6.53103C11.3856 6.53865 11.3864 6.26407 11.4318 6.21475C11.498 6.14151 11.6445 6.0938 11.7138 6.07424C11.7258 6.0708 11.7355 6.06803 11.742 6.06618C11.8485 6.03632 11.9366 6.3308 11.9788 6.23544C11.9914 6.20702 11.8778 6.0008 11.953 5.96925C12.0164 5.94387 12.1085 6.0964 12.1624 6.10885C12.2157 6.1212 12.1943 5.83804 12.2241 5.83283C12.3808 5.81353 12.5047 5.95809 12.66 5.91349C12.7852 5.87204 13.3474 5.57317 13.3856 5.50107C13.5436 5.16316 13.1901 5.38908 13.1674 5.38705C13.0363 5.36669 13.0201 5.25681 12.9652 5.49278C12.6629 4.90612 12.6235 5.98263 12.2764 5.29303C12.3555 5.80876 12.1902 5.59566 12.0519 5.53914C11.862 5.46133 12.0762 5.69672 11.9785 5.73852C11.9404 5.7544 11.7371 5.58736 11.69 5.64306C11.6484 5.69298 11.6818 5.83859 11.6358 5.89894C11.6306 5.90569 11.6245 5.91145 11.6171 5.91584C11.4863 5.99456 11.3431 5.97034 11.1329 5.83545C11.1532 5.93063 11.1757 6.02492 11.1973 6.11957C11.0746 6.06726 10.9482 6.01865 10.8218 5.9713C10.873 6.03756 10.9244 6.10448 10.9751 6.17106C10.9578 6.19359 10.9402 6.21568 10.9229 6.23765C10.7894 6.16811 10.662 6.10676 10.5208 6.03883C10.5447 6.57356 10.4028 6.17959 10.2522 6.19615C10.1023 6.21355 10.1801 6.49043 10.0945 6.54628C9.97805 6.62294 9.94305 6.68689 9.81583 6.74885C9.7424 6.78472 9.47715 6.64504 9.81057 6.9276C9.62181 7.09801 9.42329 7.39442 9.14233 7.4019C9.05902 7.40489 9.04471 7.24553 9.02564 7.2397C8.93161 7.21512 9.03025 7.41269 8.96579 7.42594C8.85814 7.44764 8.60386 7.44475 8.51819 7.46825C8.39425 7.50112 8.45323 7.8268 8.45525 7.85319C8.46062 8.00305 8.28255 7.85343 8.27015 7.88739C8.20227 8.08211 8.24597 8.17723 7.85698 7.87439C7.97086 8.0593 8.09271 8.44537 7.80133 8.23628C8.03407 8.45776 7.88381 8.53938 7.8774 8.66735C7.79587 8.61887 7.71443 8.57111 7.63182 8.52291C7.92317 9.05877 7.34864 9.09649 7.1241 9.28304C7.11979 9.28862 7.30356 9.4424 7.23587 9.44258C7.23006 9.44141 7.14658 9.37397 7.1188 9.38781C7.02808 9.43158 6.60223 9.5667 6.57699 9.60213C6.48422 9.72363 6.6202 9.84469 6.58507 9.93004C6.53965 10.0426 6.39284 9.97147 6.3519 10.0821C6.33253 10.134 6.49027 10.2859 6.42203 10.342C6.38173 10.3754 6.23451 10.2953 6.20278 10.323C6.08932 10.4221 6.13202 10.5634 5.87953 10.5716C6.33417 10.8526 5.96006 10.7193 5.89491 10.7572C5.62996 10.9095 5.69661 11.2968 5.56684 11.4751C5.15802 12.0346 4.64515 12.5239 4.40523 13.1875C4.36688 13.2953 4.62137 13.3825 4.57959 13.4918C4.5603 13.5408 4.35946 13.5534 4.33917 13.6385C4.32242 13.7068 4.39992 13.8237 4.38393 13.9086C4.37984 13.9312 4.20053 13.9011 4.19307 13.9349C4.13723 14.1912 4.22883 14.4636 4.28903 14.7305C4.31153 14.8291 4.06629 14.8656 4.48517 14.8898C4.37934 14.9158 4.28689 14.943 4.18283 14.9687C4.43469 15.1227 4.152 15.2083 4.20997 15.3932C4.21787 15.4144 4.49978 15.5593 4.28889 15.6275C4.43808 15.6375 4.56537 15.6298 4.70056 15.6363C4.75518 15.7101 4.58061 15.8181 4.56239 15.8683C4.54426 15.918 4.73847 15.952 4.74034 15.9666C4.74487 16.0219 4.49352 16.0101 4.4857 16.0142C4.24308 16.2834 4.38013 16.2597 4.7677 16.4033C4.86442 16.4371 4.59906 16.7223 4.90524 16.755C4.7824 16.7661 4.67306 16.7587 4.55535 16.7624C4.52934 16.8462 4.50334 16.9316 4.47929 17.0172C4.59559 16.9889 4.71197 16.9576 4.8293 16.932C4.74132 17.1058 5.03378 17.2128 5.04107 17.343C5.04486 17.4182 4.7847 17.444 4.84734 17.4812C4.85981 17.4883 5.03294 17.4498 5.05052 17.4733C5.19367 17.6643 5.02372 17.7826 5.02774 17.9988C5.03 18.1012 5.36127 18.1204 5.18456 18.3024C5.16658 18.3184 4.92184 18.5214 5.339 18.5091C5.22001 18.5658 5.15991 18.6057 5.05961 18.6522C5.69148 18.6727 5.10112 18.7702 5.03095 19.0428C4.99296 19.1843 5.22325 19.5577 5.33081 19.6609C5.39504 19.7235 5.61836 19.6409 5.63268 19.6505C5.71286 19.71 5.49639 19.7906 5.55936 19.851C5.62321 19.9121 5.902 19.9058 5.9091 19.9868C5.91457 20.0493 5.63075 20.1143 5.75768 20.1596C5.78488 20.1684 5.98935 20.0259 5.93773 20.1493C5.92928 20.168 5.74759 20.4128 5.7091 20.466C5.53583 20.4546 5.25716 20.3092 5.16566 20.246C3.4528 19.2127 2.99757 15.4572 3.60196 13.7144C3.64527 13.5486 3.91387 13.4915 3.95805 13.3911C4.00275 13.29 3.75811 13.3297 3.79852 13.2367C3.84008 13.1436 4.01482 13.1112 4.05069 13.0258C4.29427 12.4478 4.58567 11.8962 4.85841 11.3588C4.9286 11.22 4.80814 11.0299 4.86834 10.8984C4.89192 10.8475 5.11125 10.9475 5.12606 10.9115C5.28643 10.5252 5.26731 10.0665 5.51143 9.71289C5.61311 9.56637 5.88616 9.51413 5.99624 9.3823C6.08735 9.27362 6.0566 9.07323 6.12906 8.96625C6.16796 8.90791 6.33849 8.9857 6.36469 8.9742C6.45406 8.93269 6.25628 8.82477 6.28238 8.78848C6.35725 8.68887 6.60957 8.80393 6.66241 8.70187C6.68314 8.66158 6.54352 8.5595 6.56333 8.49109C6.58892 8.40464 6.69401 8.52796 6.73552 8.48582C6.73833 8.48347 6.6352 8.41502 6.65128 8.38728C6.75383 8.20873 6.84739 7.95029 6.98749 7.80853C7.27752 7.51305 7.73079 7.39735 8.03607 7.18284C8.11344 7.12791 7.98765 7.025 8.00502 6.99895C8.09051 6.87386 8.25554 6.98502 8.32586 6.8348C8.33717 6.80972 8.27376 6.57314 8.38628 6.55413C8.4469 6.54395 8.58081 6.61487 8.63585 6.61269C8.69078 6.6103 8.57009 6.44527 8.61291 6.41174C8.69061 6.35099 8.75374 6.4804 8.85004 6.37605C8.88826 6.33473 8.92798 6.06466 9.058 5.99194C9.26933 5.87276 9.61487 5.85712 9.85322 5.71637C9.93518 5.66833 9.93592 5.42315 10.0671 5.34644ZM21.5471 6.15755C21.3726 6.68792 21.6178 6.5764 21.8143 6.64778C21.8227 6.65165 21.7156 6.75357 21.7749 6.75912C21.8034 6.76128 22.0054 6.62719 22.0231 6.75403C22.0283 6.77857 21.9127 7.32382 22.1663 6.82632C22.0647 6.4719 21.7408 6.41682 21.5471 6.15755ZM14.5838 4.82857C14.162 4.93318 13.8235 5.17342 13.4481 5.33161C13.7391 5.36117 14.0247 5.39435 14.3042 5.45051C14.4139 5.1995 14.3773 5.42294 14.4861 5.47715C14.5718 5.5206 14.532 5.13509 14.6435 5.16231C14.7017 5.17686 14.8498 5.42695 14.9493 5.30272C14.9528 5.29807 14.94 5.09725 15.0262 5.08087C15.2181 5.04406 15.5123 4.91798 15.7367 4.95252C15.8022 4.96269 15.7968 5.17394 15.8724 5.1978C15.9271 5.21507 15.9874 5.01877 16.0754 5.06108C16.1865 5.11574 16.2336 5.4515 16.3128 4.98642C16.3171 5.15282 16.3123 5.31509 16.3175 5.47727C16.5414 4.71437 17.1704 4.8279 17.4791 4.94177C17.7442 5.0335 17.8736 5.65002 17.9522 4.80141C17.6593 4.75045 17.4124 4.80641 17.1043 4.75471C17.0722 4.74874 16.8845 4.65661 16.8171 4.63929C16.7795 4.62943 16.7855 4.4889 16.7328 4.48771C16.7211 4.48783 16.65 4.66849 16.6276 4.66274C16.5514 4.6426 16.3219 4.35758 16.2865 4.365C16.1938 4.38838 16.2286 4.60706 16.1895 4.64663C16.06 4.77806 16.0416 4.45048 15.912 4.55976C15.8886 4.57941 15.8209 4.86655 15.7258 4.83327C15.6871 4.81929 15.614 4.67553 15.5843 4.68402C15.4225 4.7307 15.2597 4.93917 15.112 4.92117C14.9901 4.90637 14.9988 4.68377 14.9309 4.66132C14.8625 4.64019 14.8153 4.90352 14.7749 4.92364C14.7094 4.95528 14.6054 4.82329 14.5838 4.82857Z" fill="#1F2126"/>
<path d="M68.1698 4.82621C68.3446 4.88008 68.6484 5.04127 68.8196 5.11365C68.9079 5.15058 68.8311 5.35693 68.8378 5.36992C68.8809 5.45379 68.948 5.21537 68.9895 5.24314C69.0467 5.28155 69.0328 5.47289 69.0829 5.50781C69.1149 5.52987 69.1935 5.36692 69.2018 5.36905C69.2148 5.37203 69.2276 5.37512 69.2403 5.37833C69.5337 5.45296 69.7643 5.58172 70.0379 5.70576C71.5524 6.38842 73.0729 7.35761 74.0399 8.77551C74.1206 8.89355 73.9419 9.03578 74.0442 9.11265C74.1445 9.18838 74.619 9.00343 74.2318 9.40062C74.3237 9.34025 74.3878 9.29486 74.4717 9.24023C74.4928 9.54105 74.7664 9.66702 74.917 9.87614C75.0279 10.0298 75.0968 10.1837 75.1705 10.3418C75.2351 10.4833 75.0588 10.5603 75.3424 10.5619C75.5111 11.2205 75.808 11.8264 75.7651 12.5212C76.2015 12.5362 76.0019 12.7597 76.0011 12.9757C76.0012 13.0024 76.1368 12.9348 76.1458 13.0125C76.157 13.1109 75.9502 13.2185 76.0021 13.3705C76.0168 13.4089 76.3369 13.6621 76.2338 13.8063C76.1316 13.9484 76.0889 14.1284 75.9873 14.2676C76.0808 14.2338 76.1695 14.196 76.2611 14.1597C76.2886 14.2166 76.3151 14.2742 76.3419 14.3317C76.2272 14.3597 76.1123 14.3876 75.9968 14.415C76.1129 14.4308 76.2278 14.4476 76.3454 14.4655C75.759 14.6331 75.9429 14.5243 76.1184 14.6691C76.2054 14.7423 76.1095 14.8228 76.1807 14.9009C76.2071 14.9289 76.3854 14.9284 76.4124 14.9607C76.4765 15.0401 76.2277 15.0172 76.2344 15.0691C76.242 15.1205 76.5175 15.171 76.4065 15.2776C75.9203 15.2227 76.0996 15.4865 76.4718 15.476C76.4749 15.5103 76.4613 15.5402 76.4741 15.5775C75.5325 15.6019 76.2092 15.7324 76.3412 15.8005C76.4727 15.8661 76.2206 15.8732 76.2303 15.8891C76.2595 15.9354 76.3632 15.8975 76.3681 15.9306C76.3964 16.1525 76.2428 16.3623 76.224 16.5773C76.2216 16.6082 76.3645 16.584 76.3501 16.62C76.335 16.6564 76.1918 16.6874 76.1997 16.7411C76.2028 16.7554 76.3271 16.7648 76.3264 16.7874C76.3015 17.2634 76.1509 17.6995 76.0601 18.1686C76.0524 18.2109 76.2669 18.2815 76.2448 18.3641C76.2226 18.4472 76.0013 18.5364 75.9656 18.6345C75.956 18.6606 76.1366 18.7051 76.1242 18.7406C76.0817 18.8617 75.9105 18.9337 75.8567 19.0528C75.766 19.2535 75.8155 19.5054 75.6467 19.6855C75.6151 19.7196 75.4684 19.6684 75.4092 19.712C75.3069 19.7869 75.534 19.8184 75.5566 19.8476C75.6287 19.9431 75.3359 19.8714 75.389 19.9572C75.3972 19.9705 75.5713 20.013 75.571 20.0225C75.5549 20.1675 75.1583 20.036 75.3197 20.2504C75.0491 20.2916 75.0463 20.0585 74.9322 19.9967C74.6565 19.8457 74.2677 19.854 74.1315 19.8847C74.0142 19.9121 74.195 19.9788 74.1856 20.0041C74.1368 20.1369 74.0917 20.3454 73.9648 20.4084C73.8888 20.4462 73.8602 20.3078 73.7889 20.3133C73.7185 20.318 73.843 20.3945 73.6847 20.3618C73.5258 20.3296 73.0727 20.1991 72.8742 20.097C72.7838 19.8422 72.7792 19.6435 72.9238 19.4879C72.9567 19.4527 73.0902 19.506 73.1185 19.4964C73.1703 19.4784 73.0438 19.3722 73.0462 19.3648C73.0608 19.3176 73.2922 19.4187 73.3036 19.4155C73.425 19.3767 73.1469 19.3039 73.1434 19.228C73.1387 19.129 73.2236 19.0306 73.2689 18.9269C73.2853 18.8907 73.4649 18.9614 73.4731 18.8736C73.4797 18.8105 73.3161 18.5761 73.5625 18.5486C73.6482 18.569 73.7399 18.603 73.827 18.6294C73.5004 18.418 73.5253 18.3852 73.6497 18.2294C73.6688 18.2046 73.5269 18.149 73.5905 18.1122C73.6544 18.0751 73.8838 18.1166 73.8992 18.0164C73.904 17.9808 73.7463 17.9312 73.7482 17.8771C73.7545 17.7235 73.9951 17.4601 74.0149 17.3302C74.0549 17.077 73.7847 16.9233 73.8917 16.7087C73.9005 16.6923 74.0771 16.737 74.0822 16.7057C74.087 16.6736 73.8516 16.6325 73.8447 16.6246C73.7865 16.5417 74.1077 16.3686 74.0687 16.3196C73.9737 16.2054 73.8698 16.3177 73.8227 16.1626C73.7779 16.0181 74.0788 15.7992 74.1283 15.6417C74.1856 15.4583 73.7318 15.4479 74.1859 15.2681C74.1084 14.8044 74.0081 14.3441 73.8694 13.8972C73.9605 13.8753 74.0519 13.8538 74.1431 13.8322C74.0709 13.8114 73.9983 13.7912 73.9267 13.7718C73.9956 13.7592 74.0645 13.7467 74.1328 13.7346C73.8265 13.6308 73.6519 13.5273 73.6605 13.3128C73.6615 13.3083 73.842 13.2611 73.8456 13.2565C73.8647 13.2012 73.712 13.1972 73.7311 13.1484C73.7776 13.0312 74.1023 12.7322 73.6589 12.9715C73.678 12.7201 73.4215 12.5338 73.422 12.298C73.422 12.1955 73.6782 12.0463 73.674 11.9965C73.6695 11.9471 73.45 12.0757 73.4341 12.0653C73.3421 12.001 73.2818 11.8555 73.5274 11.7122C73.417 11.7452 73.305 11.7785 73.1944 11.8128C73.4815 11.6805 73.2243 11.4698 73.1917 11.3983C73.1863 11.3848 73.305 11.3162 73.2989 11.307C73.2227 11.2076 73.0202 11.2894 72.9062 11.2379C72.8659 11.2199 73.1036 11.1439 72.9655 11.1174C72.9533 11.1153 72.7684 11.2313 72.7124 11.1378C72.6227 10.9866 72.3676 10.7594 72.3325 10.5295C72.3297 10.5104 72.5532 10.4133 72.4615 10.3817C72.4284 10.3704 72.3004 10.4811 72.2585 10.427C72.0963 10.2205 72.0641 9.87244 71.7617 9.77417C71.911 9.65472 72.1383 9.58805 71.9494 9.55499C71.9187 9.55033 71.8029 9.67731 71.7911 9.67365C71.6982 9.64335 71.7378 9.50611 71.6266 9.4834C71.5935 9.47711 71.4917 9.56416 71.4458 9.56211C71.3779 9.55941 71.4998 9.41114 71.4016 9.42622C71.2469 9.45092 71.1122 9.57208 71.2814 9.2404C70.8079 8.80995 70.2627 8.50008 69.8202 8.02287C69.61 8.0067 69.4104 8.01668 69.2288 7.95613C69.1758 7.93812 69.2864 7.72254 69.1694 7.74878C69.1424 7.75363 68.8967 7.91595 69.1089 7.47407C69.0533 7.49229 69.0298 7.4815 68.987 7.48855C68.977 7.56445 68.9671 7.64147 68.9547 7.71713C68.8642 7.58048 68.6804 7.68162 68.534 7.70174C68.426 7.71622 68.5747 7.55484 68.5148 7.54929C68.4543 7.5434 68.4125 7.57607 68.4507 7.31709C68.3798 7.41661 68.347 7.44098 68.3261 7.43165C68.2966 7.41847 68.2907 7.33712 68.2362 7.30866C68.226 7.30349 68.1228 7.3817 68.0822 7.34063C68.0531 7.31093 68.1107 7.13895 68.0426 7.14172C68.0309 7.14137 67.8287 7.3032 67.7835 7.30816C67.7134 7.31566 67.6974 7.06412 67.686 7.0562C67.5262 6.95594 67.3922 7.15331 67.3817 6.75405C67.2881 6.95943 67.1484 7.05315 67.0726 7.00848C66.9805 6.95195 66.8786 6.45146 66.7301 6.91393C66.66 6.67426 66.6399 6.80621 66.4938 6.77732C66.3615 6.74996 66.0382 6.50031 65.9205 6.51046C65.8054 6.51896 65.8191 6.79344 65.7709 6.82285C65.6926 6.87182 65.7586 6.68079 65.7097 6.67673C65.5716 6.6661 65.4468 6.68959 65.3083 6.76303C65.315 6.62353 65.3211 6.48327 65.3268 6.34371C65.3154 6.38928 65.304 6.43504 65.2928 6.48065C65.2642 6.47655 65.2316 6.47621 65.2053 6.46975C65.3726 7.09908 64.9989 6.40608 64.8581 6.3858C64.7441 6.36719 64.5498 6.65227 64.431 6.71475C64.4018 6.73001 64.4224 6.5796 64.4164 6.58304C64.3451 6.62598 64.335 6.72856 64.2407 6.71563C64.1912 6.7083 64.1357 6.52128 64.0858 6.51883C63.7178 6.50469 63.3841 6.72415 63.0377 6.79368C62.9788 6.80556 62.8922 6.58558 62.8396 6.58887C62.7647 6.59398 62.7501 6.78758 62.6836 6.80235C62.6176 6.81668 62.4774 6.61454 62.4371 6.65749C62.3978 6.69998 62.5192 6.89807 62.4244 6.85661C62.3804 6.83762 62.4152 6.66443 62.3664 6.66937C62.2112 6.68562 62.0515 6.93007 61.8456 6.78319C61.8651 6.82833 61.8858 6.86824 61.906 6.91101C61.736 6.93617 61.5563 6.86632 61.3792 6.90481C61.3169 6.91803 61.2548 7.08905 61.1974 7.10829C61.1398 7.12729 61.0618 6.99075 61.0135 7.00358C60.9937 7.00871 61.048 7.13542 61.0349 7.13834C60.8648 7.16165 60.6862 6.96547 60.5281 7.06108C59.9537 7.41062 59.3988 7.81068 58.908 8.25555C58.8881 8.27345 58.9755 8.43288 58.9599 8.47638C58.9359 8.54336 58.842 8.41405 58.8322 8.41393C58.7702 8.41461 58.8722 8.52333 58.8172 8.56271C58.6961 8.64848 58.423 8.69123 58.3121 8.79565C58.0568 9.03538 57.9336 9.33495 57.7479 9.61787C57.7349 9.63876 57.5957 9.47518 57.5635 9.50324C57.3362 9.70225 57.4425 9.88589 57.1586 10.1239C56.8722 10.3604 56.3479 10.8499 56.0954 11.2158C56.0951 11.2155 56.0946 11.2154 56.0942 11.2152C56.3592 11.5399 56.1917 11.6317 55.8575 11.6185C55.4309 10.3681 56.3512 9.82896 56.9818 9.12915C57.6425 8.38422 58.1354 7.11424 59.1783 6.66455C59.2745 6.62344 59.4153 6.80459 59.4697 6.72364C59.479 6.7098 59.3663 6.57247 59.3985 6.53608C59.8585 6.03597 60.6351 6.15046 61.175 5.8717C61.3236 5.79574 61.295 5.60255 61.4248 5.51462C61.4239 5.60985 61.433 5.70673 61.4365 5.8016C62.143 5.90126 62.7451 5.66067 63.4091 5.64048C63.4389 5.63995 63.4594 5.82882 63.4903 5.83324C63.5519 5.84259 63.5947 5.63017 63.6487 5.61935C63.7188 5.60566 63.7402 5.75524 63.8038 5.74186C63.835 5.73516 63.818 5.59093 63.8885 5.61212C63.8944 5.61398 63.9052 5.76552 63.9497 5.74404C64.0716 5.68392 64.3267 5.55251 64.4334 5.51572C64.5695 5.46778 64.6717 5.69991 64.7204 5.71639C64.8532 5.76129 64.8607 5.52694 64.9773 5.53293C65.8123 5.57991 66.5429 5.97664 67.3298 6.20507C67.3784 6.21881 67.6417 6.02675 67.7337 6.06836C67.7639 6.08237 67.9041 6.20297 67.9261 6.21717C68.0173 6.27256 68.0463 6.45191 68.087 6.50297C68.1656 6.60196 68.3689 6.41822 68.4354 6.41889C68.5334 6.4187 68.6657 6.49517 68.7261 6.53334C68.7366 6.53997 68.7452 6.5453 68.7509 6.54889C68.8434 6.60785 68.6837 6.87043 68.7823 6.83758C68.8118 6.82734 68.8889 6.60557 68.9619 6.63985C69.0229 6.66968 68.9705 6.84039 68.9969 6.88865C69.0231 6.93646 69.2196 6.73006 69.2427 6.74955C69.3605 6.8526 69.3351 7.04095 69.4705 7.12605C69.5841 7.19106 70.1773 7.40768 70.2561 7.38798C70.6114 7.2795 70.2105 7.16831 70.1969 7.15006C70.1254 7.03923 70.1963 6.9539 69.9847 7.07091C70.2208 6.45468 69.3953 7.1453 69.6775 6.42698C69.3471 6.83071 69.396 6.56516 69.3462 6.42486C69.2782 6.23237 69.2454 6.54902 69.1497 6.50443C69.1128 6.48687 69.1021 6.22429 69.0296 6.22674C68.9651 6.22924 68.8793 6.35163 68.8041 6.35805C68.7957 6.35876 68.7872 6.35802 68.7791 6.3555C68.6342 6.31142 68.5577 6.18922 68.5179 5.94321C68.4609 6.02214 68.4057 6.10207 68.3501 6.18168C68.3073 6.05575 68.2595 5.92944 68.2106 5.80413C68.1956 5.88646 68.1802 5.96949 68.1646 6.05166C68.1365 6.05401 68.1086 6.05578 68.0808 6.0577C68.0436 5.91226 68.0041 5.77669 67.9603 5.62657C67.5813 6.00362 67.7781 5.6341 67.6656 5.53385C67.5531 5.43486 67.4009 5.67839 67.3028 5.65298C67.1685 5.61838 67.098 5.63564 66.9675 5.58332C66.8923 5.55302 66.8182 5.2633 66.8324 5.69957C66.581 5.67483 66.2315 5.72813 66.0382 5.52575C65.9806 5.46627 66.088 5.34847 66.0796 5.3304C66.0349 5.24424 65.9557 5.45033 65.9029 5.41168C65.8152 5.34688 65.6471 5.15734 65.5727 5.10993C65.4656 5.04061 65.2662 5.30385 65.2483 5.32316C65.142 5.42847 65.1326 5.19654 65.0992 5.2097C64.9111 5.29112 64.8709 5.38785 64.8321 4.89641C64.7728 5.10527 64.5721 5.45594 64.5295 5.09995C64.5234 5.42111 64.3632 5.36554 64.2654 5.44728C64.2462 5.35444 64.2261 5.262 64.206 5.16856C64.0093 5.74531 63.5971 5.34737 63.3097 5.30806C63.3026 5.30735 63.3139 5.54831 63.2682 5.49853C63.2652 5.49437 63.2583 5.38617 63.2294 5.37509C63.1364 5.33773 62.7515 5.11548 62.7087 5.12085C62.5575 5.13461 62.5608 5.31676 62.475 5.34866C62.362 5.39148 62.3152 5.23528 62.207 5.27981C62.1561 5.30067 62.1515 5.51951 62.0646 5.5072C62.0131 5.50028 61.9723 5.33752 61.9307 5.33284C61.7818 5.31638 61.7076 5.44338 61.5313 5.26301C61.633 5.78779 61.4781 5.42175 61.4066 5.39958C61.1168 5.30761 60.8797 5.61838 60.6623 5.64339C59.9788 5.72046 59.2756 5.6733 58.6299 5.94384C58.5253 5.98823 58.6339 6.23433 58.5262 6.27741C58.4777 6.29659 58.3323 6.15672 58.2565 6.19916C58.1953 6.23277 58.1624 6.36888 58.0897 6.4142C58.0701 6.42564 57.9712 6.27404 57.9416 6.29107C57.717 6.42244 57.5803 6.67327 57.4263 6.89695C57.3695 6.97983 57.1773 6.82346 57.4429 7.1484C57.3523 7.08785 57.2698 7.03803 57.1806 6.97857C57.2387 7.26769 56.9849 7.11663 56.8891 7.28341C56.8785 7.30259 56.964 7.60891 56.7714 7.499C56.8649 7.61564 56.9564 7.70429 57.043 7.80827C57.026 7.89794 56.8293 7.8416 56.7803 7.86176C56.7317 7.88172 56.838 8.04779 56.8286 8.05891C56.7909 8.09946 56.6277 7.9035 56.6217 7.90326C56.2611 7.90461 56.3711 7.98977 56.5279 8.37165C56.5683 8.46569 56.1807 8.4607 56.3634 8.7084C56.2723 8.62525 56.2036 8.53961 56.1214 8.45528C56.0425 8.49211 55.9628 8.5303 55.884 8.5697C55.9831 8.63654 56.0845 8.70128 56.1824 8.77062C55.9955 8.82194 56.1148 9.10933 56.0242 9.2017C55.9715 9.25475 55.7774 9.07985 55.7923 9.1508C55.7954 9.16473 55.9401 9.26658 55.935 9.29542C55.8914 9.52881 55.6898 9.48224 55.5336 9.62948C55.46 9.69944 55.669 9.95673 55.4164 9.9473C55.3936 9.9449 55.0776 9.89852 55.3682 10.1991C55.2463 10.149 55.1765 10.1314 55.0748 10.0882C55.4848 10.5686 55.0157 10.197 54.7677 10.3264C54.6379 10.3926 54.5178 10.8106 54.5139 10.9586C54.5108 11.0478 54.7221 11.1583 54.724 11.1751C54.7339 11.2739 54.529 11.1671 54.527 11.2541C54.525 11.3418 54.7163 11.5434 54.6612 11.6024C54.6187 11.6479 54.3801 11.4812 54.4319 11.6053C54.4444 11.6313 54.6861 11.6881 54.5603 11.7316C54.5408 11.7377 54.2379 11.7653 54.1726 11.7721C54.0649 11.6363 53.9858 11.3339 53.971 11.2244C53.5881 9.27687 56.0251 6.43962 57.7024 5.70767C57.8525 5.6278 58.076 5.78686 58.1791 5.75173C58.2828 5.7165 58.0887 5.56357 58.1837 5.53066C58.2797 5.49849 58.4214 5.60523 58.5079 5.57407C59.0936 5.36383 59.6924 5.20575 60.2682 5.0434C60.417 5.00135 60.4742 4.78421 60.6109 4.73963C60.664 4.72261 60.739 4.95136 60.7753 4.93799C61.1651 4.7949 61.4868 4.4707 61.9098 4.41121C62.0853 4.38695 62.3079 4.55257 62.4784 4.54439C62.6191 4.53784 62.7445 4.38004 62.8717 4.36108C62.9404 4.3503 62.998 4.52784 63.0241 4.53996C63.1148 4.5779 63.0605 4.35848 63.1049 4.35354C63.2282 4.34133 63.3136 4.60514 63.4238 4.57479C63.4674 4.56281 63.448 4.39131 63.5114 4.35963C63.5919 4.32002 63.5723 4.48074 63.6311 4.48281C63.6347 4.4833 63.6155 4.36095 63.6466 4.35403C63.8461 4.30889 64.0984 4.20343 64.2963 4.2109C64.7081 4.22499 65.0974 4.48124 65.4595 4.5617C65.5515 4.58165 65.5427 4.41959 65.5735 4.41475C65.7226 4.3934 65.7517 4.59006 65.9091 4.54064C65.935 4.53233 66.0668 4.32562 66.1562 4.39613C66.2042 4.43413 66.2414 4.58048 66.2798 4.61971C66.3182 4.65891 66.3592 4.45863 66.4125 4.46765C66.5093 4.48407 66.4563 4.61794 66.5975 4.61878C66.6535 4.61918 66.8787 4.46643 67.0196 4.51367C67.2487 4.58963 67.4913 4.83454 67.7541 4.91622C67.8443 4.94456 68.0254 4.78055 68.1698 4.82621ZM75.126 13.8826C74.6124 14.1011 74.8578 14.2102 74.9338 14.4033C74.936 14.412 74.7893 14.3994 74.8242 14.4472C74.8419 14.4699 75.0751 14.5318 74.9914 14.6281C74.9765 14.6481 74.4909 14.9204 75.032 14.7822C75.231 14.474 75.0588 14.1969 75.126 13.8826ZM71.5469 7.82889C71.1911 7.5853 70.7881 7.49404 70.423 7.32136C70.5928 7.55674 70.7567 7.79051 70.8986 8.03508C71.1581 7.94947 70.9673 8.07112 70.9984 8.18789C71.0223 8.28024 71.2833 7.99472 71.3365 8.0951C71.3639 8.1481 71.2751 8.42426 71.4334 8.41556C71.4398 8.41445 71.5809 8.27203 71.6497 8.32501C71.8034 8.44292 72.0912 8.57828 72.2128 8.7678C72.2479 8.8233 72.0867 8.95931 72.1186 9.03124C72.142 9.08306 72.3282 8.99789 72.3543 9.0913C72.3863 9.21001 72.1656 9.46735 72.5661 9.21815C72.4443 9.33156 72.3195 9.4352 72.2013 9.54645C72.92 9.20763 73.2485 9.75069 73.3657 10.0555C73.4711 10.3134 73.0929 10.8167 73.782 10.3152C73.6279 10.0636 73.4235 9.91662 73.26 9.6534C73.2434 9.62558 73.1891 9.42464 73.1579 9.36313C73.1409 9.32852 73.2495 9.24043 73.2157 9.20051C73.2074 9.19212 73.027 9.25812 73.0158 9.2382C72.9808 9.16847 73.0434 8.80704 73.0142 8.78677C72.9357 8.73355 72.795 8.90435 72.7397 8.90147C72.556 8.89226 72.7891 8.66152 72.6221 8.63758C72.5909 8.63364 72.3322 8.77287 72.2947 8.68022C72.28 8.64181 72.3396 8.4922 72.3136 8.47593C72.1722 8.38676 71.9091 8.40414 71.8256 8.28259C71.7565 8.18229 71.9282 8.04119 71.9005 7.97584C71.8714 7.91076 71.6437 8.05031 71.6018 8.03385C71.5351 8.00627 71.565 7.84174 71.5469 7.82889Z" fill="#1F2126"/>
</svg>
